<svg width="28" height="28" fill="none" xmlns="http://www.w3.org/2000/svg"><path d="M9.655 14c0-2.075-.548-4.112-1.59-5.906l-.417-.725a15.351 15.351 0 0 1 2.66-.391c1.2-.925 2.988-2.021 5.05-2.37l1.267-.233-.731 3.383c2.279.773 4.289 2.344 5.62 3.424.257-.215.526-.425.808-.631 2.171-1.586 4.517-1.74 4.615-1.745L28 8.75l-.146 1.056c-.016.11-.371 2.446-1.73 4.185 1.359 1.739 1.712 4.074 1.73 4.185L28 19.25l-1.063-.074c-.098-.006-2.444-.158-4.615-1.745a15.203 15.203 0 0 1-.796-.622c-1.333 1.085-3.344 2.658-5.626 3.431l.725 3.385-1.267-.23c-2.05-.348-3.833-1.444-5.031-2.37a15.552 15.552 0 0 1-2.698-.395l.433-.721A11.753 11.753 0 0 0 9.655 14z" fill="#fff"/><path d="M.679 12.127c.32-.54.904-1.362 1.87-2.203A11.474 11.474 0 0 1 5.939 7.9l.611 1.068a10.02 10.02 0 0 1 .005 10.056l-.643 1.07A11.446 11.446 0 0 1 2.554 18.1C.818 16.596 0 14.71 0 13.999c0-.673.438-1.462.679-1.872zM5.25 14a.875.875 0 1 0 0-1.75.875.875 0 0 0 0 1.75z" fill="#fff"/></svg>