<svg id="Capa_1" data-name="Capa 1" xmlns="http://www.w3.org/2000/svg" xmlns:xlink="http://www.w3.org/1999/xlink" viewBox="0 0 131.34 200.15"><defs><style>.cls-1{fill:url(#Degradado_sin_nombre_2);}.cls-2{fill:url(#Degradado_sin_nombre_3);}</style><linearGradient id="Degradado_sin_nombre_2" x1="-94.86" y1="-45.66" x2="105.29" y2="-45.66" gradientTransform="matrix(0, -1, -1, 0, 54.34, 105.14)" gradientUnits="userSpaceOnUse"><stop offset="0.18" stop-color="#2c4d47"/><stop offset="0.71" stop-color="#549388"/><stop offset="1" stop-color="#71c7b9"/></linearGradient><linearGradient id="Degradado_sin_nombre_3" x1="160.75" y1="86.91" x2="201.12" y2="117.65" gradientTransform="matrix(1, 0, 0, -1, -75.23, 200.9)" gradientUnits="userSpaceOnUse"><stop offset="0.18" stop-color="#2c4d47"/><stop offset="0.19" stop-color="#325851"/><stop offset="0.24" stop-color="#3f6e65"/><stop offset="0.29" stop-color="#487f75"/><stop offset="0.36" stop-color="#4f8a80"/><stop offset="0.45" stop-color="#539186"/><stop offset="0.71" stop-color="#549388"/><stop offset="0.73" stop-color="#5ca296"/><stop offset="0.76" stop-color="#66b3a6"/><stop offset="0.8" stop-color="#6cbeb1"/><stop offset="0.85" stop-color="#70c5b7"/><stop offset="1" stop-color="#71c7b9"/></linearGradient></defs><title>bateria</title><path class="cls-1" d="M165.67,37.31V179.14c0,11.52-9.81,20.84-21.89,20.86H56.22c-12.08,0-21.87-9.34-21.89-20.86V37.31c0-11.51,9.81-20.84,21.89-20.85H60.6v-4.1C60.6,5.45,66.48-.15,73.73-.15h52.54c7.25,0,13.13,5.6,13.13,12.51v4.1h4.38C155.86,16.47,165.66,25.8,165.67,37.31ZM43.09,179.14c0,6.92,5.88,12.52,13.13,12.52h87.56c7.26,0,13.14-5.6,13.14-12.52V37.31c0-6.91-5.88-12.51-13.14-12.51H135a4.28,4.28,0,0,1-4.38-4.17V12.36a4.28,4.28,0,0,0-4.38-4.17H73.73a4.27,4.27,0,0,0-4.37,4.17v8.27A4.29,4.29,0,0,1,65,24.8H56.22c-7.25,0-13.13,5.6-13.13,12.51Z" transform="translate(-34.33 0.15)"/><path class="cls-2" d="M91.29,144.4a4.68,4.68,0,0,1-1.48-.24,4.17,4.17,0,0,1-2.87-4.45L90.71,111H78.11a4.28,4.28,0,0,1-4.37-4.18,4,4,0,0,1,.82-2.42l31.31-41.71a4.53,4.53,0,0,1,6.11-1,4.1,4.1,0,0,1,1.78,4.08l-4.19,24.36h12.31a4.28,4.28,0,0,1,4.38,4.17,4,4,0,0,1-.69,2.24L95,142.47a4.41,4.41,0,0,1-3.7,1.93Zm-4.65-41.72h9A4.53,4.53,0,0,1,99,104.09a4,4,0,0,1,1.06,3.28l-2,14.93L114,98.5h-9.52a4.28,4.28,0,0,1-4.39-4.15,3.82,3.82,0,0,1,.06-.68l2-11.56Z" transform="translate(-34.33 0.15)"/></svg>