<svg width="20" height="20" fill="none" xmlns="http://www.w3.org/2000/svg"><circle cx="10" cy="10" r="10" fill="#909090"/><g clip-path="url(#a)"><path fill-rule="evenodd" clip-rule="evenodd" d="M8.23 6.736h3.703c.316 0 .573.261.573.58v.134c1.65-.124 1.621-1.81.46-2.444 3.086.247 2.072 3.883.756 3.883 1.094.946 1.012 3.787 1.012 3.787l-1.98-1.083-.011-.012c-.244 1.21-.745 2.431-.779 2.513a1.347 1.347 0 0 0-1.079-.545H9.108c-.439 0-.831.215-1.079.545-.034-.082-.535-1.303-.778-2.513l-.011.012-1.981 1.083s-.082-2.84 1.013-3.787c-1.316 0-2.33-3.636.756-3.883-1.2.654-1.191 2.433.628 2.451v-.14c0-.32.258-.58.574-.58zm2.96 2.55c.376 0 .681.308.681.689 0 .38-.305.689-.68.689a.686.686 0 0 1-.682-.69c0-.38.305-.688.681-.688zm-2.386 0c.376 0 .681.308.681.689 0 .38-.305.689-.681.689a.686.686 0 0 1-.682-.69c0-.38.306-.688.682-.688zm.304 4.54h1.777c.594 0 1.079.49 1.079 1.09 0 .6-.485 1.09-1.079 1.09H9.108c-.593 0-1.078-.49-1.078-1.09 0-.6.485-1.09 1.078-1.09z" fill="#fff"/></g><defs><clipPath id="a"><path fill="#fff" transform="translate(5 5)" d="M0 0h10v11H0z"/></clipPath></defs></svg>