<svg width="117" height="89" fill="none" xmlns="http://www.w3.org/2000/svg"><g clip-path="url(#a)" fill="#fff"><path d="M20.494 3.216h9.73v7.422a3.637 3.637 0 0 0-1.74-.617c-1.991-.17-3.74 1.287-3.905 3.253-.07.823 1.155 1.408 2.613 1.668-1.337 2.289-2.82 4.988-2.898 5.82-.143 1.53 2.289 4.378 2.315 5.548.026 1.17-4.442 5.075-3.776 7.027.529 1.55 4.857 2.691 7.392 2.74v28.678h-3.809c.04.363.063.731.063 1.105 0 .724-.08 1.43-.226 2.11h8.596a10.04 10.04 0 0 1-.163-3.215h-2.683V35.748c1.683-.91 5.273-3.837 7.835-4.753.493-.176 1.151-.31 1.896-.41v25.71a9.81 9.81 0 0 1 8.434 1.38l1.825-7.73c.372.289.786.6 1.252.933v10.263a9.965 9.965 0 0 1 1.181 4.72c0 .723-.079 1.429-.225 2.11h8.596a10.032 10.032 0 0 1-.163-3.216h-7.612V61.12a3.188 3.188 0 0 0 2.88 1.825h.081l5.063-.129c1.282-4.013 5.022-6.925 9.428-6.925 4.197 0 7.79 2.645 9.228 6.365a14.09 14.09 0 0 0 6.073-2.432v4.932h-5.462a10.039 10.039 0 0 1-.163 3.215h8.596a10.039 10.039 0 0 1-.163-3.215h-1.03v-6.43a14.142 14.142 0 0 0 2.718-3.775c.075-.151.143-.304.212-.457.376.204.763.295 1.146.237 1.685-.254 2.65-3.167 2.154-6.504-.215-1.446-.67-2.734-1.253-3.71.753-4.685.744-11.524-4.258-15.787a25.605 25.605 0 0 0-.72-.588V3.216h9.732v52.742a9.828 9.828 0 0 1 3.194.15V3.215h2.343V0H14.957v3.216h2.342v52.703a9.775 9.775 0 0 1 3.195.785V3.216zm8.217 20.168a1.443 1.443 0 0 1-1.437-1.448c0-.8.644-1.448 1.437-1.448.794 0 1.437.648 1.437 1.448 0 .8-.643 1.448-1.437 1.448zM38.716 7.419l-6.713 2.842V3.216h9.731v5.22L38.716 7.42zm39.326 26.728v-.721a12.89 12.89 0 0 1 3.13.703 13.952 13.952 0 0 0-3.13.018zM64.755 51.61a13.202 13.202 0 0 1 0-10.189v10.189zm2.31-9.705c-.199.402-.374.809-.532 1.22v-4.75a13.05 13.05 0 0 1 9.731-5v1.098a14.063 14.063 0 0 0-9.199 7.432zm3.332-21.231s-1.765-2.047-3.864-4.243V3.216h9.731v18.417c-3.428-.817-5.867-.958-5.867-.958zm-5.642-6.048c-1.7-1.668-3.366-3.11-4.317-3.42-1.433-.466-3.72-.238-5.416.043V3.216h9.733v11.411zm-11.51-3.029c-.268.06-.425.1-.425.1l-5.907-2.004-1.7 7.56c-.926-4.649-.818-7.92-.818-7.92l-.882-.297V3.216h9.732v8.382zM56.823 56.7a3.193 3.193 0 0 0-1.801 1.637v-6.245a67.69 67.69 0 0 0 5.578 3.244L56.822 56.7zm30.951-30.247c-3.228-2.143-6.725-3.502-9.732-4.357V3.216h9.732v23.237zM110.113 76.476c-1.195-.607-2.245-.74-2.87-.747-.036-.002-.073-.006-.109-.006H93.711c-.04 0-.08.004-.119.006-.625.007-1.672.142-2.862.746-1.459.729-3.005 2.136-4.285 4.437a15.378 15.378 0 0 0-.57-.954c-1.142-1.744-2.477-2.862-3.71-3.482-1.196-.607-2.246-.74-2.87-.747-.037-.002-.073-.006-.11-.006H65.763c-.04 0-.08.004-.12.006-.624.007-1.67.142-2.861.746-1.459.729-3.005 2.136-4.285 4.437a15.527 15.527 0 0 0-.57-.954c-1.142-1.744-2.477-2.862-3.711-3.482-1.195-.607-2.245-.74-2.87-.747-.036-.002-.072-.006-.109-.006H37.814c-.04 0-.079.004-.118.006-.625.007-1.672.142-2.862.746-1.46.729-3.006 2.136-4.285 4.437a15.73 15.73 0 0 0-.57-.954c-1.142-1.744-2.477-2.862-3.712-3.482-1.195-.607-2.244-.74-2.869-.747-.036-.002-.072-.006-.11-.006H9.866c-.04 0-.079.004-.119.006-.625.007-1.671.142-2.861.746-1.87.934-3.884 2.974-5.293 6.59C.952 84.696.408 86.654 0 89.03h5.656c.437-2.171.983-3.753 1.525-4.87v4.87h18.793v-4.856c.206.426.414.914.619 1.484.328.916.638 2.034.906 3.372h6.106c.436-2.171.982-3.753 1.525-4.87v4.87h18.792v-4.856c.206.426.414.914.619 1.484.328.916.638 2.034.906 3.372h6.106c.436-2.171.982-3.753 1.525-4.87v4.87H81.87v-4.856c.205.426.413.914.618 1.484.328.916.638 2.034.906 3.372h6.106c.436-2.171.982-3.753 1.525-4.87v4.87h18.793v-4.856c.205.426.414.914.619 1.484.328.916.637 2.034.905 3.372H117c-.708-4.146-1.838-7.01-3.178-9.072-1.14-1.744-2.476-2.862-3.709-3.482z"/><path d="M16.579 73.73c4.317 0 7.817-3.524 7.817-7.87 0-4.348-3.5-7.872-7.817-7.872-4.318 0-7.817 3.524-7.817 7.871s3.5 7.871 7.817 7.871zM44.525 73.73c4.317 0 7.817-3.524 7.817-7.87 0-4.348-3.5-7.872-7.817-7.872s-7.817 3.524-7.817 7.871 3.5 7.871 7.817 7.871zM72.473 73.73c4.317 0 7.817-3.524 7.817-7.87 0-4.348-3.5-7.872-7.817-7.872s-7.817 3.524-7.817 7.871 3.5 7.871 7.817 7.871zM100.422 73.73c4.318 0 7.817-3.524 7.817-7.87 0-4.348-3.499-7.872-7.817-7.872-4.317 0-7.816 3.524-7.816 7.871s3.5 7.871 7.816 7.871z"/></g><defs><clipPath id="a"><path fill="#fff" d="M0 0h117v89H0z"/></clipPath></defs></svg>