<svg width="53" height="56" fill="none" xmlns="http://www.w3.org/2000/svg"><path d="M4.158 23.647C2.728 23.005-2.602.665 1.558.024c4.16-.642 14.17 11.94 14.17 11.94-13.52 8.344-10.14 12.324-11.57 11.683zm47.192 1.027c-.13-2.953 2.73-18.231 1.04-23.623-1.69-5.392-13.468 11.811-13.468 11.811 10.973 4.75 12.559 14.765 12.428 11.812zM25.995 56S-5.723 53.637 1.037 31.26c0 0 10.424-25.716 26.338-17.628 0 0 13.313-7.96 24.625 16.305 0 0 8.832 21.57-26.005 26.063zm-4.457-17.075c.338.63 4.457 2.696 4.457 2.696.523-.42 5.506-2.218 4.538-3.21-4.431-4.54-9.526-.476-8.995.514zm-2.3-7.319c-.883-1.36-1.89-2.157-2.889-2.602-.153.307-.913 3.084-1.66 2.98-.747-.102-.24-3.436-.238-3.455-1.896-.141-3.402.64-3.402.64 3.38 7.06 8.19 2.437 8.19 2.437zM33.648 48.6c-1.889-4.155-5.755-6.278-8.547-6.026-4.241.392-6.832 5.853-6.736 6.087.072.177.53.368.709.298.054-.023 2.82-5.034 6.603-5.382 2.488-.24 5.276 2.234 7.33 5.443.102.162.72-.248.64-.42zm8.862-18.534s-1.348-.81-3.075-1.154c-.069 1.155-.32 3.704-1.225 3.733-1.007.034-1.235-2.959-1.278-3.792-1.357.25-2.681 1.046-3.605 2.882 0 0 4.504 5.52 9.183-1.67zm-17.835 9.377s-.292-1.337-1.75-.638c0 0 1.125.822 1.75.638zm4.264-.638c-1.459-.7-1.751.638-1.751.638.625.184 1.75-.638 1.75-.638z" fill="#fff"/></svg>