<svg width="32" height="40" fill="none" xmlns="http://www.w3.org/2000/svg"><path d="M14.6 34.7 7 26.4c-.7-.8-1.3-1.6-1.8-2.5-1.8-3.5-1.7-7.7.3-11.1 1.8-3.3 5.2-5.4 9-5.7h1.8c3.8.2 7.1 2.4 8.9 5.7 2 3.4 2.1 7.6.3 11.1-.5.9-1.1 1.7-1.8 2.5l-7.6 8.3-.1.1c-.4.4-1 .3-1.4-.1z" fill="#fff"/><path d="M15.8 11.5c-.1-.1-.2-.2-.4-.2s-.3.1-.4.2L8 23.6c-.1.1-.1.3 0 .5.1.1.2.2.4.2h13.9c.3 0 .5-.2.5-.5 0-.1 0-.2-.1-.3l-6.9-12zm.4 5.4-.2 3.5h-.8l-.2-3.5h1.2zm-.6 4.9c-.4 0-.7-.2-.7-.5s.3-.5.7-.5c.4 0 .7.2.7.5s-.3.5-.7.5z" fill="#0B0F13"/></svg>