<svg width="57" height="57" fill="none" xmlns="http://www.w3.org/2000/svg"><path fill-rule="evenodd" clip-rule="evenodd" d="M49.334 45.303c3.13-4.4 7.666-10.7 7.666-17.597C57 14.093 50.163 0 28.874 0 7.588 0 .639 14.09.639 27.706c0 6.872 4.91 13.158 7.715 17.552 1.09 1.69 1.592 6.607 1.592 6.998 0 .29.042.569.102.847.318 2.206 2.227 3.272 4.578 3.353 0 0 1.75.032 2.015 0 2.672-.307 4.744-1.45 5.022-3.702.226 2.227 2.358 3.703 7.154 3.703 4.797 0 6.858-1.398 7.14-3.558.378 2.237 2.552 3.342 5.28 3.557.188.015 2.03 0 2.03 0 2.485-.19 4.45-1.545 4.45-3.998l-.038-.014c.003-.078.024-.152.024-.226.004-.43.523-5.35 1.631-6.915zM18.173 31.765a7.06 7.06 0 1 1-.453-14.112 7.06 7.06 0 0 1 .456 14.112h-.003zM28.8 45.345c-2.908 0-5.27 1.55-5.27-.627 0-2.175 2.362-6.675 5.27-6.675 2.919 0 5.273 4.497 5.273 6.675 0 2.18-2.354.628-5.273.628zm10.55-13.58a7.057 7.057 0 0 1-4.99-12.052 7.06 7.06 0 1 1 4.993 12.052h-.004z" fill="#fff"/></svg>