<svg width="135" height="135" fill="none" xmlns="http://www.w3.org/2000/svg"><path d="M135 67.5A67.502 67.502 0 0 0 60.758.338a67.5 67.5 0 0 0-34.483 13.714L67.5 67.5H135z" fill="#4593A5"/><path d="M135 67.5a67.498 67.498 0 0 1-81.715 65.986A67.5 67.5 0 0 1 70.35.06L67.5 67.5H135z" fill="#1D2430"/><path d="M81.217 49c0-.787.087-1.487.26-2.1a4.268 4.268 0 0 1 .96-1.66c.453-.493 1.093-.973 1.92-1.44.733-.387 1.347-.713 1.84-.98.493-.267.867-.52 1.12-.76.267-.253.4-.547.4-.88 0-.4-.16-.74-.48-1.02-.32-.293-.773-.44-1.36-.44-.64 0-1.193.153-1.66.46-.453.307-.847.66-1.18 1.06l-1.7-1.96c.24-.253.6-.527 1.08-.82a7.936 7.936 0 0 1 1.72-.76 7.19 7.19 0 0 1 2.2-.32c1.36 0 2.413.32 3.16.96.76.627 1.14 1.44 1.14 2.44 0 .627-.147 1.16-.44 1.6-.28.427-.633.793-1.06 1.1-.413.293-.813.553-1.2.78-.853.427-1.527.8-2.02 1.12-.48.32-.867.72-1.16 1.2h6.1V49h-9.64zm15.77 2.98c-1.028 0-1.954-.22-2.78-.66-.828-.44-1.454-1.04-1.88-1.8l1.54-1.6c.372.52.84.933 1.4 1.24.56.307 1.14.46 1.74.46.72 0 1.306-.22 1.76-.66.466-.44.7-1.013.7-1.72 0-.693-.22-1.253-.66-1.68-.44-.427-.988-.64-1.64-.64-.44 0-.854.1-1.24.3a2.22 2.22 0 0 0-.9.82h-2.34l1.64-8.46h6.999v2.44h-5.06l-.58 3.18c.16-.16.393-.293.7-.4.32-.12.707-.18 1.16-.18.893 0 1.687.193 2.38.58.707.387 1.26.927 1.66 1.62.413.68.62 1.467.62 2.36 0 .96-.227 1.8-.68 2.52a4.625 4.625 0 0 1-1.86 1.68c-.787.4-1.68.6-2.68.6zm9.833-11.32a3.553 3.553 0 0 1-1.68-.4 3.354 3.354 0 0 1-1.18-1.1 2.84 2.84 0 0 1-.44-1.54c0-.56.147-1.067.44-1.52a3.186 3.186 0 0 1 1.18-1.08 3.417 3.417 0 0 1 1.68-.42 3.3 3.3 0 0 1 1.66.42c.507.267.907.627 1.2 1.08.294.453.44.96.44 1.52s-.146 1.073-.44 1.54c-.293.453-.693.82-1.2 1.1-.493.267-1.046.4-1.66.4zm-2.16 7.4 5.62-6.58 5.2-6.84 1.22 1.08-5.48 6.48-5.36 6.94-1.2-1.08zm2.16-8.74c.387 0 .72-.167 1-.5.28-.347.42-.747.42-1.2 0-.453-.14-.847-.42-1.18-.28-.333-.613-.5-1-.5-.386 0-.72.167-1 .5-.28.333-.42.727-.42 1.18 0 .467.14.867.42 1.2.28.333.614.5 1 .5zm7.72 9.88a3.437 3.437 0 0 1-1.66-.4 3.533 3.533 0 0 1-1.2-1.1 2.74 2.74 0 0 1-.44-1.52c0-.56.147-1.067.44-1.52a3.285 3.285 0 0 1 1.2-1.1 3.306 3.306 0 0 1 1.66-.42 3.3 3.3 0 0 1 1.66.42 3.08 3.08 0 0 1 1.2 1.1c.294.453.44.96.44 1.52s-.146 1.067-.44 1.52c-.293.453-.693.82-1.2 1.1-.493.267-1.046.4-1.66.4zm0-1.34c.4 0 .734-.167 1-.5.28-.333.42-.727.42-1.18 0-.467-.14-.867-.42-1.2-.28-.333-.613-.5-1-.5-.386 0-.72.173-1 .52-.28.333-.42.727-.42 1.18 0 .453.14.847.42 1.18.28.333.614.5 1 .5zM76.783 95.936h-7.752v-2.928h12.816l-8.448 17.04h-3.648l7.032-14.112zm10.99 14.64c-1.233 0-2.345-.264-3.337-.792s-1.744-1.248-2.256-2.16l1.848-1.92a5 5 0 0 0 1.68 1.488 4.292 4.292 0 0 0 2.088.552c.864 0 1.568-.264 2.112-.792.56-.528.84-1.216.84-2.064 0-.832-.264-1.504-.792-2.016s-1.184-.768-1.968-.768c-.528 0-1.024.12-1.488.36a2.664 2.664 0 0 0-1.08.984h-2.808l1.968-10.152h8.4v2.928h-6.072l-.696 3.816c.192-.192.472-.352.84-.48.384-.144.848-.216 1.392-.216 1.072 0 2.024.232 2.856.696a5.06 5.06 0 0 1 1.992 1.944c.496.816.744 1.76.744 2.832 0 1.152-.272 2.16-.816 3.024a5.555 5.555 0 0 1-2.232 2.016c-.944.48-2.016.72-3.216.72zm11.8-13.584c-.736 0-1.408-.16-2.016-.48a4.014 4.014 0 0 1-1.416-1.32 3.404 3.404 0 0 1-.528-1.848c0-.672.176-1.28.528-1.824a3.814 3.814 0 0 1 1.416-1.296 4.098 4.098 0 0 1 2.016-.504c.736 0 1.4.168 1.992.504.608.32 1.088.752 1.44 1.296.352.544.528 1.152.528 1.824 0 .672-.176 1.288-.528 1.848a3.958 3.958 0 0 1-1.44 1.32c-.592.32-1.256.48-1.992.48zm-2.592 8.88 6.744-7.896 6.24-8.208 1.464 1.296-6.576 7.776-6.432 8.328-1.44-1.296zm2.592-10.488c.464 0 .864-.2 1.2-.6.336-.416.504-.896.504-1.44 0-.544-.168-1.016-.504-1.416-.336-.4-.736-.6-1.2-.6-.464 0-.864.2-1.2.6-.336.4-.504.872-.504 1.416 0 .56.168 1.04.504 1.44.336.4.736.6 1.2.6zm9.264 11.856c-.736 0-1.4-.16-1.992-.48a4.231 4.231 0 0 1-1.44-1.32 3.286 3.286 0 0 1-.528-1.824c0-.672.176-1.28.528-1.824.368-.56.848-1 1.44-1.32.592-.336 1.256-.504 1.992-.504s1.4.168 1.992.504a3.7 3.7 0 0 1 1.44 1.32c.352.544.528 1.152.528 1.824 0 .672-.176 1.28-.528 1.824a3.958 3.958 0 0 1-1.44 1.32c-.592.32-1.256.48-1.992.48zm0-1.608c.48 0 .88-.2 1.2-.6.336-.4.504-.872.504-1.416 0-.56-.168-1.04-.504-1.44-.336-.4-.736-.6-1.2-.6-.464 0-.864.208-1.2.624-.336.4-.504.872-.504 1.416 0 .544.168 1.016.504 1.416.336.4.736.6 1.2.6z" fill="#fff"/></svg>