<svg width="135" height="135" fill="none" xmlns="http://www.w3.org/2000/svg"><circle cx="67.5" cy="67.5" r="67.5" fill="#1D2430"/><path d="M132.643 49.818a67.501 67.501 0 0 1-3.88 46.02L67.5 67.5l65.143-17.682z" fill="#4593A5"/><path d="M90.656 46.58V49h-8.12v-2.42h2.84v-6.06c-.16.2-.434.413-.82.64a6.64 6.64 0 0 1-1.24.58c-.44.16-.834.24-1.18.24v-2.5c.24 0 .526-.073.86-.22.347-.16.687-.347 1.02-.56.346-.213.64-.42.88-.62.253-.213.413-.38.48-.5h2.74v9h2.54zm9.883 0V49h-8.12v-2.42h2.84v-6.06c-.16.2-.434.413-.82.64a6.64 6.64 0 0 1-1.24.58c-.44.16-.834.24-1.18.24v-2.5c.24 0 .526-.073.86-.22.346-.16.686-.347 1.02-.56.346-.213.64-.42.88-.62.253-.213.413-.38.48-.5h2.74v9h2.54zm4.482-5.92a3.553 3.553 0 0 1-1.68-.4 3.354 3.354 0 0 1-1.18-1.1 2.84 2.84 0 0 1-.44-1.54c0-.56.147-1.067.44-1.52a3.186 3.186 0 0 1 1.18-1.08 3.417 3.417 0 0 1 1.68-.42 3.3 3.3 0 0 1 1.66.42c.507.267.907.627 1.2 1.08.294.453.44.96.44 1.52s-.146 1.073-.44 1.54c-.293.453-.693.82-1.2 1.1-.493.267-1.046.4-1.66.4zm-2.16 7.4 5.62-6.58 5.2-6.84 1.22 1.08-5.48 6.48-5.36 6.94-1.2-1.08zm2.16-8.74c.387 0 .72-.167 1-.5.28-.347.42-.747.42-1.2 0-.453-.14-.847-.42-1.18-.28-.333-.613-.5-1-.5-.386 0-.72.167-1 .5-.28.333-.42.727-.42 1.18 0 .467.14.867.42 1.2.28.333.614.5 1 .5zm7.72 9.88a3.437 3.437 0 0 1-1.66-.4 3.533 3.533 0 0 1-1.2-1.1 2.74 2.74 0 0 1-.44-1.52c0-.56.147-1.067.44-1.52a3.285 3.285 0 0 1 1.2-1.1 3.306 3.306 0 0 1 1.66-.42 3.3 3.3 0 0 1 1.66.42 3.08 3.08 0 0 1 1.2 1.1c.294.453.44.96.44 1.52s-.146 1.067-.44 1.52c-.293.453-.693.82-1.2 1.1-.493.267-1.046.4-1.66.4zm0-1.34c.4 0 .734-.167 1-.5.28-.333.42-.727.42-1.18 0-.467-.14-.867-.42-1.2-.28-.333-.613-.5-1-.5-.386 0-.72.173-1 .52-.28.333-.42.727-.42 1.18 0 .453.14.847.42 1.18.28.333.614.5 1 .5zM80.698 101.96c0 1.056-.288 1.984-.864 2.784-.56.784-1.312 1.392-2.256 1.824-.944.432-1.976.648-3.096.648-1.136 0-2.176-.224-3.12-.672-.928-.464-1.672-1.096-2.232-1.896-.544-.816-.816-1.752-.816-2.808 0-.64.136-1.216.408-1.728a4.777 4.777 0 0 1 1.008-1.344 6.676 6.676 0 0 1 1.248-.888 4.028 4.028 0 0 1-1.512-1.296 3.168 3.168 0 0 1-.624-1.896c0-.768.168-1.44.504-2.016a4.6 4.6 0 0 1 1.344-1.488c.56-.4 1.168-.704 1.824-.912a6.71 6.71 0 0 1 1.992-.312c.64 0 1.296.104 1.968.312a5.982 5.982 0 0 1 1.848.888 4.6 4.6 0 0 1 1.344 1.488c.352.576.528 1.248.528 2.016 0 .688-.216 1.328-.648 1.92-.432.592-.952 1.024-1.56 1.296.704.352 1.328.88 1.872 1.584.56.688.84 1.52.84 2.496zm-8.592-7.176c0 .432.12.8.36 1.104.24.304.544.536.912.696.368.144.744.216 1.128.216a3.01 3.01 0 0 0 1.104-.216 2.32 2.32 0 0 0 .912-.696c.256-.304.384-.68.384-1.128 0-.592-.24-1.064-.72-1.416-.48-.352-1.048-.528-1.704-.528-.64 0-1.2.184-1.68.552-.464.352-.696.824-.696 1.416zm5.328 6.984c0-.544-.144-1-.432-1.368a2.67 2.67 0 0 0-1.104-.864 3.323 3.323 0 0 0-1.416-.312c-.512 0-.992.104-1.44.312a2.714 2.714 0 0 0-1.056.888 2.265 2.265 0 0 0-.408 1.344c0 .512.144.96.432 1.344.288.368.656.664 1.104.888a3.27 3.27 0 0 0 1.392.312 3.03 3.03 0 0 0 1.416-.336c.448-.224.808-.52 1.08-.888.288-.384.432-.824.432-1.32zm5.076-2.544c0-1.104.272-2.104.816-3a5.966 5.966 0 0 1 2.232-2.136c.944-.528 2-.792 3.168-.792 1.296 0 2.408.312 3.336.936.944.624 1.672 1.52 2.184 2.688.512 1.168.768 2.568.768 4.2 0 3.104-.6 5.472-1.8 7.104-1.184 1.648-2.784 2.472-4.8 2.472a6.468 6.468 0 0 1-2.976-.696 6.39 6.39 0 0 1-2.304-1.992l1.848-2.016c.384.592.88 1.056 1.488 1.392a3.992 3.992 0 0 0 1.992.528c1.072 0 1.928-.424 2.568-1.272.64-.864.968-2.064.984-3.6-.32.576-.8 1.032-1.44 1.368-.624.336-1.336.504-2.136.504-1.12 0-2.128-.248-3.024-.744a5.942 5.942 0 0 1-2.136-2.04c-.512-.864-.768-1.832-.768-2.904zm6.216-3.216c-.576 0-1.104.152-1.584.456-.464.288-.84.68-1.128 1.176a3.021 3.021 0 0 0-.432 1.584c0 .576.136 1.104.408 1.584.288.464.672.84 1.152 1.128.48.272 1.008.408 1.584.408.576 0 1.096-.136 1.56-.408a3.38 3.38 0 0 0 1.152-1.128c.288-.48.432-1.008.432-1.584 0-.576-.144-1.104-.432-1.584a3.248 3.248 0 0 0-1.152-1.176c-.48-.304-1-.456-1.56-.456zm11.949.984c-.736 0-1.408-.16-2.016-.48a4.014 4.014 0 0 1-1.416-1.32 3.404 3.404 0 0 1-.528-1.848c0-.672.176-1.28.528-1.824a3.814 3.814 0 0 1 1.416-1.296 4.098 4.098 0 0 1 2.016-.504c.736 0 1.4.168 1.992.504.608.32 1.088.752 1.44 1.296.352.544.528 1.152.528 1.824 0 .672-.176 1.288-.528 1.848a3.958 3.958 0 0 1-1.44 1.32c-.592.32-1.256.48-1.992.48zm-2.592 8.88 6.744-7.896 6.24-8.208 1.464 1.296-6.576 7.776-6.432 8.328-1.44-1.296zm2.592-10.488c.464 0 .864-.2 1.2-.6.336-.416.504-.896.504-1.44 0-.544-.168-1.016-.504-1.416-.336-.4-.736-.6-1.2-.6-.464 0-.864.2-1.2.6-.336.4-.504.872-.504 1.416 0 .56.168 1.04.504 1.44.336.4.736.6 1.2.6zm9.264 11.856c-.736 0-1.4-.16-1.992-.48a4.231 4.231 0 0 1-1.44-1.32 3.286 3.286 0 0 1-.528-1.824c0-.672.176-1.28.528-1.824.368-.56.848-1 1.44-1.32.592-.336 1.256-.504 1.992-.504s1.4.168 1.992.504a3.7 3.7 0 0 1 1.44 1.32c.352.544.528 1.152.528 1.824 0 .672-.176 1.28-.528 1.824a3.958 3.958 0 0 1-1.44 1.32c-.592.32-1.256.48-1.992.48zm0-1.608c.48 0 .88-.2 1.2-.6.336-.4.504-.872.504-1.416 0-.56-.168-1.04-.504-1.44-.336-.4-.736-.6-1.2-.6-.464 0-.864.208-1.2.624-.336.4-.504.872-.504 1.416 0 .544.168 1.016.504 1.416.336.4.736.6 1.2.6z" fill="#fff"/></svg>