<?xml version="1.0" encoding="utf-8"?>
<!-- Generator: Adobe Illustrator 24.0.1, SVG Export Plug-In . SVG Version: 6.00 Build 0)  -->
<svg version="1.1" id="Capa_1" xmlns="http://www.w3.org/2000/svg" xmlns:xlink="http://www.w3.org/1999/xlink" x="0px" y="0px"
	 viewBox="0 0 512 512" style="enable-background:new 0 0 512 512;" xml:space="preserve">
<style type="text/css">
	.st0{fill:url(#SVGID_1_);}
</style>
<g>
	<g>
		
			<linearGradient id="SVGID_1_" gradientUnits="userSpaceOnUse" x1="255.95" y1="31.0499" x2="255.95" y2="485.0561" gradientTransform="matrix(1 0 0 -1 0 514)">
			<stop  offset="0.18" style="stop-color:#2C4D47"/>
			<stop  offset="0.71" style="stop-color:#549388"/>
			<stop  offset="1" style="stop-color:#71C7B9"/>
		</linearGradient>
		<path class="st0" d="M510.4,160.7C421.8,47,425.6,49.9,420.8,49.4L282.1,30.7c-35-4.7-58.7,1.4-70.9,2.5c-4.1,0.5-6.9,4.3-6.4,8.4
			s4.3,6.9,8.4,6.4c12.3-1.1,34.4-6.9,66.9-2.5l95.3,12.8c-7.1,1.5-112.3,22.9-119.4,24.3L136.6,58.3l41.3-5.6
			c4.1-0.5,6.9-4.3,6.4-8.4s-4.3-6.9-8.4-6.4L91.2,49.4l0,0h-0.1c-0.1,0-0.2,0-0.3,0.1c-0.1,0-0.1,0-0.2,0s-0.1,0-0.2,0
			s-0.2,0-0.3,0.1c-0.1,0-0.3,0.1-0.4,0.1s-0.1,0-0.2,0.1c0,0,0,0-0.1,0s-0.2,0.1-0.2,0.1C89,50,88.9,50,88.8,50.1
			c-0.1,0-0.1,0.1-0.2,0.1s-0.1,0.1-0.2,0.1s-0.1,0.1-0.2,0.1c-3.2,1.9-1.7,2-86.7,110.3c-1.8,2.3-2.1,5.4-0.8,7.9
			c3,5.9-5-5.8,159.2,212.1c2.5,3.3,7.1,3.9,10.4,1.5c3.3-2.5,3.9-7.1,1.5-10.4L27.7,180.6l116.5,36.7
			c2.8,7.4,88.1,232.4,89.7,236.6l-41.1-54.4c-2.5-3.3-7.1-3.9-10.4-1.5c-3.3,2.5-3.9,7.1-1.5,10.4c43,57,47.4,62.9,47.7,63.2
			c5.4,6.1,12.9,10,20.1,11.2c1.1,0.2,13.5,0.2,14.6,0c9.1-1.8,16.7-6.9,20.3-11.6l145.2-192.4c2.5-3.3,1.8-7.9-1.5-10.4
			s-7.9-1.8-10.4,1.5L278.1,454c4.4-11.7,86.5-228,89.7-236.6l116.5-36.7l-46.4,61.5c-2.5,3.3-1.8,7.9,1.5,10.4s7.9,1.8,10.4-1.5
			c62.3-82.7,58.9-77.6,61.4-82.5C512.5,166,512.2,162.9,510.4,160.7z M256,101.5l89.7,102.4H166.3L256,101.5z M19.1,162.3
			l70.6-90.5l47.8,127.8L19.1,162.3z M103.7,66.8C118.4,69.8,224,91.3,242,95l-89.5,102.1L103.7,66.8z M256.8,468.1h-1.6
			l-94.6-249.4h190.8L256.8,468.1z M359.5,197.1L270,94.9c11.9-2.4,120-24.4,138.3-28.2L359.5,197.1z M374.5,199.6l47.8-127.8
			l70.6,90.5L374.5,199.6z"/>
	</g>
</g>
</svg>
