<svg width="33" height="33" viewBox="0 0 33 33" fill="none" xmlns="http://www.w3.org/2000/svg">
<circle cx="16.5" cy="16.5" r="16" fill="#D97575" stroke="white"/>
<path d="M15.1702 19.2041C15.21 18.3847 15.3413 17.737 15.5639 17.261C15.7865 16.7849 16.1726 16.3256 16.7221 15.883C17.2777 15.4349 17.6505 15.0688 17.8403 14.7847C18.0304 14.4947 18.1334 14.1859 18.1493 13.8582C18.1975 12.8691 17.765 12.3524 16.8521 12.3079C16.419 12.2869 16.0642 12.4045 15.7877 12.6609C15.5174 12.9118 15.365 13.271 15.3305 13.7386L12.7847 13.6147C12.8508 12.4975 13.2533 11.6401 13.9922 11.0424C14.737 10.4451 15.7239 10.1764 16.9529 10.2362C18.1936 10.2965 19.1417 10.6448 19.7971 11.2809C20.4527 11.9112 20.754 12.7735 20.7007 13.8679C20.6765 14.3654 20.5424 14.8311 20.2983 15.2651C20.0546 15.6932 19.6416 16.1629 19.0594 16.6743L18.3155 17.3157C17.8499 17.7212 17.571 18.2092 17.4787 18.7796L17.4175 19.3134L15.1702 19.2041ZM14.7844 21.8867C14.8035 21.4946 14.9509 21.1791 15.2265 20.9403C15.5082 20.6959 15.8568 20.5838 16.2724 20.604C16.6879 20.6242 17.0211 20.7695 17.2719 21.0398C17.5289 21.3046 17.6478 21.633 17.6287 22.0251C17.6099 22.4114 17.4627 22.724 17.1871 22.9628C16.9174 23.2019 16.5689 23.3111 16.1417 23.2903C15.7144 23.2695 15.3753 23.1269 15.1241 22.8624C14.8789 22.5982 14.7656 22.273 14.7844 21.8867Z" fill="white"/>
</svg>
