<svg width="440" height="41" viewBox="0 0 440 41" fill="none" xmlns="http://www.w3.org/2000/svg">
<rect y="30" width="24" height="10" fill="#1D9B2A"/>
<rect x="130" y="29" width="24" height="10" fill="#1D9B2A"/>
<rect x="26" y="24" width="24" height="16" fill="#1D9B2A"/>
<rect x="156" y="23" width="24" height="16" fill="#1D9B2A"/>
<rect x="260" y="23" width="24" height="16" fill="#1D9B2A"/>
<rect x="52" width="24" height="40" fill="#1D9B2A"/>
<rect x="182" y="13" width="24" height="26" fill="#1D9B2A"/>
<rect x="286" y="13" width="24" height="26" fill="#1D9B2A"/>
<rect x="364" y="29" width="24" height="10" fill="#1D9B2A"/>
<rect x="78" y="6" width="24" height="34" fill="#1D9B2A"/>
<rect x="208" y="5" width="24" height="34" fill="#1D9B2A"/>
<rect x="312" y="19" width="24" height="20" fill="#1D9B2A"/>
<rect x="390" y="29" width="24" height="10" fill="#1D9B2A"/>
<rect x="104" width="24" height="40" fill="#1D9B2A"/>
<rect x="234" y="23" width="24" height="16" fill="#1D9B2A"/>
<rect x="338" y="23" width="24" height="16" fill="#1D9B2A"/>
<rect x="416" y="13" width="24" height="26" fill="#1D9B2A"/>
<path d="M0 40H439" stroke="white" stroke-opacity="0.5" stroke-width="2"/>
</svg>
