<svg width="244" height="244" fill="none" xmlns="http://www.w3.org/2000/svg"><path d="M45.934 167.512A88.499 88.499 0 0 1 183.915 58.757a88.502 88.502 0 0 1-45.916 149.786 88.5 88.5 0 0 1-61.76-10.961l27.691-46.416a34.449 34.449 0 0 0 44.874-8.472 34.454 34.454 0 0 0-25.261-55.51 34.451 34.451 0 0 0-31.41 52.276l-46.2 28.052z" fill="#C4C4C4"/><path d="M211.54 131.617a90.5 90.5 0 1 1-29.206-76.12L143.863 97.87a33.267 33.267 0 0 0-54.124 14.729 33.27 33.27 0 1 0 64.861 13.253l56.94 5.765z" fill="#243225"/><path d="M102.266 64.8c0 .88-.24 1.653-.72 2.32-.466.653-1.093 1.16-1.88 1.52-.786.36-1.646.54-2.58.54-.946 0-1.813-.187-2.6-.56a4.896 4.896 0 0 1-1.86-1.58c-.453-.68-.68-1.46-.68-2.34 0-.533.114-1.013.34-1.44.227-.44.507-.813.84-1.12a5.563 5.563 0 0 1 1.04-.74c-.493-.24-.913-.6-1.26-1.08a2.64 2.64 0 0 1-.52-1.58c0-.64.14-1.2.42-1.68.28-.493.654-.907 1.12-1.24a5.415 5.415 0 0 1 1.52-.76 5.593 5.593 0 0 1 1.66-.26c.534 0 1.08.087 1.64.26a4.98 4.98 0 0 1 1.54.74c.467.333.84.747 1.12 1.24.294.48.44 1.04.44 1.68a2.66 2.66 0 0 1-.54 1.6c-.36.493-.793.853-1.3 1.08.587.293 1.107.733 1.56 1.32.467.573.7 1.267.7 2.08zm-7.16-5.98c0 .36.1.667.3.92.2.253.454.447.76.58.307.12.62.18.94.18.307 0 .614-.06.92-.18.307-.133.56-.327.76-.58.214-.253.32-.567.32-.94 0-.493-.2-.887-.6-1.18-.4-.293-.873-.44-1.42-.44-.533 0-1 .153-1.4.46-.386.293-.58.687-.58 1.18zm4.44 5.82c0-.453-.12-.833-.36-1.14-.24-.32-.546-.56-.92-.72a2.77 2.77 0 0 0-1.18-.26c-.426 0-.826.087-1.2.26-.36.173-.653.42-.88.74-.226.32-.34.693-.34 1.12 0 .427.12.8.36 1.12.24.307.547.553.92.74.374.173.76.26 1.16.26.427 0 .82-.093 1.18-.28a2.47 2.47 0 0 0 .9-.74c.24-.32.36-.687.36-1.1zm8.831 7.34c-1.027 0-1.954-.22-2.78-.66-.827-.44-1.454-1.04-1.88-1.8l1.54-1.6c.373.52.84.933 1.4 1.24.56.307 1.14.46 1.74.46.72 0 1.306-.22 1.76-.66.466-.44.7-1.013.7-1.72 0-.693-.22-1.253-.66-1.68-.44-.427-.987-.64-1.64-.64-.44 0-.854.1-1.24.3-.374.187-.674.46-.9.82h-2.34l1.64-8.46h7v2.44h-5.06l-.58 3.18c.16-.16.393-.293.7-.4.32-.12.706-.18 1.16-.18.893 0 1.686.193 2.38.58.706.387 1.26.927 1.66 1.62.413.68.62 1.467.62 2.36 0 .96-.227 1.8-.68 2.52a4.638 4.638 0 0 1-1.86 1.68c-.787.4-1.68.6-2.68.6zm9.834-11.32a3.553 3.553 0 0 1-1.68-.4 3.345 3.345 0 0 1-1.18-1.1 2.84 2.84 0 0 1-.44-1.54c0-.56.147-1.067.44-1.52a3.179 3.179 0 0 1 1.18-1.08 3.417 3.417 0 0 1 1.68-.42c.613 0 1.167.14 1.66.42.507.267.907.627 1.2 1.08.293.453.44.96.44 1.52a2.84 2.84 0 0 1-.44 1.54c-.293.453-.693.82-1.2 1.1-.493.267-1.047.4-1.66.4zm-2.16 7.4 5.62-6.58 5.2-6.84 1.22 1.08-5.48 6.48-5.36 6.94-1.2-1.08zm2.16-8.74c.387 0 .72-.167 1-.5.28-.347.42-.747.42-1.2 0-.453-.14-.847-.42-1.18-.28-.333-.613-.5-1-.5s-.72.167-1 .5c-.28.333-.42.727-.42 1.18 0 .467.14.867.42 1.2.28.333.613.5 1 .5zm7.72 9.88a3.434 3.434 0 0 1-1.66-.4 3.533 3.533 0 0 1-1.2-1.1 2.74 2.74 0 0 1-.44-1.52c0-.56.147-1.067.44-1.52a3.285 3.285 0 0 1 1.2-1.1 3.303 3.303 0 0 1 1.66-.42c.613 0 1.167.14 1.66.42a3.08 3.08 0 0 1 1.2 1.1c.293.453.44.96.44 1.52a2.74 2.74 0 0 1-.44 1.52c-.293.453-.693.82-1.2 1.1-.493.267-1.047.4-1.66.4zm0-1.34c.4 0 .733-.167 1-.5.28-.333.42-.727.42-1.18 0-.467-.14-.867-.42-1.2-.28-.333-.613-.5-1-.5s-.72.173-1 .52c-.28.333-.42.727-.42 1.18 0 .453.14.847.42 1.18.28.333.613.5 1 .5zM175.848 104.064V106h-6.496v-1.936h2.272v-4.848c-.128.16-.347.33-.656.512a5.314 5.314 0 0 1-.992.464 2.804 2.804 0 0 1-.944.192v-2c.192 0 .421-.059.688-.176.277-.128.549-.277.816-.448a6.13 6.13 0 0 0 .704-.496c.203-.17.331-.304.384-.4h2.192v7.2h2.032zm4.578 4.32c-.821 0-1.562-.176-2.224-.528-.661-.352-1.162-.832-1.504-1.44l1.232-1.28c.299.416.672.747 1.12.992.448.245.912.368 1.392.368.576 0 1.046-.176 1.408-.528.374-.352.56-.811.56-1.376 0-.555-.176-1.003-.528-1.344-.352-.341-.789-.512-1.312-.512-.352 0-.682.08-.992.24a1.782 1.782 0 0 0-.72.656h-1.872l1.312-6.768h5.6v1.952h-4.048l-.464 2.544c.128-.128.315-.235.56-.32.256-.096.566-.144.928-.144.715 0 1.35.155 1.904.464a3.365 3.365 0 0 1 1.328 1.296c.331.544.496 1.173.496 1.888 0 .768-.181 1.44-.544 2.016a3.695 3.695 0 0 1-1.488 1.344c-.629.32-1.344.48-2.144.48zm7.868-9.056a2.84 2.84 0 0 1-1.344-.32 2.667 2.667 0 0 1-.944-.88 2.266 2.266 0 0 1-.352-1.232c0-.448.117-.853.352-1.216.234-.363.549-.65.944-.864a2.73 2.73 0 0 1 1.344-.336c.49 0 .933.112 1.328.336.405.213.725.501.96.864.234.363.352.768.352 1.216 0 .448-.118.859-.352 1.232a2.644 2.644 0 0 1-.96.88 2.75 2.75 0 0 1-1.328.32zm-1.728 5.92 4.496-5.264 4.16-5.472.976.864-4.384 5.184-4.288 5.552-.96-.864zm1.728-6.992c.309 0 .576-.133.8-.4.224-.277.336-.597.336-.96s-.112-.677-.336-.944c-.224-.267-.491-.4-.8-.4-.31 0-.576.133-.8.4a1.421 1.421 0 0 0-.336.944c0 .373.112.693.336.96.224.267.49.4.8.4zm6.176 7.904c-.491 0-.934-.107-1.328-.32a2.812 2.812 0 0 1-.96-.88 2.189 2.189 0 0 1-.352-1.216c0-.448.117-.853.352-1.216.245-.373.565-.667.96-.88a2.64 2.64 0 0 1 1.328-.336c.49 0 .933.112 1.328.336.405.213.725.507.96.88.234.363.352.768.352 1.216 0 .448-.118.853-.352 1.216a2.641 2.641 0 0 1-.96.88c-.395.213-.838.32-1.328.32zm0-1.072c.32 0 .586-.133.8-.4.224-.267.336-.581.336-.944 0-.373-.112-.693-.336-.96-.224-.267-.491-.4-.8-.4-.31 0-.576.139-.8.416a1.421 1.421 0 0 0-.336.944c0 .363.112.677.336.944.224.267.49.4.8.4z" fill="#fff"/></svg>