<svg width="261" height="261" fill="none" xmlns="http://www.w3.org/2000/svg"><path d="M155.884 33.553A100 100 0 1 1 54.63 195.692l75.567-65.495 25.687-96.644z" fill="#919090"/><path d="M220.767 172.591a100.003 100.003 0 0 1-110.725 55.554 100.01 100.01 0 0 1-40.225-18.235l60.381-79.713 90.569 42.394z" fill="#1D9B2A"/><mask id="a" fill="#fff"><path d="M67.15 214.161a105 105 0 1 1 162.388-117.97l-99.34 34.006-63.049 83.964z"/></mask><path d="M67.15 214.161a105 105 0 1 1 162.388-117.97l-99.34 34.006-63.049 83.964z" fill="#E2B71F" stroke="#000" stroke-opacity=".23" stroke-width="2" mask="url(#a)"/><path d="m73.14 92.408 1.148-10.117h11.156v3.295h-7.916l-.492 4.28a6.264 6.264 0 0 1 2.994-.753c1.896 0 3.381.588 4.457 1.764 1.075 1.176 1.613 2.82 1.613 4.936 0 1.285-.273 2.438-.82 3.459a5.753 5.753 0 0 1-2.324 2.365c-1.012.556-2.206.834-3.582.834a7.79 7.79 0 0 1-3.35-.725c-1.03-.492-1.846-1.18-2.447-2.064-.593-.885-.907-1.892-.944-3.022h3.91c.082.83.37 1.477.862 1.942.501.455 1.153.683 1.955.683.893 0 1.581-.319 2.064-.957.483-.647.725-1.559.725-2.734 0-1.13-.278-1.996-.834-2.598-.556-.602-1.344-.902-2.365-.902-.94 0-1.7.246-2.284.738l-.382.356-3.145-.78zm24.732 1.832c-1.03 1.012-2.234 1.518-3.61 1.518-1.759 0-3.167-.602-4.224-1.805-1.058-1.212-1.586-2.844-1.586-4.894 0-1.304.282-2.498.847-3.582.575-1.094 1.372-1.942 2.393-2.543 1.02-.611 2.17-.916 3.445-.916 1.313 0 2.48.328 3.5.984 1.021.656 1.814 1.6 2.379 2.83s.852 2.639.861 4.225v1.462c0 3.318-.824 5.925-2.474 7.82-1.65 1.897-3.988 2.908-7.014 3.036l-.97.014v-3.295l.874-.014c3.437-.155 5.296-1.768 5.579-4.84zm-2.64-1.504c.639 0 1.186-.164 1.642-.492a3.266 3.266 0 0 0 1.052-1.19v-1.626c0-1.34-.255-2.38-.765-3.117-.51-.739-1.194-1.108-2.051-1.108-.793 0-1.445.365-1.955 1.094-.51.72-.766 1.627-.766 2.72 0 1.085.246 1.978.738 2.68.502.693 1.204 1.04 2.106 1.04zm10.665 14.452-2.064-1.081.492-.888c.61-1.112.925-2.22.943-3.323v-3.062h3.336l-.014 2.734c-.009 1.012-.264 2.033-.765 3.063-.502 1.03-1.144 1.882-1.928 2.557zm6.234-14.78 1.149-10.117h11.156v3.295h-7.916l-.492 4.28a6.265 6.265 0 0 1 2.994-.753c1.896 0 3.381.588 4.457 1.764 1.076 1.176 1.613 2.82 1.613 4.936 0 1.285-.273 2.438-.82 3.459a5.758 5.758 0 0 1-2.324 2.365c-1.012.556-2.206.834-3.582.834a7.792 7.792 0 0 1-3.35-.725c-1.03-.492-1.846-1.18-2.447-2.064-.593-.885-.907-1.892-.944-3.022h3.911c.082.83.369 1.477.861 1.942.501.455 1.153.683 1.955.683.893 0 1.581-.319 2.065-.957.483-.647.724-1.559.724-2.734 0-1.13-.278-1.996-.834-2.598-.556-.602-1.344-.902-2.365-.902-.939 0-1.7.246-2.283.738l-.383.356-3.145-.78zm15.436-6.289c0-1.221.396-2.21 1.189-2.967.793-.765 1.832-1.148 3.118-1.148 1.303 0 2.351.378 3.144 1.135.793.747 1.19 1.763 1.19 3.049v.984c0 1.23-.397 2.22-1.19 2.967-.793.747-1.832 1.12-3.117 1.12-1.294 0-2.343-.373-3.145-1.12-.793-.757-1.189-1.773-1.189-3.05v-.97zm2.625 1.053c0 .547.155.989.465 1.326.319.328.733.492 1.244.492.51 0 .916-.168 1.217-.506.3-.337.451-.788.451-1.353v-1.012c0-.547-.151-.989-.451-1.326-.301-.337-.716-.506-1.244-.506-.502 0-.907.169-1.217.506-.31.328-.465.788-.465 1.38v.999zm6.891 10.144c0-1.23.401-2.219 1.203-2.966.802-.757 1.841-1.135 3.117-1.135 1.294 0 2.338.373 3.131 1.12.802.74 1.203 1.76 1.203 3.063v.985c0 1.221-.392 2.21-1.176 2.967-.784.747-1.827 1.121-3.131 1.121-1.312 0-2.365-.379-3.158-1.135-.793-.757-1.189-1.76-1.189-3.008v-1.012zm2.625 1.067c0 .501.164.93.492 1.285.328.355.738.533 1.23.533 1.112 0 1.668-.615 1.668-1.845v-1.04c0-.547-.155-.984-.465-1.312-.31-.337-.72-.506-1.23-.506-.511 0-.921.169-1.231.506-.31.328-.464.78-.464 1.353v1.026zm-7.028 2.324-1.928-1.039 9.721-15.559 1.928 1.04-9.721 15.558zM176.476 137H174.5v-7.615l-2.358.731v-1.606l4.122-1.477h.212V137zm10.062 0h-6.822v-1.354l3.22-3.431c.442-.483.767-.905.977-1.265.214-.36.321-.702.321-1.025 0-.442-.111-.789-.335-1.039-.223-.255-.542-.383-.957-.383-.446 0-.799.155-1.059.465-.255.305-.383.708-.383 1.21h-1.982c0-.606.143-1.16.43-1.661a3.053 3.053 0 0 1 1.231-1.176c.528-.287 1.128-.431 1.798-.431 1.025 0 1.82.246 2.385.738.57.493.855 1.188.855 2.085 0 .493-.128.994-.383 1.504-.255.511-.693 1.105-1.313 1.784l-2.262 2.386h4.279V137zm1.812 2.495-1.033-.54.246-.444c.306-.556.463-1.11.472-1.661v-1.532h1.668l-.007 1.368a3.541 3.541 0 0 1-.383 1.531 3.91 3.91 0 0 1-.963 1.278zm9.645-2.495h-6.822v-1.354l3.22-3.431c.442-.483.767-.905.977-1.265.214-.36.321-.702.321-1.025 0-.442-.111-.789-.335-1.039-.223-.255-.542-.383-.957-.383-.446 0-.799.155-1.059.465-.255.305-.383.708-.383 1.21h-1.982c0-.606.143-1.16.43-1.661a3.053 3.053 0 0 1 1.231-1.176c.528-.287 1.128-.431 1.798-.431 1.025 0 1.82.246 2.385.738.57.493.855 1.188.855 2.085 0 .493-.128.994-.383 1.504-.255.511-.693 1.105-1.312 1.784l-2.263 2.386h4.279V137zm1.19-8.039c0-.611.198-1.105.594-1.483.397-.383.916-.575 1.559-.575.652 0 1.176.189 1.572.568.397.373.595.882.595 1.524v.492c0 .616-.198 1.11-.595 1.484-.396.373-.916.56-1.558.56-.648 0-1.172-.187-1.573-.56-.396-.379-.594-.887-.594-1.525v-.485zm1.312.526c0 .274.078.495.232.663a.83.83 0 0 0 .623.246c.255 0 .458-.084.608-.252.15-.169.226-.395.226-.677v-.506c0-.273-.076-.495-.226-.663-.15-.169-.358-.253-.622-.253a.787.787 0 0 0-.609.253c-.154.164-.232.394-.232.69v.499zm3.445 5.073c0-.616.201-1.11.602-1.484.401-.378.921-.567 1.559-.567.647 0 1.168.187 1.565.56.401.369.602.88.602 1.532v.492c0 .61-.196 1.105-.588 1.483-.392.374-.914.561-1.566.561-.656 0-1.182-.189-1.579-.568-.396-.378-.595-.879-.595-1.504v-.505zm1.313.533c0 .25.082.465.246.642a.801.801 0 0 0 .615.267c.556 0 .834-.308.834-.923v-.519c0-.274-.077-.493-.232-.657a.798.798 0 0 0-.615-.253.798.798 0 0 0-.616.253c-.155.164-.232.39-.232.677v.513zm-3.514 1.162-.964-.52 4.861-7.779.964.52-4.861 7.779z" fill="#F2F2F2"/><path d="M121.911 190.197h-9.746v-1.933l4.599-4.903c.632-.69 1.097-1.292 1.397-1.806.306-.515.459-1.003.459-1.465 0-.632-.16-1.126-.479-1.485-.319-.364-.775-.546-1.367-.546-.638 0-1.143.221-1.514.664-.364.436-.547 1.012-.547 1.728h-2.832c0-.866.205-1.657.616-2.373a4.37 4.37 0 0 1 1.757-1.68c.756-.41 1.612-.615 2.569-.615 1.465 0 2.601.352 3.408 1.055.814.703 1.221 1.696 1.221 2.978 0 .704-.183 1.42-.547 2.149-.365.729-.99 1.579-1.875 2.549l-3.233 3.408h6.114v2.275zm11.006-10.439c0 .69-.173 1.302-.518 1.836a3.72 3.72 0 0 1-1.426 1.279c.69.332 1.237.791 1.641 1.377.403.579.605 1.263.605 2.051 0 1.263-.429 2.262-1.289 2.998-.859.729-2.028 1.094-3.506 1.094-1.478 0-2.649-.368-3.515-1.104-.866-.736-1.299-1.732-1.299-2.988 0-.788.202-1.475.605-2.061a4.059 4.059 0 0 1 1.631-1.367 3.727 3.727 0 0 1-1.426-1.279c-.338-.534-.507-1.146-.507-1.836 0-1.211.403-2.175 1.211-2.891.807-.722 1.904-1.084 3.291-1.084 1.38 0 2.474.358 3.281 1.074.814.71 1.221 1.677 1.221 2.901zm-2.53 6.338c0-.619-.179-1.114-.537-1.485-.358-.371-.84-.556-1.445-.556-.599 0-1.078.185-1.436.556-.358.365-.537.86-.537 1.485 0 .605.176 1.093.527 1.465.352.371.84.556 1.465.556.612 0 1.091-.179 1.436-.537.351-.358.527-.853.527-1.484zm-.293-6.201c0-.554-.146-.997-.439-1.329-.293-.338-.707-.507-1.24-.507-.528 0-.938.162-1.231.488-.293.325-.439.775-.439 1.348 0 .566.146 1.022.439 1.367.293.345.706.517 1.24.517s.944-.172 1.231-.517c.293-.345.439-.801.439-1.367zm5.889 13.867-1.475-.772.352-.635c.436-.794.661-1.585.674-2.373v-2.187h2.383l-.01 1.953c-.007.723-.189 1.452-.547 2.188-.358.735-.817 1.344-1.377 1.826zm6.904-11.924h1.504c.716 0 1.247-.179 1.592-.537.345-.358.517-.834.517-1.426 0-.573-.172-1.019-.517-1.338-.339-.319-.807-.478-1.406-.478-.541 0-.993.149-1.358.449a1.409 1.409 0 0 0-.547 1.152h-2.822c0-.742.199-1.406.596-1.992.403-.592.963-1.055 1.679-1.387a5.64 5.64 0 0 1 2.383-.498c1.504 0 2.683.362 3.535 1.084.853.716 1.28 1.706 1.28 2.969 0 .651-.199 1.25-.596 1.797a3.871 3.871 0 0 1-1.562 1.26c.8.286 1.396.716 1.787 1.289.397.573.595 1.25.595 2.031 0 1.263-.462 2.275-1.386 3.037-.918.762-2.136 1.143-3.653 1.143-1.419 0-2.581-.375-3.486-1.123-.898-.749-1.348-1.739-1.348-2.969h2.823c0 .534.198.97.595 1.308.404.339.899.508 1.485.508.67 0 1.194-.176 1.572-.527.384-.358.576-.83.576-1.416 0-1.419-.781-2.129-2.344-2.129h-1.494v-2.207zm8.574-3.125c0-.873.284-1.579.85-2.119.566-.547 1.309-.821 2.227-.821.931 0 1.679.271 2.246.811.566.534.849 1.26.849 2.178v.703c0 .879-.283 1.585-.849 2.119-.567.534-1.309.801-2.227.801-.924 0-1.673-.267-2.246-.801-.566-.54-.85-1.266-.85-2.178v-.693zm1.875.752c0 .39.111.706.332.947.228.234.525.352.889.352.365 0 .654-.121.869-.362.215-.241.323-.563.323-.966v-.723c0-.391-.108-.706-.323-.947-.215-.241-.511-.362-.888-.362-.358 0-.648.121-.87.362-.221.234-.332.563-.332.986v.713zm4.922 7.246c0-.879.287-1.585.86-2.119.573-.541 1.315-.811 2.226-.811.925 0 1.67.267 2.237.801.572.527.859 1.257.859 2.188v.703c0 .872-.28 1.578-.84 2.119-.56.534-1.305.801-2.236.801-.938 0-1.69-.271-2.256-.811-.566-.54-.85-1.256-.85-2.148v-.723zm1.875.762c0 .358.117.664.352.918.234.254.527.38.879.38.794 0 1.191-.439 1.191-1.318v-.742c0-.391-.111-.703-.332-.938-.221-.24-.514-.361-.879-.361-.364 0-.657.121-.879.361-.221.235-.332.557-.332.967v.733zm-5.019 1.66-1.377-.742 6.943-11.114 1.377.743-6.943 11.113z" fill="#F3F3F3"/></svg>