<svg width="205" height="205" fill="none" xmlns="http://www.w3.org/2000/svg"><circle cx="102" cy="100" r="100" fill="#C4C4C4"/><mask id="a" fill="#fff"><path d="M205 102.5a102.505 102.505 0 0 0-43.218-83.618A102.503 102.503 0 0 0 27.949 32.155a102.5 102.5 0 0 0-5.488 134.376L102.5 102.5H205z"/></mask><path d="M205 102.5a102.505 102.505 0 0 0-43.218-83.618A102.503 102.503 0 0 0 27.949 32.155a102.5 102.5 0 0 0-5.488 134.376L102.5 102.5H205z" fill="#4593A5" stroke="#357280" stroke-width="2" mask="url(#a)"/><path d="M77.085 49.58v3.95h-.465c-2.17.033-3.918.598-5.246 1.694-1.317 1.095-2.108 2.617-2.374 4.565 1.284-1.306 2.905-1.959 4.864-1.959 2.103 0 3.774.753 5.014 2.258 1.24 1.505 1.86 3.486 1.86 5.943 0 1.572-.344 2.994-1.03 4.267a7.253 7.253 0 0 1-2.889 2.971c-1.24.709-2.645 1.063-4.216 1.063-2.546 0-4.605-.885-6.176-2.656-1.56-1.771-2.341-4.134-2.341-7.09V62.86c0-2.623.493-4.936 1.478-6.94.996-2.013 2.418-3.568 4.266-4.664 1.86-1.107 4.012-1.666 6.458-1.677h.797zm-4.682 12.102a3.79 3.79 0 0 0-2.108.614c-.63.398-1.096.93-1.395 1.594v1.46c0 1.605.316 2.862.947 3.77.63.896 1.516 1.344 2.656 1.344 1.03 0 1.86-.404 2.49-1.212.642-.82.963-1.876.963-3.17 0-1.318-.32-2.38-.963-3.188-.642-.808-1.505-1.212-2.59-1.212zm27.46 2.324c0 3.342-.692 5.899-2.076 7.67-1.383 1.77-3.409 2.656-6.076 2.656-2.634 0-4.648-.869-6.043-2.606-1.395-1.738-2.108-4.228-2.142-7.471v-4.45c0-3.375.698-5.937 2.092-7.686 1.406-1.749 3.426-2.623 6.06-2.623 2.634 0 4.648.869 6.043 2.606 1.394 1.727 2.108 4.212 2.141 7.455v4.449zm-4.799-4.881c0-2.003-.276-3.459-.83-4.366-.542-.919-1.394-1.378-2.556-1.378-1.13 0-1.965.437-2.507 1.311-.531.864-.814 2.22-.847 4.068v5.877c0 1.97.266 3.436.797 4.4.542.951 1.406 1.427 2.59 1.427 1.173 0 2.02-.46 2.54-1.378.52-.919.791-2.324.813-4.217v-5.744zm7.986-4.648c0-1.483.481-2.684 1.444-3.603.963-.93 2.225-1.395 3.785-1.395 1.583 0 2.856.46 3.819 1.378.963.908 1.444 2.142 1.444 3.703v1.195c0 1.494-.481 2.695-1.444 3.602-.963.908-2.225 1.362-3.786 1.362-1.571 0-2.844-.454-3.818-1.362-.963-.918-1.444-2.152-1.444-3.702v-1.178zm3.187 1.278c0 .664.188 1.2.565 1.61.387.399.891.598 1.51.598.62 0 1.113-.205 1.478-.614.365-.41.548-.958.548-1.644v-1.228c0-.664-.183-1.201-.548-1.61-.365-.41-.869-.615-1.511-.615-.608 0-1.101.205-1.477.614-.377.399-.565.958-.565 1.677v1.212zm8.367 12.318c0-1.494.487-2.695 1.461-3.602.974-.919 2.236-1.378 3.786-1.378 1.571 0 2.838.453 3.801 1.361.974.897 1.461 2.136 1.461 3.719v1.195c0 1.483-.476 2.684-1.427 3.603-.952.907-2.22 1.361-3.802 1.361-1.594 0-2.872-.46-3.835-1.378-.963-.918-1.445-2.136-1.445-3.652v-1.229zm3.188 1.295c0 .609.199 1.13.598 1.56.398.432.896.648 1.494.648 1.35 0 2.025-.747 2.025-2.241v-1.262c0-.664-.188-1.195-.564-1.593-.377-.41-.875-.615-1.494-.615-.62 0-1.118.205-1.495.615-.376.398-.564.946-.564 1.643v1.245zm-8.533 2.822-2.341-1.261 11.804-18.893 2.34 1.262-11.803 18.892zM110.584 149.043h2.095v2.958h-2.095V156h-3.669v-3.999h-7.58l-.164-2.311 7.706-12.174h3.707v11.527zm-7.757 0h4.088v-6.525l-.241.419-3.847 6.106zm24.274-.686c0 2.556-.529 4.511-1.587 5.866-1.058 1.354-2.607 2.031-4.647 2.031-2.014 0-3.555-.664-4.621-1.993-1.066-1.329-1.612-3.233-1.638-5.713v-3.402c0-2.582.534-4.541 1.6-5.878 1.075-1.338 2.619-2.006 4.634-2.006 2.014 0 3.554.664 4.621 1.993 1.066 1.32 1.612 3.22 1.638 5.7v3.402zm-3.669-3.732c0-1.532-.212-2.645-.635-3.339-.415-.702-1.067-1.054-1.955-1.054-.863 0-1.502.335-1.917 1.003-.406.661-.622 1.697-.648 3.111v4.494c0 1.506.203 2.628.61 3.364.414.728 1.075 1.092 1.98 1.092.897 0 1.545-.351 1.943-1.054.397-.702.605-1.777.622-3.224v-4.393zm6.106-3.555c0-1.134.368-2.052 1.105-2.755.736-.711 1.701-1.066 2.894-1.066 1.21 0 2.184.351 2.92 1.054.736.694 1.105 1.637 1.105 2.831v.914c0 1.142-.369 2.061-1.105 2.755s-1.701 1.041-2.895 1.041c-1.201 0-2.175-.347-2.919-1.041-.737-.703-1.105-1.646-1.105-2.831v-.902zm2.438.978c0 .508.143.918.431 1.231.296.305.682.457 1.155.457.474 0 .851-.156 1.13-.469.28-.314.419-.732.419-1.257v-.94c0-.508-.139-.918-.419-1.231-.279-.313-.664-.47-1.155-.47-.465 0-.842.157-1.13.47-.288.305-.431.732-.431 1.282v.927zm6.398 9.42c0-1.143.372-2.061 1.117-2.755.745-.703 1.71-1.054 2.895-1.054 1.202 0 2.171.347 2.907 1.041.745.686 1.117 1.634 1.117 2.844v.914c0 1.134-.364 2.052-1.092 2.755-.728.694-1.697 1.041-2.907 1.041-1.219 0-2.196-.351-2.932-1.054-.737-.702-1.105-1.633-1.105-2.793v-.939zm2.438.99c0 .466.152.863.457 1.193.304.33.685.495 1.142.495 1.033 0 1.549-.571 1.549-1.713v-.965c0-.508-.144-.914-.432-1.219-.287-.313-.668-.47-1.142-.47-.474 0-.855.157-1.143.47-.288.305-.431.724-.431 1.257v.952zm-6.526 2.158-1.79-.965 9.026-14.447 1.79.965-9.026 14.447z" fill="#fff"/></svg>