<svg width="205" height="205" viewBox="0 0 205 205" fill="none" xmlns="http://www.w3.org/2000/svg">
<circle cx="102" cy="100" r="100" fill="#C4C4C4"/>
<mask id="path-2-inside-1_1017_7783" fill="white">
<path d="M205 102.5C205 86.1234 201.076 69.9851 193.557 55.4368C186.037 40.8885 175.141 28.3537 161.782 18.8821C148.422 9.4106 132.987 3.27808 116.77 0.998162C100.553 -1.28175 84.0252 0.357317 68.5718 5.7781C53.1183 11.1989 39.1887 20.2436 27.9495 32.1547C16.7102 44.0658 8.48863 58.4965 3.97321 74.2383C-0.542216 89.9802 -1.22001 106.575 1.99659 122.632C5.2132 138.69 12.2305 153.743 22.461 166.531L102.5 102.5H205Z"/>
</mask>
<path d="M205 102.5C205 86.1234 201.076 69.9851 193.557 55.4368C186.037 40.8885 175.141 28.3537 161.782 18.8821C148.422 9.4106 132.987 3.27808 116.77 0.998162C100.553 -1.28175 84.0252 0.357317 68.5718 5.7781C53.1183 11.1989 39.1887 20.2436 27.9495 32.1547C16.7102 44.0658 8.48863 58.4965 3.97321 74.2383C-0.542216 89.9802 -1.22001 106.575 1.99659 122.632C5.2132 138.69 12.2305 153.743 22.461 166.531L102.5 102.5H205Z" fill="#4593A5" stroke="#357280" stroke-width="2" mask="url(#path-2-inside-1_1017_7783)"/>
<path d="M77.085 49.5791V53.5303H76.6201C74.4508 53.5635 72.7021 54.1279 71.374 55.2236C70.057 56.3193 69.2656 57.8411 69 59.7891C70.2839 58.4831 71.9053 57.8301 73.8643 57.8301C75.9671 57.8301 77.6383 58.5827 78.8779 60.0879C80.1175 61.5931 80.7373 63.5742 80.7373 66.0312C80.7373 67.6029 80.3942 69.0251 79.708 70.2979C79.0329 71.5706 78.07 72.5612 76.8193 73.2695C75.5798 73.9779 74.1742 74.332 72.6025 74.332C70.057 74.332 67.9984 73.4466 66.4268 71.6758C64.8662 69.9049 64.0859 67.542 64.0859 64.5869V62.8604C64.0859 60.2373 64.5785 57.9242 65.5635 55.9209C66.5596 53.9066 67.9818 52.3516 69.8301 51.2559C71.6895 50.1491 73.8421 49.5902 76.2881 49.5791H77.085ZM72.4033 61.6816C71.6286 61.6816 70.9258 61.8864 70.2949 62.2959C69.6641 62.6943 69.1992 63.2256 68.9004 63.8896V65.3506C68.9004 66.9554 69.2158 68.2116 69.8467 69.1191C70.4775 70.0156 71.363 70.4639 72.5029 70.4639C73.5322 70.4639 74.3623 70.0599 74.9932 69.252C75.6351 68.4329 75.9561 67.376 75.9561 66.0811C75.9561 64.764 75.6351 63.7015 74.9932 62.8936C74.3512 62.0856 73.488 61.6816 72.4033 61.6816ZM99.8623 64.0059C99.8623 67.3483 99.1706 69.9049 97.7871 71.6758C96.4036 73.4466 94.3783 74.332 91.7109 74.332C89.0768 74.332 87.0625 73.4632 85.668 71.7256C84.2734 69.988 83.5596 67.4977 83.5264 64.2549V59.8057C83.5264 56.43 84.2236 53.8678 85.6182 52.1191C87.0238 50.3704 89.0436 49.4961 91.6777 49.4961C94.3118 49.4961 96.3262 50.3649 97.7207 52.1025C99.1152 53.8291 99.8291 56.3138 99.8623 59.5566V64.0059ZM95.0645 59.125C95.0645 57.1217 94.7878 55.6663 94.2344 54.7588C93.6921 53.8402 92.8398 53.3809 91.6777 53.3809C90.5488 53.3809 89.7132 53.818 89.1709 54.6924C88.6396 55.5557 88.3574 56.9115 88.3242 58.7598V64.6367C88.3242 66.6068 88.5898 68.0732 89.1211 69.0361C89.6634 69.988 90.5267 70.4639 91.7109 70.4639C92.8841 70.4639 93.7308 70.0046 94.251 69.0859C94.7712 68.1673 95.0423 66.7617 95.0645 64.8691V59.125ZM103.05 54.4766C103.05 52.9935 103.531 51.7926 104.494 50.874C105.457 49.9443 106.719 49.4795 108.279 49.4795C109.862 49.4795 111.135 49.9388 112.098 50.8574C113.061 51.765 113.542 52.999 113.542 54.5596V55.7549C113.542 57.249 113.061 58.4499 112.098 59.3574C111.135 60.265 109.873 60.7188 108.312 60.7188C106.741 60.7188 105.468 60.265 104.494 59.3574C103.531 58.4388 103.05 57.2048 103.05 55.6553V54.4766ZM106.237 55.7549C106.237 56.4189 106.425 56.9557 106.802 57.3652C107.189 57.7637 107.693 57.9629 108.312 57.9629C108.932 57.9629 109.425 57.7581 109.79 57.3486C110.155 56.9391 110.338 56.3913 110.338 55.7051V54.4766C110.338 53.8125 110.155 53.2757 109.79 52.8662C109.425 52.4567 108.921 52.252 108.279 52.252C107.671 52.252 107.178 52.4567 106.802 52.8662C106.425 53.2646 106.237 53.8236 106.237 54.543V55.7549ZM114.604 68.0732C114.604 66.5791 115.091 65.3783 116.065 64.4707C117.039 63.5521 118.301 63.0928 119.851 63.0928C121.422 63.0928 122.689 63.5465 123.652 64.4541C124.626 65.3506 125.113 66.5902 125.113 68.1729V69.3682C125.113 70.8512 124.637 72.0521 123.686 72.9707C122.734 73.8783 121.466 74.332 119.884 74.332C118.29 74.332 117.012 73.8727 116.049 72.9541C115.086 72.0355 114.604 70.818 114.604 69.3018V68.0732ZM117.792 69.3682C117.792 69.9769 117.991 70.4971 118.39 70.9287C118.788 71.3604 119.286 71.5762 119.884 71.5762C121.234 71.5762 121.909 70.8291 121.909 69.335V68.0732C121.909 67.4092 121.721 66.8779 121.345 66.4795C120.968 66.07 120.47 65.8652 119.851 65.8652C119.231 65.8652 118.733 66.07 118.356 66.4795C117.98 66.8779 117.792 67.4258 117.792 68.123V69.3682ZM109.259 72.1904L106.918 70.9287L118.722 52.0361L121.062 53.2979L109.259 72.1904Z" fill="white"/>
<path d="M110.584 149.043H112.679V152.001H110.584V156H106.915V152.001H99.3359L99.1709 149.69L106.877 137.516H110.584V149.043ZM102.827 149.043H106.915V142.518L106.674 142.937L102.827 149.043ZM127.101 148.357C127.101 150.913 126.572 152.868 125.514 154.223C124.456 155.577 122.907 156.254 120.867 156.254C118.853 156.254 117.312 155.59 116.246 154.261C115.18 152.932 114.634 151.028 114.608 148.548V145.146C114.608 142.564 115.142 140.605 116.208 139.268C117.283 137.93 118.827 137.262 120.842 137.262C122.856 137.262 124.396 137.926 125.463 139.255C126.529 140.575 127.075 142.475 127.101 144.955V148.357ZM123.432 144.625C123.432 143.093 123.22 141.98 122.797 141.286C122.382 140.584 121.73 140.232 120.842 140.232C119.979 140.232 119.34 140.567 118.925 141.235C118.519 141.896 118.303 142.932 118.277 144.346V148.84C118.277 150.346 118.48 151.468 118.887 152.204C119.301 152.932 119.962 153.296 120.867 153.296C121.764 153.296 122.412 152.945 122.81 152.242C123.207 151.54 123.415 150.465 123.432 149.018V144.625ZM129.538 141.07C129.538 139.936 129.906 139.018 130.643 138.315C131.379 137.604 132.344 137.249 133.537 137.249C134.747 137.249 135.721 137.6 136.457 138.303C137.193 138.997 137.562 139.94 137.562 141.134V142.048C137.562 143.19 137.193 144.109 136.457 144.803C135.721 145.497 134.756 145.844 133.562 145.844C132.361 145.844 131.387 145.497 130.643 144.803C129.906 144.1 129.538 143.157 129.538 141.972V141.07ZM131.976 142.048C131.976 142.556 132.119 142.966 132.407 143.279C132.703 143.584 133.089 143.736 133.562 143.736C134.036 143.736 134.413 143.58 134.692 143.267C134.972 142.953 135.111 142.535 135.111 142.01V141.07C135.111 140.562 134.972 140.152 134.692 139.839C134.413 139.526 134.028 139.369 133.537 139.369C133.072 139.369 132.695 139.526 132.407 139.839C132.119 140.144 131.976 140.571 131.976 141.121V142.048ZM138.374 151.468C138.374 150.325 138.746 149.407 139.491 148.713C140.236 148.01 141.201 147.659 142.386 147.659C143.588 147.659 144.557 148.006 145.293 148.7C146.038 149.386 146.41 150.334 146.41 151.544V152.458C146.41 153.592 146.046 154.51 145.318 155.213C144.59 155.907 143.621 156.254 142.411 156.254C141.192 156.254 140.215 155.903 139.479 155.2C138.742 154.498 138.374 153.567 138.374 152.407V151.468ZM140.812 152.458C140.812 152.924 140.964 153.321 141.269 153.651C141.573 153.981 141.954 154.146 142.411 154.146C143.444 154.146 143.96 153.575 143.96 152.433V151.468C143.96 150.96 143.816 150.554 143.528 150.249C143.241 149.936 142.86 149.779 142.386 149.779C141.912 149.779 141.531 149.936 141.243 150.249C140.955 150.554 140.812 150.973 140.812 151.506V152.458ZM134.286 154.616L132.496 153.651L141.522 139.204L143.312 140.169L134.286 154.616Z" fill="white"/>
</svg>
