<svg width="244" height="244" viewBox="0 0 244 244" fill="none" xmlns="http://www.w3.org/2000/svg">
<path d="M45.9339 167.512C34.7182 149.041 30.6482 127.105 34.4914 105.84C38.3346 84.5749 49.8253 65.4508 66.7968 52.074C83.7683 38.6972 105.048 31.9921 126.622 33.223C148.196 34.4541 168.575 43.5361 183.915 58.7566C199.255 73.9771 208.495 94.284 209.895 115.848C211.294 137.412 204.755 158.743 191.511 175.819C178.268 192.894 159.234 204.534 137.999 208.543C116.765 212.552 94.7976 208.653 76.2395 197.582L103.93 151.166C111.154 155.476 119.706 156.994 127.972 155.433C136.238 153.873 143.648 149.341 148.804 142.694C153.959 136.047 156.505 127.743 155.96 119.348C155.415 110.954 151.818 103.048 145.846 97.1232C139.875 91.1981 131.942 87.6626 123.543 87.1833C115.144 86.7041 106.861 89.3143 100.254 94.5218C93.6471 99.7292 89.1739 107.174 87.6778 115.452C86.1817 123.73 87.7661 132.27 92.1323 139.46L45.9339 167.512Z" fill="#C4C4C4"/>
<path d="M211.54 131.617C209.489 151.873 200.668 170.845 186.503 185.468C172.338 200.091 153.657 209.511 133.477 212.205C113.297 214.899 92.7982 210.711 75.293 200.316C57.7878 189.921 44.2988 173.928 37.0058 154.92C29.7129 135.912 29.042 115.001 35.1017 95.5644C41.1613 76.1283 53.5974 59.3031 70.4004 47.8077C87.2034 36.3124 107.392 30.8185 127.702 32.2138C148.013 33.6091 167.261 41.8121 182.334 55.4972L143.863 97.8695C138.322 92.8387 131.247 89.8231 123.78 89.3102C116.314 88.7973 108.892 90.8169 102.715 95.0427C96.5381 99.2686 91.9664 105.454 89.7388 112.599C87.5112 119.744 87.7578 127.431 90.4388 134.419C93.1198 141.406 98.0785 147.286 104.514 151.107C110.949 154.928 118.484 156.468 125.903 155.477C133.321 154.487 140.189 151.024 145.396 145.648C150.603 140.273 153.846 133.298 154.6 125.852L211.54 131.617Z" fill="#243225"/>
<path d="M102.266 64.8C102.266 65.68 102.026 66.4533 101.546 67.12C101.08 67.7733 100.453 68.28 99.6664 68.64C98.8797 69 98.0197 69.18 97.0864 69.18C96.1397 69.18 95.2731 68.9933 94.4864 68.62C93.7131 68.2333 93.0931 67.7067 92.6264 67.04C92.1731 66.36 91.9464 65.58 91.9464 64.7C91.9464 64.1667 92.0597 63.6867 92.2864 63.26C92.5131 62.82 92.7931 62.4467 93.1264 62.14C93.4731 61.8333 93.8197 61.5867 94.1664 61.4C93.6731 61.16 93.2531 60.8 92.9064 60.32C92.5597 59.84 92.3864 59.3133 92.3864 58.74C92.3864 58.1 92.5264 57.54 92.8064 57.06C93.0864 56.5667 93.4597 56.1533 93.9264 55.82C94.3931 55.4867 94.8997 55.2333 95.4464 55.06C96.0064 54.8867 96.5597 54.8 97.1064 54.8C97.6397 54.8 98.1864 54.8867 98.7464 55.06C99.3064 55.22 99.8197 55.4667 100.286 55.8C100.753 56.1333 101.126 56.5467 101.406 57.04C101.7 57.52 101.846 58.08 101.846 58.72C101.846 59.2933 101.666 59.8267 101.306 60.32C100.946 60.8133 100.513 61.1733 100.006 61.4C100.593 61.6933 101.113 62.1333 101.566 62.72C102.033 63.2933 102.266 63.9867 102.266 64.8ZM95.1064 58.82C95.1064 59.18 95.2064 59.4867 95.4064 59.74C95.6064 59.9933 95.8597 60.1867 96.1664 60.32C96.4731 60.44 96.7864 60.5 97.1064 60.5C97.4131 60.5 97.7197 60.44 98.0264 60.32C98.3331 60.1867 98.5864 59.9933 98.7864 59.74C98.9997 59.4867 99.1064 59.1733 99.1064 58.8C99.1064 58.3067 98.9064 57.9133 98.5064 57.62C98.1064 57.3267 97.6331 57.18 97.0864 57.18C96.5531 57.18 96.0864 57.3333 95.6864 57.64C95.2997 57.9333 95.1064 58.3267 95.1064 58.82ZM99.5464 64.64C99.5464 64.1867 99.4264 63.8067 99.1864 63.5C98.9464 63.18 98.6397 62.94 98.2664 62.78C97.8931 62.6067 97.4997 62.52 97.0864 62.52C96.6597 62.52 96.2597 62.6067 95.8864 62.78C95.5264 62.9533 95.2331 63.2 95.0064 63.52C94.7797 63.84 94.6664 64.2133 94.6664 64.64C94.6664 65.0667 94.7864 65.44 95.0264 65.76C95.2664 66.0667 95.5731 66.3133 95.9464 66.5C96.3197 66.6733 96.7064 66.76 97.1064 66.76C97.5331 66.76 97.9264 66.6667 98.2864 66.48C98.6597 66.2933 98.9597 66.0467 99.1864 65.74C99.4264 65.42 99.5464 65.0533 99.5464 64.64ZM108.377 71.98C107.35 71.98 106.423 71.76 105.597 71.32C104.77 70.88 104.143 70.28 103.717 69.52L105.257 67.92C105.63 68.44 106.097 68.8533 106.657 69.16C107.217 69.4667 107.797 69.62 108.397 69.62C109.117 69.62 109.703 69.4 110.157 68.96C110.623 68.52 110.857 67.9467 110.857 67.24C110.857 66.5467 110.637 65.9867 110.197 65.56C109.757 65.1333 109.21 64.92 108.557 64.92C108.117 64.92 107.703 65.02 107.317 65.22C106.943 65.4067 106.643 65.68 106.417 66.04H104.077L105.717 57.58H112.717V60.02H107.657L107.077 63.2C107.237 63.04 107.47 62.9067 107.777 62.8C108.097 62.68 108.483 62.62 108.937 62.62C109.83 62.62 110.623 62.8133 111.317 63.2C112.023 63.5867 112.577 64.1267 112.977 64.82C113.39 65.5 113.597 66.2867 113.597 67.18C113.597 68.14 113.37 68.98 112.917 69.7C112.463 70.42 111.843 70.98 111.057 71.38C110.27 71.78 109.377 71.98 108.377 71.98ZM118.211 60.66C117.598 60.66 117.038 60.5267 116.531 60.26C116.038 59.98 115.644 59.6133 115.351 59.16C115.058 58.6933 114.911 58.18 114.911 57.62C114.911 57.06 115.058 56.5533 115.351 56.1C115.644 55.6467 116.038 55.2867 116.531 55.02C117.038 54.74 117.598 54.6 118.211 54.6C118.824 54.6 119.378 54.74 119.871 55.02C120.378 55.2867 120.778 55.6467 121.071 56.1C121.364 56.5533 121.511 57.06 121.511 57.62C121.511 58.18 121.364 58.6933 121.071 59.16C120.778 59.6133 120.378 59.98 119.871 60.26C119.378 60.5267 118.824 60.66 118.211 60.66ZM116.051 68.06L121.671 61.48L126.871 54.64L128.091 55.72L122.611 62.2L117.251 69.14L116.051 68.06ZM118.211 59.32C118.598 59.32 118.931 59.1533 119.211 58.82C119.491 58.4733 119.631 58.0733 119.631 57.62C119.631 57.1667 119.491 56.7733 119.211 56.44C118.931 56.1067 118.598 55.94 118.211 55.94C117.824 55.94 117.491 56.1067 117.211 56.44C116.931 56.7733 116.791 57.1667 116.791 57.62C116.791 58.0867 116.931 58.4867 117.211 58.82C117.491 59.1533 117.824 59.32 118.211 59.32ZM125.931 69.2C125.318 69.2 124.764 69.0667 124.271 68.8C123.778 68.52 123.378 68.1533 123.071 67.7C122.778 67.2467 122.631 66.74 122.631 66.18C122.631 65.62 122.778 65.1133 123.071 64.66C123.378 64.1933 123.778 63.8267 124.271 63.56C124.764 63.28 125.318 63.14 125.931 63.14C126.544 63.14 127.098 63.28 127.591 63.56C128.098 63.8267 128.498 64.1933 128.791 64.66C129.084 65.1133 129.231 65.62 129.231 66.18C129.231 66.74 129.084 67.2467 128.791 67.7C128.498 68.1533 128.098 68.52 127.591 68.8C127.098 69.0667 126.544 69.2 125.931 69.2ZM125.931 67.86C126.331 67.86 126.664 67.6933 126.931 67.36C127.211 67.0267 127.351 66.6333 127.351 66.18C127.351 65.7133 127.211 65.3133 126.931 64.98C126.651 64.6467 126.318 64.48 125.931 64.48C125.544 64.48 125.211 64.6533 124.931 65C124.651 65.3333 124.511 65.7267 124.511 66.18C124.511 66.6333 124.651 67.0267 124.931 67.36C125.211 67.6933 125.544 67.86 125.931 67.86Z" fill="white"/>
<path d="M175.848 104.064V106H169.352V104.064H171.624V99.216C171.496 99.376 171.277 99.5467 170.968 99.728C170.669 99.9093 170.339 100.064 169.976 100.192C169.624 100.32 169.309 100.384 169.032 100.384V98.384C169.224 98.384 169.453 98.3253 169.72 98.208C169.997 98.08 170.269 97.9307 170.536 97.76C170.813 97.5893 171.048 97.424 171.24 97.264C171.443 97.0933 171.571 96.96 171.624 96.864H173.816V104.064H175.848ZM180.426 108.384C179.605 108.384 178.864 108.208 178.202 107.856C177.541 107.504 177.04 107.024 176.698 106.416L177.93 105.136C178.229 105.552 178.602 105.883 179.05 106.128C179.498 106.373 179.962 106.496 180.442 106.496C181.018 106.496 181.488 106.32 181.85 105.968C182.224 105.616 182.41 105.157 182.41 104.592C182.41 104.037 182.234 103.589 181.882 103.248C181.53 102.907 181.093 102.736 180.57 102.736C180.218 102.736 179.888 102.816 179.578 102.976C179.28 103.125 179.04 103.344 178.858 103.632H176.986L178.298 96.864H183.898V98.816H179.85L179.386 101.36C179.514 101.232 179.701 101.125 179.946 101.04C180.202 100.944 180.512 100.896 180.874 100.896C181.589 100.896 182.224 101.051 182.778 101.36C183.344 101.669 183.786 102.101 184.106 102.656C184.437 103.2 184.602 103.829 184.602 104.544C184.602 105.312 184.421 105.984 184.058 106.56C183.696 107.136 183.2 107.584 182.57 107.904C181.941 108.224 181.226 108.384 180.426 108.384ZM188.294 99.328C187.803 99.328 187.355 99.2213 186.95 99.008C186.555 98.784 186.24 98.4907 186.006 98.128C185.771 97.7547 185.654 97.344 185.654 96.896C185.654 96.448 185.771 96.0427 186.006 95.68C186.24 95.3173 186.555 95.0293 186.95 94.816C187.355 94.592 187.803 94.48 188.294 94.48C188.784 94.48 189.227 94.592 189.622 94.816C190.027 95.0293 190.347 95.3173 190.582 95.68C190.816 96.0427 190.934 96.448 190.934 96.896C190.934 97.344 190.816 97.7547 190.582 98.128C190.347 98.4907 190.027 98.784 189.622 99.008C189.227 99.2213 188.784 99.328 188.294 99.328ZM186.566 105.248L191.062 99.984L195.222 94.512L196.198 95.376L191.814 100.56L187.526 106.112L186.566 105.248ZM188.294 98.256C188.603 98.256 188.87 98.1227 189.094 97.856C189.318 97.5787 189.43 97.2587 189.43 96.896C189.43 96.5333 189.318 96.2187 189.094 95.952C188.87 95.6853 188.603 95.552 188.294 95.552C187.984 95.552 187.718 95.6853 187.494 95.952C187.27 96.2187 187.158 96.5333 187.158 96.896C187.158 97.2693 187.27 97.5893 187.494 97.856C187.718 98.1227 187.984 98.256 188.294 98.256ZM194.47 106.16C193.979 106.16 193.536 106.053 193.142 105.84C192.747 105.616 192.427 105.323 192.182 104.96C191.947 104.597 191.83 104.192 191.83 103.744C191.83 103.296 191.947 102.891 192.182 102.528C192.427 102.155 192.747 101.861 193.142 101.648C193.536 101.424 193.979 101.312 194.47 101.312C194.96 101.312 195.403 101.424 195.798 101.648C196.203 101.861 196.523 102.155 196.758 102.528C196.992 102.891 197.11 103.296 197.11 103.744C197.11 104.192 196.992 104.597 196.758 104.96C196.523 105.323 196.203 105.616 195.798 105.84C195.403 106.053 194.96 106.16 194.47 106.16ZM194.47 105.088C194.79 105.088 195.056 104.955 195.27 104.688C195.494 104.421 195.606 104.107 195.606 103.744C195.606 103.371 195.494 103.051 195.27 102.784C195.046 102.517 194.779 102.384 194.47 102.384C194.16 102.384 193.894 102.523 193.67 102.8C193.446 103.067 193.334 103.381 193.334 103.744C193.334 104.107 193.446 104.421 193.67 104.688C193.894 104.955 194.16 105.088 194.47 105.088Z" fill="white"/>
</svg>
