<svg width="261" height="261" viewBox="0 0 261 261" fill="none" xmlns="http://www.w3.org/2000/svg">
<path d="M155.884 33.5525C171.007 37.572 184.976 45.0846 196.667 55.486C208.358 65.8874 217.445 78.8873 223.197 93.4401C228.949 107.993 231.205 123.693 229.784 139.276C228.364 154.86 223.305 169.893 215.017 183.166C206.728 196.438 195.44 207.581 182.061 215.697C168.682 223.813 153.585 228.675 137.984 229.894C122.383 231.112 106.714 228.652 92.237 222.712C77.7599 216.772 64.879 207.517 54.6301 195.692L130.197 130.197L155.884 33.5525Z" fill="#919090"/>
<path d="M220.767 172.591C214.448 186.091 205.191 198.007 193.673 207.469C182.155 216.93 168.668 223.697 154.198 227.274C139.728 230.852 124.641 231.149 110.042 228.145C95.4418 225.14 81.6984 218.91 69.8166 209.91L130.198 130.197L220.767 172.591Z" fill="#1D9B2A"/>
<mask id="path-3-inside-1_691_12728" fill="white">
<path d="M67.1493 214.161C54.0104 204.295 43.3702 191.483 36.0846 176.756C28.7989 162.029 25.0711 145.797 25.201 129.367C25.3309 112.937 29.3149 96.7665 36.8325 82.1564C44.3501 67.5463 55.1915 54.9043 68.4847 45.2473C81.778 35.5902 97.152 29.1876 113.37 26.5544C129.589 23.9212 146.199 25.1309 161.864 30.0862C177.53 35.0415 191.814 43.6041 203.568 55.0853C215.322 66.5666 224.217 80.6459 229.538 96.1911L130.198 130.197L67.1493 214.161Z"/>
</mask>
<path d="M67.1493 214.161C54.0104 204.295 43.3702 191.483 36.0846 176.756C28.7989 162.029 25.0711 145.797 25.201 129.367C25.3309 112.937 29.3149 96.7665 36.8325 82.1564C44.3501 67.5463 55.1915 54.9043 68.4847 45.2473C81.778 35.5902 97.152 29.1876 113.37 26.5544C129.589 23.9212 146.199 25.1309 161.864 30.0862C177.53 35.0415 191.814 43.6041 203.568 55.0853C215.322 66.5666 224.217 80.6459 229.538 96.1911L130.198 130.197L67.1493 214.161Z" fill="#E2B71F" stroke="black" stroke-opacity="0.23" stroke-width="2" mask="url(#path-3-inside-1_691_12728)"/>
<path d="M73.1392 92.4082L74.2876 82.291H85.4438V85.5859H77.5278L77.0356 89.8652C77.9744 89.3639 78.9725 89.1133 80.0298 89.1133C81.9256 89.1133 83.4113 89.7012 84.4868 90.877C85.5623 92.0527 86.1001 93.6979 86.1001 95.8125C86.1001 97.0977 85.8267 98.2507 85.2798 99.2715C84.742 100.283 83.9673 101.072 82.9556 101.637C81.9438 102.193 80.7498 102.471 79.3735 102.471C78.1704 102.471 77.0539 102.229 76.0239 101.746C74.994 101.254 74.1782 100.566 73.5767 99.6816C72.9842 98.7975 72.6698 97.7904 72.6333 96.6602H76.5435C76.6255 97.4896 76.9126 98.1367 77.4048 98.6016C77.9061 99.0573 78.5578 99.2852 79.3599 99.2852C80.2531 99.2852 80.9412 98.9661 81.4243 98.3281C81.9074 97.681 82.1489 96.7695 82.1489 95.5938C82.1489 94.4635 81.8709 93.5977 81.3149 92.9961C80.759 92.3945 79.9705 92.0938 78.9497 92.0938C78.0109 92.0938 77.2498 92.3398 76.6665 92.832L76.2837 93.1875L73.1392 92.4082ZM97.8716 94.2402C96.8416 95.252 95.6385 95.7578 94.2622 95.7578C92.5031 95.7578 91.0949 95.1562 90.0376 93.9531C88.9803 92.7409 88.4517 91.1094 88.4517 89.0586C88.4517 87.7552 88.7342 86.5612 89.2993 85.4766C89.8735 84.3828 90.6711 83.5352 91.6919 82.9336C92.7127 82.3229 93.8612 82.0176 95.1372 82.0176C96.4497 82.0176 97.6164 82.3457 98.6372 83.002C99.658 83.6582 100.451 84.6016 101.016 85.832C101.581 87.0625 101.868 88.4707 101.877 90.0566V91.5195C101.877 94.8372 101.053 97.444 99.4028 99.3398C97.7531 101.236 95.4152 102.247 92.3892 102.375L91.4185 102.389V99.0938L92.2935 99.0801C95.7297 98.9251 97.589 97.3118 97.8716 94.2402ZM95.2329 92.7363C95.8709 92.7363 96.4178 92.5723 96.8735 92.2441C97.3384 91.916 97.6893 91.5195 97.9263 91.0547V89.4277C97.9263 88.0879 97.6711 87.0488 97.1606 86.3105C96.6502 85.5723 95.9666 85.2031 95.1099 85.2031C94.3169 85.2031 93.6652 85.5677 93.1548 86.2969C92.6444 87.0169 92.3892 87.9238 92.3892 89.0176C92.3892 90.1022 92.6353 90.9954 93.1274 91.6973C93.6287 92.39 94.3306 92.7363 95.2329 92.7363ZM105.897 107.188L103.833 106.107L104.325 105.219C104.935 104.107 105.25 102.999 105.268 101.896V98.834H108.604L108.59 101.568C108.581 102.58 108.326 103.601 107.825 104.631C107.323 105.661 106.681 106.513 105.897 107.188ZM112.131 92.4082L113.28 82.291H124.436V85.5859H116.52L116.028 89.8652C116.967 89.3639 117.965 89.1133 119.022 89.1133C120.918 89.1133 122.403 89.7012 123.479 90.877C124.555 92.0527 125.092 93.6979 125.092 95.8125C125.092 97.0977 124.819 98.2507 124.272 99.2715C123.734 100.283 122.959 101.072 121.948 101.637C120.936 102.193 119.742 102.471 118.366 102.471C117.163 102.471 116.046 102.229 115.016 101.746C113.986 101.254 113.17 100.566 112.569 99.6816C111.976 98.7975 111.662 97.7904 111.625 96.6602H115.536C115.618 97.4896 115.905 98.1367 116.397 98.6016C116.898 99.0573 117.55 99.2852 118.352 99.2852C119.245 99.2852 119.933 98.9661 120.417 98.3281C120.9 97.681 121.141 96.7695 121.141 95.5938C121.141 94.4635 120.863 93.5977 120.307 92.9961C119.751 92.3945 118.963 92.0938 117.942 92.0938C117.003 92.0938 116.242 92.3398 115.659 92.832L115.276 93.1875L112.131 92.4082ZM127.567 86.1191C127.567 84.8978 127.963 83.9089 128.756 83.1523C129.549 82.3867 130.588 82.0039 131.874 82.0039C133.177 82.0039 134.225 82.3822 135.018 83.1387C135.811 83.8861 136.208 84.9023 136.208 86.1875V87.1719C136.208 88.4023 135.811 89.3913 135.018 90.1387C134.225 90.8861 133.186 91.2598 131.901 91.2598C130.607 91.2598 129.558 90.8861 128.756 90.1387C127.963 89.3822 127.567 88.3659 127.567 87.0898V86.1191ZM130.192 87.1719C130.192 87.7188 130.347 88.1608 130.657 88.498C130.976 88.8262 131.39 88.9902 131.901 88.9902C132.411 88.9902 132.817 88.8216 133.118 88.4844C133.418 88.1471 133.569 87.696 133.569 87.1309V86.1191C133.569 85.5723 133.418 85.1302 133.118 84.793C132.817 84.4557 132.402 84.2871 131.874 84.2871C131.372 84.2871 130.967 84.4557 130.657 84.793C130.347 85.1211 130.192 85.5814 130.192 86.1738V87.1719ZM137.083 97.3164C137.083 96.0859 137.484 95.097 138.286 94.3496C139.088 93.5931 140.127 93.2148 141.403 93.2148C142.697 93.2148 143.741 93.5885 144.534 94.3359C145.336 95.0742 145.737 96.0951 145.737 97.3984V98.3828C145.737 99.6042 145.345 100.593 144.561 101.35C143.777 102.097 142.734 102.471 141.43 102.471C140.118 102.471 139.065 102.092 138.272 101.336C137.479 100.579 137.083 99.5768 137.083 98.3281V97.3164ZM139.708 98.3828C139.708 98.8841 139.872 99.3125 140.2 99.668C140.528 100.023 140.938 100.201 141.43 100.201C142.542 100.201 143.098 99.5859 143.098 98.3555V97.3164C143.098 96.7695 142.943 96.332 142.633 96.0039C142.323 95.6667 141.913 95.498 141.403 95.498C140.892 95.498 140.482 95.6667 140.172 96.0039C139.862 96.332 139.708 96.7832 139.708 97.3574V98.3828ZM132.68 100.707L130.752 99.668L140.473 84.1094L142.401 85.1484L132.68 100.707Z" fill="#F2F2F2"/>
<path d="M176.476 137H174.5V129.385L172.142 130.116V128.51L176.264 127.033H176.476V137ZM186.538 137H179.716V135.646L182.936 132.215C183.378 131.732 183.703 131.31 183.913 130.95C184.127 130.59 184.234 130.248 184.234 129.925C184.234 129.483 184.123 129.136 183.899 128.886C183.676 128.631 183.357 128.503 182.942 128.503C182.496 128.503 182.143 128.658 181.883 128.968C181.628 129.273 181.5 129.676 181.5 130.178H179.518C179.518 129.572 179.661 129.018 179.948 128.517C180.24 128.015 180.65 127.623 181.179 127.341C181.707 127.054 182.307 126.91 182.977 126.91C184.002 126.91 184.797 127.156 185.362 127.648C185.932 128.141 186.217 128.836 186.217 129.733C186.217 130.226 186.089 130.727 185.834 131.237C185.579 131.748 185.141 132.342 184.521 133.021L182.259 135.407H186.538V137ZM188.35 139.495L187.317 138.955L187.563 138.511C187.869 137.955 188.026 137.401 188.035 136.85V135.318H189.703L189.696 136.686C189.692 137.191 189.564 137.702 189.313 138.217C189.063 138.732 188.742 139.158 188.35 139.495ZM197.995 137H191.173V135.646L194.393 132.215C194.835 131.732 195.16 131.31 195.37 130.95C195.584 130.59 195.691 130.248 195.691 129.925C195.691 129.483 195.58 129.136 195.356 128.886C195.133 128.631 194.814 128.503 194.399 128.503C193.953 128.503 193.6 128.658 193.34 128.968C193.085 129.273 192.957 129.676 192.957 130.178H190.975C190.975 129.572 191.118 129.018 191.405 128.517C191.697 128.015 192.107 127.623 192.636 127.341C193.164 127.054 193.764 126.91 194.434 126.91C195.459 126.91 196.254 127.156 196.819 127.648C197.389 128.141 197.674 128.836 197.674 129.733C197.674 130.226 197.546 130.727 197.291 131.237C197.036 131.748 196.598 132.342 195.979 133.021L193.716 135.407H197.995V137ZM199.185 128.961C199.185 128.35 199.383 127.856 199.779 127.478C200.176 127.095 200.695 126.903 201.338 126.903C201.99 126.903 202.514 127.092 202.91 127.471C203.307 127.844 203.505 128.353 203.505 128.995V129.487C203.505 130.103 203.307 130.597 202.91 130.971C202.514 131.344 201.994 131.531 201.352 131.531C200.704 131.531 200.18 131.344 199.779 130.971C199.383 130.592 199.185 130.084 199.185 129.446V128.961ZM200.497 129.487C200.497 129.761 200.575 129.982 200.729 130.15C200.889 130.314 201.096 130.396 201.352 130.396C201.607 130.396 201.81 130.312 201.96 130.144C202.11 129.975 202.186 129.749 202.186 129.467V128.961C202.186 128.688 202.11 128.466 201.96 128.298C201.81 128.129 201.602 128.045 201.338 128.045C201.087 128.045 200.884 128.129 200.729 128.298C200.575 128.462 200.497 128.692 200.497 128.988V129.487ZM203.942 134.56C203.942 133.944 204.143 133.45 204.544 133.076C204.945 132.698 205.465 132.509 206.103 132.509C206.75 132.509 207.271 132.696 207.668 133.069C208.069 133.438 208.27 133.949 208.27 134.601V135.093C208.27 135.703 208.074 136.198 207.682 136.576C207.29 136.95 206.768 137.137 206.116 137.137C205.46 137.137 204.934 136.948 204.537 136.569C204.141 136.191 203.942 135.69 203.942 135.065V134.56ZM205.255 135.093C205.255 135.343 205.337 135.558 205.501 135.735C205.665 135.913 205.87 136.002 206.116 136.002C206.672 136.002 206.95 135.694 206.95 135.079V134.56C206.95 134.286 206.873 134.067 206.718 133.903C206.563 133.735 206.358 133.65 206.103 133.65C205.847 133.65 205.642 133.735 205.487 133.903C205.332 134.067 205.255 134.293 205.255 134.58V135.093ZM201.741 136.255L200.777 135.735L205.638 127.956L206.602 128.476L201.741 136.255Z" fill="#F2F2F2"/>
<path d="M121.911 190.197H112.165V188.264L116.764 183.361C117.396 182.671 117.861 182.069 118.161 181.555C118.467 181.04 118.62 180.552 118.62 180.09C118.62 179.458 118.46 178.964 118.141 178.605C117.822 178.241 117.366 178.059 116.774 178.059C116.136 178.059 115.631 178.28 115.26 178.723C114.896 179.159 114.713 179.735 114.713 180.451H111.881C111.881 179.585 112.086 178.794 112.497 178.078C112.913 177.362 113.499 176.802 114.254 176.398C115.01 175.988 115.866 175.783 116.823 175.783C118.288 175.783 119.424 176.135 120.231 176.838C121.045 177.541 121.452 178.534 121.452 179.816C121.452 180.52 121.269 181.236 120.905 181.965C120.54 182.694 119.915 183.544 119.03 184.514L115.797 187.922H121.911V190.197ZM132.917 179.758C132.917 180.448 132.744 181.06 132.399 181.594C132.054 182.128 131.579 182.554 130.973 182.873C131.663 183.205 132.21 183.664 132.614 184.25C133.017 184.829 133.219 185.513 133.219 186.301C133.219 187.564 132.79 188.563 131.93 189.299C131.071 190.028 129.902 190.393 128.424 190.393C126.946 190.393 125.775 190.025 124.909 189.289C124.043 188.553 123.61 187.557 123.61 186.301C123.61 185.513 123.812 184.826 124.215 184.24C124.619 183.654 125.163 183.199 125.846 182.873C125.241 182.554 124.765 182.128 124.42 181.594C124.082 181.06 123.913 180.448 123.913 179.758C123.913 178.547 124.316 177.583 125.124 176.867C125.931 176.145 127.028 175.783 128.415 175.783C129.795 175.783 130.889 176.141 131.696 176.857C132.51 177.567 132.917 178.534 132.917 179.758ZM130.387 186.096C130.387 185.477 130.208 184.982 129.85 184.611C129.492 184.24 129.01 184.055 128.405 184.055C127.806 184.055 127.327 184.24 126.969 184.611C126.611 184.976 126.432 185.471 126.432 186.096C126.432 186.701 126.608 187.189 126.959 187.561C127.311 187.932 127.799 188.117 128.424 188.117C129.036 188.117 129.515 187.938 129.86 187.58C130.211 187.222 130.387 186.727 130.387 186.096ZM130.094 179.895C130.094 179.341 129.948 178.898 129.655 178.566C129.362 178.228 128.948 178.059 128.415 178.059C127.887 178.059 127.477 178.221 127.184 178.547C126.891 178.872 126.745 179.322 126.745 179.895C126.745 180.461 126.891 180.917 127.184 181.262C127.477 181.607 127.89 181.779 128.424 181.779C128.958 181.779 129.368 181.607 129.655 181.262C129.948 180.917 130.094 180.461 130.094 179.895ZM135.983 193.762L134.508 192.99L134.86 192.355C135.296 191.561 135.521 190.77 135.534 189.982V187.795H137.917L137.907 189.748C137.9 190.471 137.718 191.2 137.36 191.936C137.002 192.671 136.543 193.28 135.983 193.762ZM142.887 181.838H144.391C145.107 181.838 145.638 181.659 145.983 181.301C146.328 180.943 146.5 180.467 146.5 179.875C146.5 179.302 146.328 178.856 145.983 178.537C145.644 178.218 145.176 178.059 144.577 178.059C144.036 178.059 143.584 178.208 143.219 178.508C142.855 178.801 142.672 179.185 142.672 179.66H139.85C139.85 178.918 140.049 178.254 140.446 177.668C140.849 177.076 141.409 176.613 142.125 176.281C142.848 175.949 143.642 175.783 144.508 175.783C146.012 175.783 147.191 176.145 148.043 176.867C148.896 177.583 149.323 178.573 149.323 179.836C149.323 180.487 149.124 181.086 148.727 181.633C148.33 182.18 147.809 182.6 147.165 182.893C147.965 183.179 148.561 183.609 148.952 184.182C149.349 184.755 149.547 185.432 149.547 186.213C149.547 187.476 149.085 188.488 148.161 189.25C147.243 190.012 146.025 190.393 144.508 190.393C143.089 190.393 141.927 190.018 141.022 189.27C140.124 188.521 139.674 187.531 139.674 186.301H142.497C142.497 186.835 142.695 187.271 143.092 187.609C143.496 187.948 143.991 188.117 144.577 188.117C145.247 188.117 145.771 187.941 146.149 187.59C146.533 187.232 146.725 186.76 146.725 186.174C146.725 184.755 145.944 184.045 144.381 184.045H142.887V181.838ZM151.461 178.713C151.461 177.84 151.745 177.134 152.311 176.594C152.877 176.047 153.62 175.773 154.538 175.773C155.469 175.773 156.217 176.044 156.784 176.584C157.35 177.118 157.633 177.844 157.633 178.762V179.465C157.633 180.344 157.35 181.05 156.784 181.584C156.217 182.118 155.475 182.385 154.557 182.385C153.633 182.385 152.884 182.118 152.311 181.584C151.745 181.044 151.461 180.318 151.461 179.406V178.713ZM153.336 179.465C153.336 179.855 153.447 180.171 153.668 180.412C153.896 180.646 154.193 180.764 154.557 180.764C154.922 180.764 155.211 180.643 155.426 180.402C155.641 180.161 155.749 179.839 155.749 179.436V178.713C155.749 178.322 155.641 178.007 155.426 177.766C155.211 177.525 154.915 177.404 154.538 177.404C154.18 177.404 153.89 177.525 153.668 177.766C153.447 178 153.336 178.329 153.336 178.752V179.465ZM158.258 186.711C158.258 185.832 158.545 185.126 159.118 184.592C159.691 184.051 160.433 183.781 161.344 183.781C162.269 183.781 163.014 184.048 163.581 184.582C164.153 185.109 164.44 185.839 164.44 186.77V187.473C164.44 188.345 164.16 189.051 163.6 189.592C163.04 190.126 162.295 190.393 161.364 190.393C160.426 190.393 159.674 190.122 159.108 189.582C158.542 189.042 158.258 188.326 158.258 187.434V186.711ZM160.133 187.473C160.133 187.831 160.25 188.137 160.485 188.391C160.719 188.645 161.012 188.771 161.364 188.771C162.158 188.771 162.555 188.332 162.555 187.453V186.711C162.555 186.32 162.444 186.008 162.223 185.773C162.002 185.533 161.709 185.412 161.344 185.412C160.98 185.412 160.687 185.533 160.465 185.773C160.244 186.008 160.133 186.33 160.133 186.74V187.473ZM155.114 189.133L153.737 188.391L160.68 177.277L162.057 178.02L155.114 189.133Z" fill="#F3F3F3"/>
</svg>
