<svg width="32" height="32" viewBox="0 0 32 32" fill="none" xmlns="http://www.w3.org/2000/svg">
<path d="M27.75 24.75H6.25V5.25C6.25 5.1125 6.1375 5 6 5H4.25C4.1125 5 4 5.1125 4 5.25V26.75C4 26.8875 4.1125 27 4.25 27H27.75C27.8875 27 28 26.8875 28 26.75V25C28 24.8625 27.8875 24.75 27.75 24.75ZM8.5 22.75H25.25C25.3875 22.75 25.5 22.6375 25.5 22.5V8.875C25.5 8.65 25.2281 8.54062 25.0719 8.69687L18.5 15.2688L14.5813 11.3938C14.5343 11.3472 14.4708 11.3211 14.4047 11.3211C14.3386 11.3211 14.2751 11.3472 14.2281 11.3938L8.32187 17.3188C8.29893 17.3417 8.28077 17.369 8.26844 17.3991C8.2561 17.4291 8.24984 17.4613 8.25 17.4937V22.5C8.25 22.6375 8.3625 22.75 8.5 22.75Z" fill="white"/>
</svg>
