<svg width="113" height="90" viewBox="0 0 113 90" fill="none" xmlns="http://www.w3.org/2000/svg">
<g clip-path="url(#clip0_1666_12334)">
<path d="M85.3086 17.7475C85.3086 17.7475 92.5261 5.48155 98.0953 9.79863C103.665 14.1157 96.0133 21.7048 94.0702 23.8976L85.3086 17.7475Z" fill="#E1DBCD"/>
<path d="M95.8392 32.8404C95.8392 32.8404 100.801 36.5236 110.534 20.9856C120.267 5.46465 96.672 0.308142 88.6044 0.54798C78.9233 0.839211 74.9502 17.5079 74.9502 17.5079L81.2481 19.2553C81.2481 19.2553 91.5712 1.69577 100.315 7.469C109.06 13.2422 97.7997 24.2576 94.9717 27.444L95.8392 32.8404Z" fill="#E1DBCD"/>
<path d="M26.684 17.1324C26.684 17.1324 19.9697 5.72297 14.7822 9.73168C9.59461 13.7404 16.7253 20.7985 18.5297 22.8542L26.684 17.1324Z" fill="#E1DBCD"/>
<path d="M17.8864 26.8988C15.0584 23.7295 3.79843 12.7141 12.5427 6.94085C21.2869 1.16762 31.6099 18.7271 31.6099 18.7271L37.9079 16.9798C37.9079 16.9798 33.9348 0.311057 24.2537 0.0198255C16.1687 -0.237143 -7.40944 4.91936 2.30636 20.4403C12.0395 35.9783 17.0015 32.2951 17.0015 32.2951L17.8864 26.8988Z" fill="#E1DBCD"/>
<path d="M47.3815 43.4616C47.5029 45.2947 48.2142 50.1771 48.2663 52.6097C44.0503 53.6547 39.9905 56.8411 38.3596 60.0789C33.0506 61.4837 27.811 64.4303 27.811 69.0215C27.811 74.8118 33.3456 77.9126 40.8233 77.9126C41.8469 77.9126 45.0566 77.8954 46.0108 77.7241C46.0108 78.0667 46.0108 78.4094 46.0455 78.8034C46.7395 85.0563 52.569 86.5125 55.8134 86.5125C59.0578 86.5125 65.8588 86.1356 66.5528 79.8827C66.6049 79.4373 66.5528 78.0325 66.5528 77.2616C67.7326 77.5185 73.0589 77.9468 74.3428 77.9126C81.8552 77.6727 86.0018 74.3493 86.0018 68.5589C86.0018 63.7279 81.2133 60.9184 74.5684 60.6957C73.8917 55.9332 69.4849 53.6547 63.5687 52.2157C63.6034 49.8687 63.4125 45.2261 63.534 43.4445C64.4709 29.5168 76.1472 20.0432 87.1469 18.3643C83.434 14.9895 79.1313 12.8823 74.898 11.5632C73.7703 11.2549 72.6426 10.9808 71.5495 10.7752L66.1885 24.0005L64.9567 9.83297C63.7769 9.73019 62.6839 9.67879 61.6949 9.64453L57.2014 24.0005L50.9208 9.64453C49.8798 9.67879 48.6827 9.74732 47.3641 9.88437V22.0647L41.3264 10.878C36.3644 11.9915 30.5176 13.9787 24.2891 17.5934C35.2887 19.2723 46.4272 29.5339 47.3815 43.4616ZM55.796 54.083C61.7296 54.083 66.5355 58.0061 66.5355 62.8542C66.5355 66.6059 60.0988 69.8095 57.2014 71.0601C57.1493 71.0772 57.0799 71.0943 57.0279 71.1115C57.132 73.1501 57.8086 74.5377 59.0578 75.1544C61.6429 76.405 65.9282 74.3664 65.9803 74.3493L66.6569 75.3258C66.5008 75.3943 63.8116 76.6791 61.0877 76.6791C60.1508 76.6791 59.2313 76.5249 58.3985 76.1309C57.4616 75.6855 56.7676 74.966 56.3165 73.9895C55.8481 74.9489 55.1714 75.6684 54.2346 76.1309C53.4018 76.5249 52.4649 76.6791 51.5454 76.6791C48.8388 76.6791 46.1323 75.3943 45.9761 75.3258L46.6528 74.3493C46.6875 74.3664 50.9902 76.405 53.5753 75.1544C54.7898 74.5548 55.449 73.2529 55.5878 71.317C55.1888 71.2828 54.7898 71.2143 54.4081 71.0429C51.4933 69.7924 45.0739 66.5888 45.0739 62.8371C45.0566 58.0232 49.8625 54.083 55.796 54.083Z" fill="#E1DBCD"/>
<path d="M104.774 35.4775C104.774 35.4775 104.757 35.4775 104.774 35.4775C104.983 35.923 105.208 36.3855 105.434 36.8138C105.208 36.3684 105 35.923 104.774 35.4775Z" fill="#E1DBCD"/>
<path d="M47.3464 9.78223C47.2943 9.78223 47.2249 9.79936 47.1729 9.79936C47.2249 9.79936 47.277 9.79936 47.3464 9.78223Z" fill="#E1DBCD"/>
<path d="M41.2572 10.5693C41.2225 10.5693 41.1878 10.5865 41.1357 10.5865C41.1878 10.5865 41.2225 10.5693 41.2572 10.5693Z" fill="#E1DBCD"/>
<path d="M7.44336 36.2339C7.44336 36.2339 7.44336 36.2148 7.46243 36.2148C7.44336 36.2148 7.44336 36.2148 7.44336 36.2339Z" fill="#E1DBCD"/>
<path d="M108.4 44.0097C96.6546 45.1575 81.5257 46.3396 87.2511 44.1468C92.1784 42.2623 99.3091 38.4935 104.757 35.4784C104.167 34.2963 103.56 33.1142 102.866 31.8808L91.6926 19.8033C78.5589 21.5335 66.6397 30.0135 65.5293 44.2838C65.3905 46.0997 65.4946 48.481 65.4426 50.8965C70.5434 52.4383 74.6032 55.1964 76.7025 58.6227C83.5383 59.8733 88.587 64.019 88.587 68.9528C88.587 74.8802 81.3522 79.677 72.4519 79.677C70.9077 79.677 69.433 79.5057 68.0103 79.2487C68.0103 79.6427 68.0103 80.0539 67.9583 80.4993C67.1255 86.9064 60.1683 88.3968 56.2993 88.3968C52.4304 88.3968 45.4731 86.8892 44.6404 80.4993C44.5883 80.1053 44.5883 79.7455 44.5883 79.3857C43.4432 79.5571 42.2461 79.677 41.0143 79.677C32.0966 79.677 24.8791 74.8802 24.8791 68.9528C24.8791 64.2417 29.4421 60.2673 35.7747 58.8111C37.7352 55.4705 41.5174 52.7467 46.3233 51.1363C46.2712 48.6352 46.3753 46.1511 46.2365 44.2667C45.1088 29.9964 33.2069 21.4993 20.0732 19.7861L9.73285 31.8637C8.90007 33.3369 8.13668 34.776 7.4427 36.1807C12.6823 39.0588 19.0843 42.3822 23.6299 44.1125C29.0951 46.2025 15.597 45.226 4.14626 44.1468C2.42865 49.3718 1.85611 53.9801 2.3766 58.0059L19.1711 55.1622L10.5309 71.3512C12.1445 72.4818 13.9488 73.5097 15.9787 74.3834C21.4439 76.7304 26.8223 79.283 31.8016 82.5036C36.7116 85.6729 44.6924 89.0992 56.2646 89.0992C67.8369 89.0992 75.8177 85.6729 80.7276 82.5036C85.707 79.283 91.0854 76.7304 96.5505 74.3834C98.0773 73.7324 99.4479 72.9787 100.732 72.1735L91.6579 55.1622L110.118 58.2972C110.743 54.1857 110.205 49.4232 108.4 44.0097ZM78.8018 40.789C78.8018 39.5556 77.7955 38.562 76.5464 38.562C75.2972 38.562 74.2909 39.5556 74.2909 40.789H72.3825C72.3825 38.5106 74.2389 36.6775 76.5464 36.6775C78.8539 36.6775 80.7103 38.5106 80.7103 40.789H78.8018ZM36.0523 36.6775C38.3598 36.6775 40.2162 38.5106 40.2162 40.789H38.3077C38.3077 39.5556 37.3015 38.562 36.0523 38.562C34.8031 38.562 33.7968 39.5556 33.7968 40.789H31.8884C31.8884 38.5277 33.7448 36.6775 36.0523 36.6775Z" fill="#E1DBCD"/>
<path d="M50.887 9.62695C49.8287 9.62695 48.6315 9.69548 47.3477 9.78114V9.79827C48.6315 9.69548 49.8287 9.64408 50.887 9.62695Z" fill="#E1DBCD"/>
<path d="M10.5485 71.3675C10.4791 71.3161 10.427 71.2647 10.375 71.2305C10.4444 71.2647 10.4964 71.3161 10.5485 71.3675Z" fill="#E1DBCD"/>
</g>
<defs>
<clipPath id="clip0_1666_12334">
<rect width="112.86" height="89.0996" fill="white"/>
</clipPath>
</defs>
</svg>
