<svg width="14" height="17" viewBox="0 0 14 17" fill="none" xmlns="http://www.w3.org/2000/svg">
<path d="M12.6344 3.42C13.8219 5.46 13.8812 7.98 12.8125 10.08C12.5156 10.62 12.1594 11.1 11.7438 11.58L7.23125 16.56C7.23125 16.56 7.23125 16.56 7.17187 16.62C6.93437 16.86 6.57812 16.8 6.34062 16.56L1.82813 11.58C1.4125 11.1 1.05625 10.62 0.759375 10.08C-0.309375 7.98 -0.25 5.46 0.9375 3.42C2.00625 1.44 4.025 0.18 6.28125 0C6.6375 0 6.99375 0 7.35 0C9.54688 0.18 11.5063 1.44 12.6344 3.42ZM11.6844 9.6C12.575 7.86 12.5156 5.76 11.5656 4.02C10.675 2.4 9.0125 1.32 7.23125 1.2C6.93437 1.2 6.6375 1.2 6.34062 1.2C4.5 1.32 2.8375 2.4 2.00625 4.02C1.05625 5.76 0.996875 7.8 1.8875 9.6C2.125 10.02 2.42187 10.44 2.77812 10.8L6.81562 15.3L10.8531 10.8C11.15 10.44 11.4469 10.02 11.6844 9.6Z" fill="#E2B71F"/>
<path d="M11.5759 4.01892C12.5395 5.79594 12.5998 7.87934 11.6963 9.71764C11.4554 10.2079 11.1542 10.6368 10.7929 11.0045L6.69727 15.6002L2.60166 10.9432C2.24028 10.5755 1.93914 10.1466 1.69822 9.71764C0.794775 7.94062 0.855004 5.79594 1.81868 4.01892C2.72212 2.36445 4.40855 1.32275 6.27566 1.2002C6.57681 1.2002 6.87795 1.2002 7.1791 1.2002C9.04622 1.32275 10.6724 2.36445 11.5759 4.01892Z" fill="#E2B71F"/>
<path d="M9.0811 9.21072V9.14508L9.01615 9.0138V8.94816L8.95119 8.75125L8.82128 8.61997L8.62642 8.48869L8.49651 8.35741L8.3666 8.22614L8.17173 8.02922L8.10678 7.89794L7.97687 7.76667L7.84696 7.50411L7.78201 7.37283L7.71705 7.24156L7.58714 7.04464L7.52219 6.91336L7.39228 6.78209L7.32732 6.71645L7.19741 6.65081L7.0675 6.58517L6.87264 6.51953H6.74273H6.54786H6.353L6.09318 6.58517L5.89831 6.78209L5.70345 6.91336L5.63849 7.11028L5.50858 7.24156L5.37867 7.50411L5.24876 7.76667L5.11885 7.96358L4.98895 8.1605L4.46931 8.61997V8.68561L4.3394 8.81688L4.20949 9.0138V9.21072L4.14453 9.40763V9.67019V9.80146L4.20949 10.064L4.3394 10.2609L4.46931 10.3922L4.59922 10.5235L4.72913 10.6548L4.98895 10.7204L5.11885 10.786H5.37867L5.57354 10.7204L5.7684 10.6548L5.83336 10.5891L5.96327 10.5235L6.09318 10.4579L6.15813 10.3922L6.28804 10.3266L6.41795 10.2609H6.54786H6.61282H6.80768H6.87264L7.0675 10.3922L7.26237 10.4579L7.45723 10.5891L7.58714 10.7204L7.78201 10.786H7.91192H8.04182H8.17173L8.30164 10.7204L8.49651 10.6548L8.69137 10.5235L8.82128 10.3922L8.95119 10.1953L9.0811 9.99838V9.80146L9.14606 9.67019V9.47327V9.40763L9.0811 9.21072Z" fill="white"/>
<path d="M8.50957 5.15395C8.5775 4.50502 8.25659 3.93876 7.7928 3.88919C7.32901 3.83961 6.89796 4.32548 6.83003 4.97442C6.7621 5.62335 7.08301 6.1896 7.5468 6.23918C8.01059 6.28876 8.44164 5.80289 8.50957 5.15395Z" fill="white"/>
<path d="M5.69514 6.25242C6.15893 6.20284 6.47984 5.63658 6.41191 4.98765C6.34398 4.33872 5.91294 3.85284 5.44914 3.90242C4.98535 3.952 4.66444 4.51825 4.73237 5.16719C4.8003 5.81612 5.23135 6.30199 5.69514 6.25242Z" fill="white"/>
<path d="M10.0208 7.09178C10.1612 6.45485 9.90597 5.85547 9.45076 5.75301C8.99555 5.65056 8.51273 6.08384 8.37235 6.72076C8.23197 7.35769 8.48719 7.95708 8.9424 8.05953C9.39761 8.16198 9.88043 7.72871 10.0208 7.09178Z" fill="white"/>
<path d="M4.3326 8.06632C4.78781 7.96387 5.04303 7.36448 4.90265 6.72756C4.76227 6.09063 4.27944 5.65735 3.82423 5.7598C3.36902 5.86226 3.1138 6.46164 3.25418 7.09857C3.39456 7.7355 3.87738 8.16877 4.3326 8.06632Z" fill="white"/>
</svg>
