<svg width="31" height="28" viewBox="0 0 31 28" fill="none" xmlns="http://www.w3.org/2000/svg">
<path d="M16.7953 6.99805C15.1478 6.99803 13.5412 7.46142 12.1987 8.32385C10.8561 9.18627 9.84426 10.4049 9.3036 11.8105L9.20673 12.0824L9.14989 12.2515H6.14031C5.23611 12.2515 4.36596 12.563 3.70734 13.1226C3.04871 13.6821 2.65123 14.4475 2.59598 15.2627L2.58952 15.4587V16.6254C2.59019 17.1374 2.8038 17.6304 3.18802 18.0069C3.57224 18.3833 4.09901 18.6156 4.66393 18.6577L4.84864 18.6647H6.94889L6.6376 19.346C6.42239 19.8182 6.41084 20.346 6.60523 20.8254C6.79962 21.3049 7.18584 21.7011 7.68773 21.936L7.86469 22.0107C8.06933 22.0866 8.28518 22.1349 8.50535 22.1542L8.72623 22.1647H11.0344C11.429 22.1645 11.8166 22.0711 12.1588 21.8936C12.501 21.7162 12.7858 21.4609 12.9849 21.1532L13.0779 20.9922L13.7741 19.6599L13.7043 19.6517C15.5126 19.8687 17.3429 19.8944 19.1564 19.7287L19.7984 19.6622L20.4894 20.9875C20.672 21.338 20.9612 21.6344 21.3233 21.842C21.6853 22.0496 22.1053 22.1599 22.5341 22.16H24.8643C25.2355 22.1602 25.601 22.0777 25.9286 21.9199C26.2561 21.7621 26.5355 21.5338 26.7421 21.2553C26.9487 20.9767 27.0762 20.6565 27.1132 20.3229C27.1502 19.9893 27.0956 19.6526 26.9542 19.3425L26.3949 18.1175C27.0141 17.7809 27.5262 17.3053 27.8816 16.737C28.2369 16.1686 28.4234 15.5269 28.4229 14.8742C28.4228 14.6628 28.3381 14.4585 28.1842 14.2991C28.0303 14.1398 27.8178 14.0361 27.5859 14.0074L27.4541 14.0004H25.0258L24.3838 12.0847C23.891 10.6134 22.8871 9.32442 21.5205 8.40836C20.1539 7.4923 18.4971 6.99782 16.7953 6.99805ZM8.04164 18.3065C9.03752 18.6682 10.0554 18.9657 11.0848 19.199L11.7939 19.3495L11.3264 20.2479C11.2948 20.308 11.2415 20.3566 11.1752 20.3855L11.1068 20.4077L11.0344 20.4147H8.72623C8.68057 20.4147 8.63544 20.4059 8.59381 20.389C8.55219 20.372 8.51501 20.3473 8.48474 20.3164C8.45447 20.2856 8.43179 20.2492 8.4182 20.2099C8.40461 20.1705 8.40041 20.129 8.40589 20.088L8.42785 20.0122L9.04527 18.6647H9.10081L8.56993 18.492L8.04164 18.3065ZM25.5463 18.3065L25.0426 18.4839L24.5414 18.6484L25.164 20.0075C25.1842 20.0519 25.1919 20.1001 25.1866 20.1478C25.1812 20.1955 25.1629 20.2413 25.1332 20.2811C25.1036 20.3209 25.0636 20.3535 25.0167 20.376C24.9697 20.3985 24.9174 20.4102 24.8643 20.41H22.5341L22.4605 20.403C22.4129 20.3931 22.3684 20.3736 22.3304 20.3459C22.2924 20.3182 22.2618 20.2831 22.2409 20.2432L21.7772 19.353L21.7204 19.3647C23.0267 19.1111 24.3067 18.7571 25.5463 18.3065ZM25.8072 16.329L25.6122 15.7469L26.2671 15.748L26.2348 15.8099C26.1237 16.0035 25.979 16.1785 25.8085 16.329H25.8072ZM8.56347 14.0004L7.58698 16.9147L4.84864 16.9159C4.77589 16.9158 4.70531 16.8935 4.64834 16.8526C4.59138 16.8117 4.55135 16.7547 4.53477 16.6907L4.52573 16.6242V15.4575C4.52618 15.0969 4.67456 14.7492 4.94221 14.4816C5.20987 14.214 5.5778 14.0455 5.97498 14.0085L6.14031 14.0015L8.56347 14.0004Z" fill="white"/>
</svg>
