<svg width="113" height="90" viewBox="0 0 113 90" fill="none" xmlns="http://www.w3.org/2000/svg">
<g clip-path="url(#clip0_1663_29708)">
<path d="M85.3086 17.7478C85.3086 17.7478 92.5261 5.48183 98.0953 9.7989C103.665 14.116 96.0133 21.7051 94.0702 23.8979L85.3086 17.7478Z" fill="white"/>
<path d="M95.8392 32.84C95.8392 32.84 100.801 36.5233 110.534 20.9852C120.267 5.46431 96.672 0.307807 88.6044 0.547644C78.9233 0.838875 74.9502 17.5076 74.9502 17.5076L81.2481 19.255C81.2481 19.255 91.5712 1.69544 100.315 7.46867C109.06 13.2419 97.7997 24.2573 94.9717 27.4437L95.8392 32.84Z" fill="white"/>
<path d="M26.684 17.1321C26.684 17.1321 19.9697 5.72266 14.7822 9.73138C9.59461 13.7401 16.7253 20.7982 18.5297 22.8539L26.684 17.1321Z" fill="white"/>
<path d="M17.8864 26.8989C15.0584 23.7296 3.79843 12.7142 12.5427 6.941C21.2869 1.16777 31.6099 18.7273 31.6099 18.7273L37.9079 16.9799C37.9079 16.9799 33.9348 0.311209 24.2537 0.0199781C16.1687 -0.236991 -7.40944 4.91952 2.30636 20.4404C12.0395 35.9785 17.0015 32.2952 17.0015 32.2952L17.8864 26.8989Z" fill="white"/>
<path d="M47.3815 43.4612C47.5029 45.2943 48.2142 50.1767 48.2663 52.6093C44.0503 53.6543 39.9905 56.8407 38.3596 60.0785C33.0506 61.4833 27.811 64.4299 27.811 69.0211C27.811 74.8114 33.3456 77.9122 40.8233 77.9122C41.8469 77.9122 45.0566 77.895 46.0108 77.7237C46.0108 78.0664 46.0108 78.409 46.0455 78.803C46.7395 85.0559 52.569 86.5121 55.8134 86.5121C59.0578 86.5121 65.8588 86.1352 66.5528 79.8823C66.6049 79.4369 66.5528 78.0321 66.5528 77.2612C67.7326 77.5182 73.0589 77.9464 74.3428 77.9122C81.8552 77.6723 86.0018 74.3489 86.0018 68.5585C86.0018 63.7275 81.2133 60.918 74.5684 60.6953C73.8917 55.9328 69.4849 53.6543 63.5687 52.2153C63.6034 49.8683 63.4125 45.2257 63.534 43.4441C64.4709 29.5164 76.1472 20.0428 87.1469 18.3639C83.434 14.9891 79.1313 12.8819 74.898 11.5628C73.7703 11.2545 72.6426 10.9804 71.5495 10.7748L66.1885 24.0001L64.9567 9.83258C63.7769 9.72979 62.6839 9.6784 61.6949 9.64413L57.2014 24.0001L50.9208 9.64413C49.8798 9.6784 48.6827 9.74692 47.3641 9.88397V22.0643L41.3264 10.8776C36.3644 11.9911 30.5176 13.9783 24.2891 17.593C35.2887 19.2719 46.4272 29.5335 47.3815 43.4612ZM55.796 54.0826C61.7296 54.0826 66.5355 58.0057 66.5355 62.8538C66.5355 66.6055 60.0988 69.8091 57.2014 71.0597C57.1493 71.0768 57.0799 71.0939 57.0279 71.1111C57.132 73.1497 57.8086 74.5373 59.0578 75.154C61.6429 76.4046 65.9282 74.366 65.9803 74.3489L66.6569 75.3254C66.5008 75.3939 63.8116 76.6787 61.0877 76.6787C60.1508 76.6787 59.2313 76.5245 58.3985 76.1305C57.4616 75.6851 56.7676 74.9656 56.3165 73.9891C55.8481 74.9485 55.1714 75.668 54.2346 76.1305C53.4018 76.5245 52.4649 76.6787 51.5454 76.6787C48.8388 76.6787 46.1323 75.3939 45.9761 75.3254L46.6528 74.3489C46.6875 74.366 50.9902 76.4046 53.5753 75.154C54.7898 74.5544 55.449 73.2525 55.5878 71.3166C55.1888 71.2824 54.7898 71.2139 54.4081 71.0425C51.4933 69.792 45.0739 66.5884 45.0739 62.8367C45.0566 58.0228 49.8625 54.0826 55.796 54.0826Z" fill="white"/>
<path d="M104.774 35.4779C104.774 35.4779 104.757 35.4779 104.774 35.4779C104.983 35.9233 105.208 36.3858 105.434 36.8141C105.208 36.3687 105 35.9233 104.774 35.4779Z" fill="white"/>
<path d="M47.3464 9.78259C47.2943 9.78259 47.2249 9.79972 47.1729 9.79972C47.2249 9.79972 47.277 9.79972 47.3464 9.78259Z" fill="white"/>
<path d="M41.2572 10.5693C41.2225 10.5693 41.1878 10.5864 41.1357 10.5864C41.1878 10.5864 41.2225 10.5693 41.2572 10.5693Z" fill="white"/>
<path d="M7.44336 36.2337C7.44336 36.2337 7.44336 36.2146 7.46243 36.2146C7.44336 36.2146 7.44336 36.2146 7.44336 36.2337Z" fill="white"/>
<path d="M108.4 44.0101C96.6546 45.1578 81.5257 46.3399 87.2511 44.1471C92.1784 42.2627 99.3091 38.4938 104.757 35.4787C104.167 34.2966 103.56 33.1146 102.866 31.8811L91.6926 19.8036C78.5589 21.5339 66.6397 30.0138 65.5293 44.2842C65.3905 46.1001 65.4946 48.4813 65.4426 50.8968C70.5434 52.4386 74.6032 55.1968 76.7025 58.623C83.5383 59.8736 88.587 64.0193 88.587 68.9531C88.587 74.8806 81.3522 79.6773 72.4519 79.6773C70.9077 79.6773 69.433 79.506 68.0103 79.249C68.0103 79.643 68.0103 80.0542 67.9583 80.4996C67.1255 86.9067 60.1683 88.3971 56.2993 88.3971C52.4304 88.3971 45.4731 86.8896 44.6404 80.4996C44.5883 80.1056 44.5883 79.7458 44.5883 79.3861C43.4432 79.5574 42.2461 79.6773 41.0143 79.6773C32.0966 79.6773 24.8791 74.8806 24.8791 68.9531C24.8791 64.2421 29.4421 60.2676 35.7747 58.8115C37.7352 55.4709 41.5174 52.747 46.3233 51.1366C46.2712 48.6355 46.3753 46.1515 46.2365 44.267C45.1088 29.9967 33.2069 21.4996 20.0732 19.7865L9.73285 31.864C8.90007 33.3373 8.13668 34.7763 7.4427 36.1811C12.6823 39.0591 19.0843 42.3826 23.6299 44.1128C29.0951 46.2029 15.597 45.2264 4.14626 44.1471C2.42865 49.3721 1.85611 53.9804 2.3766 58.0063L19.1711 55.1625L10.5309 71.3515C12.1445 72.4822 13.9488 73.5101 15.9787 74.3837C21.4439 76.7307 26.8223 79.2833 31.8016 82.504C36.7116 85.6732 44.6924 89.0995 56.2646 89.0995C67.8369 89.0995 75.8177 85.6732 80.7276 82.504C85.707 79.2833 91.0854 76.7307 96.5505 74.3837C98.0773 73.7328 99.4479 72.979 100.732 72.1738L91.6579 55.1625L110.118 58.2975C110.743 54.186 110.205 49.4235 108.4 44.0101ZM78.8018 40.7894C78.8018 39.5559 77.7955 38.5623 76.5464 38.5623C75.2972 38.5623 74.2909 39.5559 74.2909 40.7894H72.3825C72.3825 38.5109 74.2389 36.6779 76.5464 36.6779C78.8539 36.6779 80.7103 38.5109 80.7103 40.7894H78.8018ZM36.0523 36.6779C38.3598 36.6779 40.2162 38.5109 40.2162 40.7894H38.3077C38.3077 39.5559 37.3015 38.5623 36.0523 38.5623C34.8031 38.5623 33.7968 39.5559 33.7968 40.7894H31.8884C31.8884 38.5281 33.7448 36.6779 36.0523 36.6779Z" fill="white"/>
<path d="M50.887 9.6268C49.8287 9.6268 48.6315 9.69533 47.3477 9.78098V9.79811C48.6315 9.69533 49.8287 9.64393 50.887 9.6268Z" fill="white"/>
<path d="M10.5485 71.3679C10.4791 71.3165 10.427 71.2651 10.375 71.2308C10.4444 71.2651 10.4964 71.3165 10.5485 71.3679Z" fill="white"/>
</g>
<defs>
<clipPath id="clip0_1663_29708">
<rect width="112.86" height="89.0996" fill="white"/>
</clipPath>
</defs>
</svg>
