<svg width="28" height="28" viewBox="0 0 28 28" fill="none" xmlns="http://www.w3.org/2000/svg">
<path d="M25.7198 16.2115L25.6588 16.0469C25.4673 15.5305 25.2304 14.8888 24.6234 14.5253C24.2006 14.2722 23.7089 14.1843 23.2754 14.107C23.0681 14.0742 22.8628 14.0297 22.6606 13.9737L22.5015 13.9177L22.4763 13.9093C20.7358 12.5116 17.2118 12.4735 15.0166 10.4967C11.8705 7.66534 9.34544 4.8183 6.50568 0.560059L2.95752 3.39926C2.71112 3.59638 2.24072 3.7543 2.24072 4.46382C2.24072 4.8183 2.60136 4.87262 3.0264 4.74102L5.02784 4.10878L10.6402 11.9174V16.1768C10.6402 17.1624 10.6239 18.0595 11.46 18.5691L9.35216 27.4401H10.7718L12.1057 23.2277L13.4402 21.1445V27.4401H15.1202V20.4356C15.1202 20.4356 15.1006 19.016 16.5202 19.016L17.9202 20.4356V27.4401H19.0402V21.8401L22.1291 27.4401H23.5487C22.8386 25.2001 21.8402 25.4033 21.8402 23.2742V21.8546C21.8402 20.3661 23.5202 19.0154 23.5202 17.5958V16.1773C23.5202 15.8402 23.4765 15.5417 23.3998 15.2718C23.6473 15.3222 23.8746 15.3833 24.0477 15.4874C24.3159 15.6481 24.4643 16.0491 24.6077 16.4366L24.6726 16.6113C24.7256 16.75 24.8314 16.862 24.9669 16.9227C25.1023 16.9834 25.2563 16.9878 25.395 16.935L25.3956 16.9345C25.4644 16.9083 25.5273 16.8689 25.5809 16.8184C25.6344 16.7679 25.6774 16.7073 25.7076 16.6402C25.7377 16.573 25.7543 16.5006 25.7564 16.4271C25.7585 16.3535 25.7461 16.2803 25.7198 16.2115Z" fill="white"/>
</svg>
