<svg width="28" height="28" viewBox="0 0 28 28" fill="none" xmlns="http://www.w3.org/2000/svg">
<path d="M9.65508 14C9.65576 11.9254 9.10706 9.88755 8.06477 8.09375L7.64805 7.36859C8.52157 7.16071 9.41165 7.02987 10.308 6.97758C11.5079 6.05336 13.2962 4.95688 15.3579 4.60797L16.625 4.375L15.8938 7.75797C18.1727 8.53125 20.183 10.1019 21.5135 11.1825C21.7709 10.967 22.0403 10.7565 22.3218 10.5509C24.4934 8.96492 26.839 8.8118 26.9374 8.80633L28 8.75L27.854 9.80602C27.8381 9.91539 27.4827 12.2522 26.1231 13.9907C27.4827 15.7298 27.8359 18.0649 27.854 18.1759L28 19.25L26.9374 19.1756C26.839 19.1702 24.4934 19.0176 22.3218 17.4311C22.0454 17.2295 21.78 17.0222 21.5255 16.8093C20.1928 17.8938 18.182 19.4671 15.9004 20.2404L16.625 23.625L15.3579 23.3942C13.3077 23.0475 11.5254 21.9505 10.3266 21.0252C9.41774 20.9726 8.51521 20.8403 7.62946 20.6298L8.06203 19.909C9.10553 18.1146 9.65517 16.0758 9.65508 14Z" fill="white"/>
<path d="M0.678867 12.1266C0.998789 11.5863 1.5834 10.7649 2.54863 9.92383C3.55343 9.0585 4.70062 8.37388 5.93926 7.90039L6.55012 8.96844C7.43691 10.4954 7.90441 12.2297 7.90527 13.9955C7.90614 15.7613 7.44033 17.496 6.55504 19.0238L5.91246 20.0941C4.68672 19.6263 3.55053 18.9513 2.55356 18.0985C0.817773 16.5957 0.00019455 14.7106 0.00019455 13.9997C0.00019455 13.3265 0.437695 12.5373 0.678867 12.1266ZM5.2502 13.9997C5.42326 13.9997 5.59243 13.9484 5.73632 13.8522C5.88021 13.7561 5.99237 13.6194 6.05859 13.4595C6.12482 13.2997 6.14215 13.1237 6.10838 12.954C6.07462 12.7843 5.99129 12.6283 5.86892 12.506C5.74655 12.3836 5.59064 12.3003 5.4209 12.2665C5.25117 12.2327 5.07523 12.2501 4.91535 12.3163C4.75546 12.3825 4.61881 12.4947 4.52266 12.6386C4.42651 12.7825 4.3752 12.9516 4.3752 13.1247C4.3752 13.3568 4.46738 13.5793 4.63148 13.7434C4.79557 13.9075 5.01813 13.9997 5.2502 13.9997Z" fill="white"/>
</svg>
