<svg width="28" height="28" viewBox="0 0 28 28" fill="none" xmlns="http://www.w3.org/2000/svg">
<path fill-rule="evenodd" clip-rule="evenodd" d="M11.083 24.5H16.6247V25.6667H11.083V24.5Z" fill="white"/>
<path fill-rule="evenodd" clip-rule="evenodd" d="M14.5833 22.167C14.738 22.167 14.8864 22.2284 14.9958 22.3378C15.1052 22.4472 15.1667 22.5956 15.1667 22.7503V25.0837C15.1667 25.2384 15.1052 25.3867 14.9958 25.4961C14.8864 25.6055 14.738 25.667 14.5833 25.667C14.4286 25.667 14.2803 25.6055 14.1709 25.4961C14.0615 25.3867 14 25.2384 14 25.0837V22.7503C14 22.5956 14.0615 22.4472 14.1709 22.3378C14.2803 22.2284 14.4286 22.167 14.5833 22.167Z" fill="white"/>
<path fill-rule="evenodd" clip-rule="evenodd" d="M14.1162 23.3335C16.4822 23.3335 18.637 22.4444 20.2604 20.9855C19.2872 21.3821 18.2459 21.5852 17.195 21.5835C12.8742 21.5835 9.33282 18.2095 9.33282 14.0001C9.33282 13.8454 9.39428 13.697 9.50368 13.5876C9.61307 13.4782 9.76145 13.4168 9.91616 13.4168C10.0709 13.4168 10.2192 13.4782 10.3286 13.5876C10.438 13.697 10.4995 13.8454 10.4995 14.0001C10.4995 17.5229 13.4757 20.4168 17.195 20.4168C19.2512 20.4168 21.0858 19.5295 22.312 18.1389C22.3499 18.0951 22.3937 18.059 22.4403 18.0298C22.732 17.394 22.9519 16.7184 23.0896 16.0144C23.3048 14.9107 23.6227 13.807 24.3017 12.911C24.5835 12.5394 24.2667 12.015 23.8071 12.0909L16.1567 13.3526C15.5603 13.451 14.9481 13.3617 14.4046 13.097C13.8612 12.8323 13.4135 12.4053 13.1233 11.875L10.461 7.01003C10.1958 6.52639 9.76308 6.15625 9.2442 5.96915C8.72531 5.78205 8.15597 5.79087 7.64313 5.99396C7.13029 6.19704 6.70927 6.58041 6.45917 7.07204C6.20906 7.56366 6.1471 8.12969 6.28491 8.66378L6.48791 9.4472C6.69637 10.252 6.69296 11.097 6.47799 11.9001L6.03407 13.558C5.51957 15.4789 5.37199 17.5899 6.47157 19.2472C7.30913 20.5069 8.44577 21.5394 9.77989 22.2525C11.114 22.9656 12.604 23.3369 14.1167 23.3335H14.1162ZM8.16616 8.16678C8.32087 8.16678 8.46924 8.10532 8.57864 7.99593C8.68803 7.88653 8.74949 7.73816 8.74949 7.58345C8.74949 7.42874 8.68803 7.28037 8.57864 7.17097C8.46924 7.06157 8.32087 7.00012 8.16616 7.00012C8.01145 7.00012 7.86307 7.06157 7.75368 7.17097C7.64428 7.28037 7.58282 7.42874 7.58282 7.58345C7.58282 7.73816 7.64428 7.88653 7.75368 7.99593C7.86307 8.10532 8.01145 8.16678 8.16616 8.16678Z" fill="white"/>
<path fill-rule="evenodd" clip-rule="evenodd" d="M8.79989 3.50037C9.53489 2.76537 10.7914 3.2857 10.7914 4.3252V5.25037H11.5906C12.6633 5.25037 13.1673 6.57629 12.3652 7.28912L10.8871 8.60279C10.7709 8.70213 10.6204 8.75194 10.468 8.74149C10.3155 8.73104 10.1732 8.66118 10.0717 8.54692C9.97024 8.43266 9.91764 8.28314 9.92524 8.1305C9.93284 7.97787 10 7.83431 10.1124 7.7307L11.5906 6.41704H10.7914C10.482 6.41704 10.1852 6.29412 9.96643 6.07533C9.74764 5.85654 9.62472 5.55979 9.62472 5.25037V4.3252L4.61622 9.3337H6.70805C6.86276 9.3337 7.01113 9.39516 7.12053 9.50456C7.22993 9.61395 7.29139 9.76233 7.29139 9.91704C7.29139 10.0717 7.22993 10.2201 7.12053 10.3295C7.01113 10.4389 6.86276 10.5004 6.70805 10.5004H4.61622C3.57672 10.5004 3.05639 9.24387 3.79139 8.50887L8.79989 3.50037Z" fill="white"/>
</svg>
