<svg width="135" height="135" viewBox="0 0 135 135" fill="none" xmlns="http://www.w3.org/2000/svg">
<circle cx="67.5" cy="67.5" r="67.5" fill="#1D2430"/>
<path d="M135 67.5C135 54.887 131.466 42.5263 124.799 31.8195C118.132 21.1127 108.598 12.4881 97.2786 6.92374C85.9594 1.35933 73.3075 -0.922292 60.7576 0.337581C48.2077 1.59745 36.2619 6.34842 26.2746 14.0518L67.5 67.5H135Z" fill="#4593A5"/>
<path d="M81.1487 49C81.1487 48.2133 81.2353 47.5133 81.4087 46.9C81.5953 46.2867 81.9153 45.7333 82.3687 45.24C82.822 44.7467 83.462 44.2667 84.2887 43.8C85.022 43.4133 85.6353 43.0867 86.1287 42.82C86.622 42.5533 86.9953 42.3 87.2487 42.06C87.5153 41.8067 87.6487 41.5133 87.6487 41.18C87.6487 40.78 87.4887 40.44 87.1687 40.16C86.8487 39.8667 86.3953 39.72 85.8087 39.72C85.1687 39.72 84.6153 39.8733 84.1487 40.18C83.6953 40.4867 83.302 40.84 82.9687 41.24L81.2687 39.28C81.5087 39.0267 81.8687 38.7533 82.3487 38.46C82.8287 38.1667 83.402 37.9133 84.0687 37.7C84.7353 37.4867 85.4687 37.38 86.2687 37.38C87.6287 37.38 88.682 37.7 89.4287 38.34C90.1887 38.9667 90.5687 39.78 90.5687 40.78C90.5687 41.4067 90.422 41.94 90.1287 42.38C89.8487 42.8067 89.4953 43.1733 89.0687 43.48C88.6553 43.7733 88.2553 44.0333 87.8687 44.26C87.0153 44.6867 86.342 45.06 85.8487 45.38C85.3687 45.7 84.982 46.1 84.6887 46.58H90.7887V49H81.1487ZM98.6977 39.78H92.2377V37.34H102.918L95.8777 51.54H92.8377L98.6977 39.78ZM106.889 40.66C106.275 40.66 105.715 40.5267 105.209 40.26C104.715 39.98 104.322 39.6133 104.029 39.16C103.735 38.6933 103.589 38.18 103.589 37.62C103.589 37.06 103.735 36.5533 104.029 36.1C104.322 35.6467 104.715 35.2867 105.209 35.02C105.715 34.74 106.275 34.6 106.889 34.6C107.502 34.6 108.055 34.74 108.549 35.02C109.055 35.2867 109.455 35.6467 109.749 36.1C110.042 36.5533 110.189 37.06 110.189 37.62C110.189 38.18 110.042 38.6933 109.749 39.16C109.455 39.6133 109.055 39.98 108.549 40.26C108.055 40.5267 107.502 40.66 106.889 40.66ZM104.729 48.06L110.349 41.48L115.549 34.64L116.769 35.72L111.289 42.2L105.929 49.14L104.729 48.06ZM106.889 39.32C107.275 39.32 107.609 39.1533 107.889 38.82C108.169 38.4733 108.309 38.0733 108.309 37.62C108.309 37.1667 108.169 36.7733 107.889 36.44C107.609 36.1067 107.275 35.94 106.889 35.94C106.502 35.94 106.169 36.1067 105.889 36.44C105.609 36.7733 105.469 37.1667 105.469 37.62C105.469 38.0867 105.609 38.4867 105.889 38.82C106.169 39.1533 106.502 39.32 106.889 39.32ZM114.609 49.2C113.995 49.2 113.442 49.0667 112.949 48.8C112.455 48.52 112.055 48.1533 111.749 47.7C111.455 47.2467 111.309 46.74 111.309 46.18C111.309 45.62 111.455 45.1133 111.749 44.66C112.055 44.1933 112.455 43.8267 112.949 43.56C113.442 43.28 113.995 43.14 114.609 43.14C115.222 43.14 115.775 43.28 116.269 43.56C116.775 43.8267 117.175 44.1933 117.469 44.66C117.762 45.1133 117.909 45.62 117.909 46.18C117.909 46.74 117.762 47.2467 117.469 47.7C117.175 48.1533 116.775 48.52 116.269 48.8C115.775 49.0667 115.222 49.2 114.609 49.2ZM114.609 47.86C115.009 47.86 115.342 47.6933 115.609 47.36C115.889 47.0267 116.029 46.6333 116.029 46.18C116.029 45.7133 115.889 45.3133 115.609 44.98C115.329 44.6467 114.995 44.48 114.609 44.48C114.222 44.48 113.889 44.6533 113.609 45C113.329 45.3333 113.189 45.7267 113.189 46.18C113.189 46.6333 113.329 47.0267 113.609 47.36C113.889 47.6933 114.222 47.86 114.609 47.86Z" fill="white"/>
<path d="M76.5724 95.936H68.8204V93.008H81.6364L73.1884 110.048H69.5404L76.5724 95.936ZM90.7456 101.336C91.7376 101.496 92.5376 101.976 93.1456 102.776C93.7696 103.56 94.0816 104.504 94.0816 105.608C94.0816 106.616 93.8256 107.488 93.3136 108.224C92.8016 108.96 92.0736 109.528 91.1296 109.928C90.2016 110.328 89.1056 110.528 87.8416 110.528C85.4096 110.528 83.5536 109.76 82.2736 108.224L84.0976 105.944C84.5136 106.472 85.0096 106.88 85.5856 107.168C86.1776 107.456 86.8976 107.6 87.7456 107.6C88.7216 107.6 89.4656 107.4 89.9776 107C90.4896 106.616 90.7456 106.032 90.7456 105.248C90.7456 104.416 90.4496 103.776 89.8576 103.328C89.2656 102.88 88.3696 102.656 87.1696 102.656H86.4976V100.256H87.2416C88.2176 100.256 88.9776 100.04 89.5216 99.608C90.0816 99.16 90.3616 98.592 90.3616 97.904C90.3616 97.264 90.1376 96.784 89.6896 96.464C89.2416 96.128 88.6576 95.96 87.9376 95.96C86.4496 95.96 85.3136 96.6 84.5296 97.88L82.5136 95.624C82.8496 95.144 83.3056 94.72 83.8816 94.352C84.4736 93.984 85.1456 93.696 85.8976 93.488C86.6656 93.28 87.4656 93.176 88.2976 93.176C89.3856 93.176 90.3376 93.352 91.1536 93.704C91.9856 94.056 92.6336 94.552 93.0976 95.192C93.5616 95.832 93.7936 96.576 93.7936 97.424C93.7936 98.064 93.6656 98.664 93.4096 99.224C93.1536 99.768 92.7936 100.232 92.3296 100.616C91.8816 100.984 91.3536 101.224 90.7456 101.336ZM99.7844 96.992C99.0484 96.992 98.3764 96.832 97.7684 96.512C97.1764 96.176 96.7044 95.736 96.3524 95.192C96.0004 94.632 95.8244 94.016 95.8244 93.344C95.8244 92.672 96.0004 92.064 96.3524 91.52C96.7044 90.976 97.1764 90.544 97.7684 90.224C98.3764 89.888 99.0484 89.72 99.7844 89.72C100.52 89.72 101.184 89.888 101.776 90.224C102.384 90.544 102.864 90.976 103.216 91.52C103.568 92.064 103.744 92.672 103.744 93.344C103.744 94.016 103.568 94.632 103.216 95.192C102.864 95.736 102.384 96.176 101.776 96.512C101.184 96.832 100.52 96.992 99.7844 96.992ZM97.1924 105.872L103.936 97.976L110.176 89.768L111.64 91.064L105.064 98.84L98.6324 107.168L97.1924 105.872ZM99.7844 95.384C100.248 95.384 100.648 95.184 100.984 94.784C101.32 94.368 101.488 93.888 101.488 93.344C101.488 92.8 101.32 92.328 100.984 91.928C100.648 91.528 100.248 91.328 99.7844 91.328C99.3204 91.328 98.9204 91.528 98.5844 91.928C98.2484 92.328 98.0804 92.8 98.0804 93.344C98.0804 93.904 98.2484 94.384 98.5844 94.784C98.9204 95.184 99.3204 95.384 99.7844 95.384ZM109.048 107.24C108.312 107.24 107.648 107.08 107.056 106.76C106.464 106.424 105.984 105.984 105.616 105.44C105.264 104.896 105.088 104.288 105.088 103.616C105.088 102.944 105.264 102.336 105.616 101.792C105.984 101.232 106.464 100.792 107.056 100.472C107.648 100.136 108.312 99.968 109.048 99.968C109.784 99.968 110.448 100.136 111.04 100.472C111.648 100.792 112.128 101.232 112.48 101.792C112.832 102.336 113.008 102.944 113.008 103.616C113.008 104.288 112.832 104.896 112.48 105.44C112.128 105.984 111.648 106.424 111.04 106.76C110.448 107.08 109.784 107.24 109.048 107.24ZM109.048 105.632C109.528 105.632 109.928 105.432 110.248 105.032C110.584 104.632 110.752 104.16 110.752 103.616C110.752 103.056 110.584 102.576 110.248 102.176C109.912 101.776 109.512 101.576 109.048 101.576C108.584 101.576 108.184 101.784 107.848 102.2C107.512 102.6 107.344 103.072 107.344 103.616C107.344 104.16 107.512 104.632 107.848 105.032C108.184 105.432 108.584 105.632 109.048 105.632Z" fill="white"/>
</svg>
