<svg width="135" height="135" fill="none" xmlns="http://www.w3.org/2000/svg"><circle cx="67.5" cy="67.5" r="67.5" fill="#1D2430"/><path d="M135 67.5A67.502 67.502 0 0 0 60.758.338a67.5 67.5 0 0 0-34.483 13.714L67.5 67.5H135z" fill="#4593A5"/><path d="M81.149 49c0-.787.086-1.487.26-2.1a4.266 4.266 0 0 1 .96-1.66c.453-.493 1.093-.973 1.92-1.44.733-.387 1.346-.713 1.84-.98.493-.267.866-.52 1.12-.76.266-.253.4-.547.4-.88 0-.4-.16-.74-.48-1.02-.32-.293-.774-.44-1.36-.44-.64 0-1.194.153-1.66.46a5.63 5.63 0 0 0-1.18 1.06l-1.7-1.96c.24-.253.6-.527 1.08-.82a7.934 7.934 0 0 1 1.72-.76 7.19 7.19 0 0 1 2.2-.32c1.36 0 2.413.32 3.16.96.76.627 1.14 1.44 1.14 2.44 0 .627-.147 1.16-.44 1.6-.28.427-.634.793-1.06 1.1a16.55 16.55 0 0 1-1.2.78c-.854.427-1.527.8-2.02 1.12-.48.32-.867.72-1.16 1.2h6.1V49h-9.64zm17.549-9.22h-6.46v-2.44h10.68l-7.04 14.2h-3.04l5.86-11.76zm8.191.88a3.547 3.547 0 0 1-1.68-.4 3.337 3.337 0 0 1-1.18-1.1 2.831 2.831 0 0 1-.44-1.54c0-.56.146-1.067.44-1.52a3.171 3.171 0 0 1 1.18-1.08 3.411 3.411 0 0 1 1.68-.42c.613 0 1.166.14 1.66.42.506.267.906.627 1.2 1.08.293.453.44.96.44 1.52a2.84 2.84 0 0 1-.44 1.54 3.31 3.31 0 0 1-1.2 1.1c-.494.267-1.047.4-1.66.4zm-2.16 7.4 5.62-6.58 5.2-6.84 1.22 1.08-5.48 6.48-5.36 6.94-1.2-1.08zm2.16-8.74c.386 0 .72-.167 1-.5.28-.347.42-.747.42-1.2 0-.453-.14-.847-.42-1.18-.28-.333-.614-.5-1-.5-.387 0-.72.167-1 .5-.28.333-.42.727-.42 1.18 0 .467.14.867.42 1.2.28.333.613.5 1 .5zm7.72 9.88a3.431 3.431 0 0 1-1.66-.4 3.514 3.514 0 0 1-1.2-1.1 2.733 2.733 0 0 1-.44-1.52c0-.56.146-1.067.44-1.52a3.27 3.27 0 0 1 1.2-1.1 3.3 3.3 0 0 1 1.66-.42c.613 0 1.166.14 1.66.42.506.267.906.633 1.2 1.1.293.453.44.96.44 1.52a2.74 2.74 0 0 1-.44 1.52 3.31 3.31 0 0 1-1.2 1.1c-.494.267-1.047.4-1.66.4zm0-1.34c.4 0 .733-.167 1-.5.28-.333.42-.727.42-1.18 0-.467-.14-.867-.42-1.2-.28-.333-.614-.5-1-.5-.387 0-.72.173-1 .52-.28.333-.42.727-.42 1.18 0 .453.14.847.42 1.18.28.333.613.5 1 .5zM76.572 95.936H68.82v-2.928h12.816l-8.448 17.04H69.54l7.032-14.112zm14.174 5.4c.992.16 1.792.64 2.4 1.44.624.784.936 1.728.936 2.832 0 1.008-.256 1.88-.768 2.616-.512.736-1.24 1.304-2.184 1.704-.928.4-2.024.6-3.288.6-2.432 0-4.288-.768-5.568-2.304l1.824-2.28c.416.528.912.936 1.488 1.224.592.288 1.312.432 2.16.432.976 0 1.72-.2 2.232-.6.512-.384.768-.968.768-1.752 0-.832-.296-1.472-.888-1.92-.592-.448-1.488-.672-2.688-.672h-.672v-2.4h.744c.976 0 1.736-.216 2.28-.648.56-.448.84-1.016.84-1.704 0-.64-.224-1.12-.672-1.44-.448-.336-1.032-.504-1.752-.504-1.488 0-2.624.64-3.408 1.92l-2.016-2.256c.336-.48.792-.904 1.368-1.272a7.666 7.666 0 0 1 2.016-.864 9.14 9.14 0 0 1 2.4-.312c1.088 0 2.04.176 2.856.528.832.352 1.48.848 1.944 1.488.464.64.696 1.384.696 2.232 0 .64-.128 1.24-.384 1.8a3.992 3.992 0 0 1-1.08 1.392 3.427 3.427 0 0 1-1.584.72zm9.038-4.344c-.736 0-1.408-.16-2.016-.48a4.014 4.014 0 0 1-1.416-1.32 3.404 3.404 0 0 1-.528-1.848c0-.672.176-1.28.528-1.824a3.814 3.814 0 0 1 1.416-1.296 4.098 4.098 0 0 1 2.016-.504c.736 0 1.4.168 1.992.504.608.32 1.088.752 1.44 1.296.352.544.528 1.152.528 1.824 0 .672-.176 1.288-.528 1.848a3.958 3.958 0 0 1-1.44 1.32c-.592.32-1.256.48-1.992.48zm-2.592 8.88 6.744-7.896 6.24-8.208 1.464 1.296-6.576 7.776-6.432 8.328-1.44-1.296zm2.592-10.488c.464 0 .864-.2 1.2-.6.336-.416.504-.896.504-1.44 0-.544-.168-1.016-.504-1.416-.336-.4-.736-.6-1.2-.6-.464 0-.864.2-1.2.6-.336.4-.504.872-.504 1.416 0 .56.168 1.04.504 1.44.336.4.736.6 1.2.6zm9.264 11.856c-.736 0-1.4-.16-1.992-.48a4.231 4.231 0 0 1-1.44-1.32 3.286 3.286 0 0 1-.528-1.824c0-.672.176-1.28.528-1.824.368-.56.848-1 1.44-1.32.592-.336 1.256-.504 1.992-.504s1.4.168 1.992.504a3.7 3.7 0 0 1 1.44 1.32c.352.544.528 1.152.528 1.824 0 .672-.176 1.28-.528 1.824a3.958 3.958 0 0 1-1.44 1.32c-.592.32-1.256.48-1.992.48zm0-1.608c.48 0 .88-.2 1.2-.6.336-.4.504-.872.504-1.416 0-.56-.168-1.04-.504-1.44-.336-.4-.736-.6-1.2-.6-.464 0-.864.208-1.2.624-.336.4-.504.872-.504 1.416 0 .544.168 1.016.504 1.416.336.4.736.6 1.2.6z" fill="#fff"/></svg>