<svg width="172" height="28" viewBox="0 0 172 28" fill="none" xmlns="http://www.w3.org/2000/svg">
<rect width="28" height="28" rx="14" fill="#5A980C"/>
<rect x="72" width="28" height="28" rx="14" fill="#C4C4C4"/>
<rect x="144" width="28" height="28" rx="14" fill="#C4C4C4"/>
<rect x="36" width="28" height="28" rx="14" fill="#5A980C"/>
<path d="M61 22.5V5.5C61 5.5 61.5 5.83333 62 7C62.272 7.63457 62.7466 8.24956 63 9C63.2124 9.62925 63.5 10 63.5 11C63.5 11.5 63.9195 11.9853 64 12.5C64.1113 13.2111 63.9033 13.9199 64 14.5C64.1667 15.5 63.8781 16.6721 63.5 18C63.212 19.0113 63.0197 19.5859 62.5 20.5C62.0175 21.3488 61 22.5 61 22.5Z" fill="#C4C4C4"/>
<rect x="108" width="28" height="28" rx="14" fill="#C4C4C4"/>
</svg>
