<svg width="34" height="34" viewBox="0 0 34 34" fill="none" xmlns="http://www.w3.org/2000/svg">
<path d="M29.265 13.2032C28.7459 9.62094 26.6124 7.14372 23.0435 5.72847C23.6518 5.40706 24.0449 5.24609 24.0449 5.24609C22.3258 4.64047 20.8335 4.28772 19.5415 4.12728C20.221 3.61569 20.6747 3.42125 20.6747 3.42125C10.1814 1.94119 5.00703 7.7775 4.68191 13.2111C2.62597 13.5718 1.0625 15.3584 1.0625 17.5148C1.0625 19.6488 2.59409 21.4216 4.61975 21.8073C4.85138 26.809 10.3041 30.8125 16.9995 30.8125C23.6959 30.8125 29.1486 26.809 29.3803 21.8073C31.4054 21.4211 32.9375 19.6478 32.9375 17.5148C32.9375 15.3409 31.3464 13.5421 29.265 13.2032ZM4.72866 20.2603C3.50147 19.9415 2.59144 18.8392 2.59144 17.5148C2.59144 16.2313 3.44834 15.1571 4.61869 14.8022C4.64472 15.9508 4.947 17.0489 5.47612 18.0609C5.11577 18.7514 4.86367 19.4932 4.72866 20.2603ZM23.6661 21.2096C24.3716 22.0894 24.7849 23.1168 24.7849 24.2192C24.7849 27.4502 21.2989 30.0682 16.9995 30.0682C12.7001 30.0682 9.21453 27.4502 9.21453 24.2192C9.21453 23.1168 9.62731 22.0894 10.3339 21.2096C7.91297 19.7444 6.36331 17.5015 6.36331 14.9839C6.36331 5.98772 16.9995 11.7188 16.9995 11.7188C16.9995 11.7188 27.6362 5.98825 27.6362 14.9839C27.6362 17.501 26.0865 19.7444 23.6661 21.2096ZM29.2713 20.2603C29.1361 19.4932 28.8842 18.7513 28.5244 18.0604C29.0535 17.0483 29.3553 15.9502 29.3813 14.8017C30.5517 15.1571 31.408 16.2307 31.408 17.5142C31.408 18.8392 30.4985 19.9415 29.2713 20.2603Z" fill="white"/>
<path d="M18.1396 21.6766C18.4334 21.6766 18.6709 21.1884 18.6709 20.5838C18.6709 19.9819 18.4334 19.49 18.1396 19.49C17.8453 19.49 17.6084 19.9819 17.6084 20.5838C17.6084 21.1884 17.8453 21.6766 18.1396 21.6766Z" fill="white"/>
<path d="M15.8594 21.6766C16.1532 21.6766 16.3906 21.1884 16.3906 20.5838C16.3906 19.9819 16.1532 19.49 15.8594 19.49C15.5651 19.49 15.3281 19.9819 15.3281 20.5838C15.3281 21.1884 15.5651 21.6766 15.8594 21.6766Z" fill="white"/>
<path d="M21.6123 19.2556C22.6392 19.2556 23.4717 18.1853 23.4717 16.865C23.4717 15.5447 22.6392 14.4744 21.6123 14.4744C20.5854 14.4744 19.7529 15.5447 19.7529 16.865C19.7529 18.1853 20.5854 19.2556 21.6123 19.2556Z" fill="white"/>
<path d="M12.3877 19.2556C13.4146 19.2556 14.2471 18.1853 14.2471 16.865C14.2471 15.5447 13.4146 14.4744 12.3877 14.4744C11.3608 14.4744 10.5283 15.5447 10.5283 16.865C10.5283 18.1853 11.3608 19.2556 12.3877 19.2556Z" fill="white"/>
<path d="M16.9992 24.1394C14.5081 24.1394 11.9741 23.4642 11.769 23.639C11.012 24.2839 13.333 27.3253 16.9992 27.3455C20.6648 27.3269 22.9874 24.2845 22.2288 23.639C22.0237 23.4648 19.4907 24.14 16.9992 24.1394Z" fill="white"/>
</svg>
