<svg width="106" height="95" viewBox="0 0 106 95" fill="none" xmlns="http://www.w3.org/2000/svg">
<path d="M12.4745 11.1271L7.59492 13.5567C7.43902 13.6319 7.26662 13.6663 7.09381 13.6569C6.92099 13.6474 6.75339 13.5943 6.60662 13.5026C6.45985 13.4109 6.33871 13.2835 6.25448 13.1323C6.17025 12.9811 6.12567 12.811 6.12492 12.638V7.77879C6.12492 7.02337 6.92117 6.53337 7.59492 6.86004L12.4541 9.28962C13.2095 9.67754 13.2095 10.7392 12.4745 11.1271V11.1271ZM36.7499 7.77879V12.638C36.7499 13.3934 37.5462 13.8834 38.2199 13.5567L43.0791 11.1271C43.8345 10.7596 43.8345 9.67754 43.0791 9.31004L38.2199 6.88045C38.0661 6.80129 37.8944 6.76305 37.7215 6.7694C37.5486 6.77574 37.3802 6.82647 37.2326 6.9167C37.0849 7.00692 36.963 7.13362 36.8785 7.28459C36.7939 7.43557 36.7497 7.60576 36.7499 7.77879V7.77879ZM22.4583 5.73712V10.5963C22.4583 11.3517 23.2545 11.8417 23.9283 11.515L28.7874 9.08545C29.5428 8.71795 29.5428 7.63587 28.7874 7.26837L23.9283 4.83879C23.7744 4.75963 23.6027 4.72138 23.4298 4.72773C23.2569 4.73408 23.0886 4.7848 22.9409 4.87503C22.7933 4.96526 22.6713 5.09195 22.5868 5.24293C22.5023 5.39391 22.458 5.56409 22.4583 5.73712V5.73712ZM10.2083 20.4984C13.0258 21.4988 17.9053 22.4584 24.4999 22.4584C31.0945 22.4584 35.9741 21.4988 38.7916 20.4984C38.7916 20.1309 33.1157 18.375 24.4999 18.375C15.8841 18.375 10.2083 20.1309 10.2083 20.4984V20.4984ZM28.5833 34.7084H20.4166C19.2937 34.7084 18.3749 35.6271 18.3749 36.75V44.6717C10.0858 43.8755 4.08325 41.5275 4.08325 38.7917V20.4167C4.08325 17.0275 13.2299 14.2917 24.4999 14.2917C35.7699 14.2917 44.9166 17.0275 44.9166 20.4167V38.7917C44.9166 41.5275 38.9141 43.855 30.6249 44.6513V36.75C30.6249 35.6271 29.7062 34.7084 28.5833 34.7084Z" fill="#5A980C"/>
<path d="M69.4745 11.1271L64.5949 13.5567C64.439 13.6319 64.2666 13.6663 64.0938 13.6569C63.921 13.6474 63.7534 13.5943 63.6066 13.5026C63.4599 13.4109 63.3387 13.2835 63.2545 13.1323C63.1702 12.9811 63.1257 12.811 63.1249 12.638V7.77879C63.1249 7.02337 63.9212 6.53337 64.5949 6.86004L69.4541 9.28962C70.2095 9.67754 70.2095 10.7392 69.4745 11.1271V11.1271ZM93.7499 7.77879V12.638C93.7499 13.3934 94.5462 13.8834 95.2199 13.5567L100.079 11.1271C100.834 10.7596 100.834 9.67754 100.079 9.31004L95.2199 6.88045C95.0661 6.80129 94.8944 6.76305 94.7215 6.7694C94.5486 6.77574 94.3802 6.82647 94.2326 6.9167C94.0849 7.00692 93.963 7.13362 93.8785 7.28459C93.7939 7.43557 93.7497 7.60576 93.7499 7.77879V7.77879ZM79.4583 5.73712V10.5963C79.4583 11.3517 80.2545 11.8417 80.9283 11.515L85.7874 9.08545C86.5428 8.71795 86.5428 7.63587 85.7874 7.26837L80.9283 4.83879C80.7744 4.75963 80.6027 4.72138 80.4298 4.72773C80.2569 4.73408 80.0886 4.7848 79.9409 4.87503C79.7933 4.96526 79.6713 5.09195 79.5868 5.24293C79.5023 5.39391 79.458 5.56409 79.4583 5.73712V5.73712ZM67.2083 20.4984C70.0258 21.4988 74.9053 22.4584 81.4999 22.4584C88.0945 22.4584 92.9741 21.4988 95.7916 20.4984C95.7916 20.1309 90.1157 18.375 81.4999 18.375C72.8841 18.375 67.2083 20.1309 67.2083 20.4984V20.4984ZM85.5833 34.7084H77.4166C76.2937 34.7084 75.3749 35.6271 75.3749 36.75V44.6717C67.0858 43.8755 61.0833 41.5275 61.0833 38.7917V20.4167C61.0833 17.0275 70.2299 14.2917 81.4999 14.2917C92.7699 14.2917 101.917 17.0275 101.917 20.4167V38.7917C101.917 41.5275 95.9141 43.855 87.6249 44.6513V36.75C87.6249 35.6271 86.7062 34.7084 85.5833 34.7084Z" fill="#5A980C"/>
<path d="M69.391 59.4001L64.5114 61.8297C64.3555 61.9048 64.1831 61.9393 64.0103 61.9298C63.8375 61.9204 63.6699 61.8673 63.5231 61.7756C63.3764 61.6838 63.2552 61.5564 63.171 61.4052C63.0867 61.254 63.0422 61.084 63.0414 60.9109V56.0517C63.0414 55.2963 63.8377 54.8063 64.5114 55.133L69.3706 57.5626C70.126 57.9505 70.126 59.0122 69.391 59.4001V59.4001ZM93.6664 56.0517V60.9109C93.6664 61.6663 94.4627 62.1563 95.1364 61.8297L99.9956 59.4001C100.751 59.0326 100.751 57.9505 99.9956 57.583L95.1364 55.1534C94.9826 55.0742 94.8109 55.036 94.638 55.0423C94.4651 55.0487 94.2967 55.0994 94.1491 55.1896C94.0014 55.2799 93.8795 55.4066 93.795 55.5575C93.7104 55.7085 93.6662 55.8787 93.6664 56.0517V56.0517ZM79.3748 54.0101V58.8692C79.3748 59.6247 80.171 60.1147 80.8448 59.788L85.7039 57.3584C86.4593 56.9909 86.4593 55.9088 85.7039 55.5413L80.8448 53.1117C80.6909 53.0326 80.5193 52.9943 80.3463 53.0007C80.1734 53.007 80.0051 53.0578 79.8574 53.148C79.7098 53.2382 79.5878 53.3649 79.5033 53.5159C79.4188 53.6669 79.3745 53.837 79.3748 54.0101V54.0101ZM67.1248 68.7713C69.9423 69.7717 74.8218 70.7313 81.4164 70.7313C88.011 70.7313 92.8906 69.7717 95.7081 68.7713C95.7081 68.4038 90.0323 66.648 81.4164 66.648C72.8006 66.648 67.1248 68.4038 67.1248 68.7713V68.7713ZM85.4998 82.9813H77.3331C76.2102 82.9813 75.2914 83.9001 75.2914 85.023V92.9447C67.0023 92.1484 60.9998 89.8005 60.9998 87.0647V68.6897C60.9998 65.3005 70.1464 62.5647 81.4164 62.5647C92.6864 62.5647 101.833 65.3005 101.833 68.6897V87.0647C101.833 89.8005 95.8306 92.128 87.5414 92.9242V85.023C87.5414 83.9001 86.6227 82.9813 85.4998 82.9813Z" fill="#E1DBCD"/>
<path d="M11.3912 59.4001L6.51167 61.8297C6.35577 61.9048 6.18337 61.9393 6.01055 61.9298C5.83774 61.9204 5.67013 61.8673 5.52337 61.7756C5.3766 61.6838 5.25546 61.5564 5.17122 61.4052C5.08699 61.254 5.04242 61.084 5.04167 60.9109V56.0517C5.04167 55.2963 5.83792 54.8063 6.51167 55.133L11.3708 57.5626C12.1262 57.9505 12.1262 59.0122 11.3912 59.4001V59.4001ZM35.6667 56.0517V60.9109C35.6667 61.6663 36.4629 62.1563 37.1367 61.8297L41.9958 59.4001C42.7512 59.0326 42.7512 57.9505 41.9958 57.583L37.1367 55.1534C36.9828 55.0742 36.8112 55.036 36.6383 55.0423C36.4653 55.0487 36.297 55.0994 36.1493 55.1896C36.0017 55.2799 35.8797 55.4066 35.7952 55.5575C35.7107 55.7085 35.6664 55.8787 35.6667 56.0517V56.0517ZM21.375 54.0101V58.8692C21.375 59.6247 22.1712 60.1147 22.845 59.788L27.7042 57.3584C28.4596 56.9909 28.4596 55.9088 27.7042 55.5413L22.845 53.1117C22.6911 53.0326 22.5195 52.9943 22.3466 53.0007C22.1737 53.007 22.0053 53.0578 21.8577 53.148C21.71 53.2382 21.5881 53.3649 21.5035 53.5159C21.419 53.6669 21.3747 53.837 21.375 54.0101V54.0101ZM9.125 68.7713C11.9425 69.7717 16.8221 70.7313 23.4167 70.7313C30.0112 70.7313 34.8908 69.7717 37.7083 68.7713C37.7083 68.4038 32.0325 66.648 23.4167 66.648C14.8008 66.648 9.125 68.4038 9.125 68.7713V68.7713ZM27.5 82.9813H19.3333C18.2104 82.9813 17.2917 83.9001 17.2917 85.023V92.9447C9.0025 92.1484 3 89.8005 3 87.0647V68.6897C3 65.3005 12.1467 62.5647 23.4167 62.5647C34.6867 62.5647 43.8333 65.3005 43.8333 68.6897V87.0647C43.8333 89.8005 37.8308 92.128 29.5417 92.9242V85.023C29.5417 83.9001 28.6229 82.9813 27.5 82.9813Z" fill="#E1DBCD"/>
<g clip-path="url(#clip0_1401_9098)">
<path d="M11.3912 59.4001L6.51167 61.8297C6.35577 61.9048 6.18337 61.9393 6.01055 61.9298C5.83774 61.9204 5.67013 61.8673 5.52337 61.7756C5.3766 61.6838 5.25546 61.5564 5.17122 61.4052C5.08699 61.254 5.04242 61.084 5.04167 60.9109V56.0517C5.04167 55.2963 5.83792 54.8063 6.51167 55.133L11.3708 57.5626C12.1262 57.9505 12.1262 59.0122 11.3912 59.4001V59.4001ZM35.6667 56.0517V60.9109C35.6667 61.6663 36.4629 62.1563 37.1367 61.8297L41.9958 59.4001C42.7512 59.0326 42.7512 57.9505 41.9958 57.583L37.1367 55.1534C36.9828 55.0742 36.8112 55.036 36.6383 55.0423C36.4653 55.0487 36.297 55.0994 36.1493 55.1896C36.0017 55.2799 35.8797 55.4066 35.7952 55.5575C35.7107 55.7085 35.6664 55.8787 35.6667 56.0517V56.0517ZM21.375 54.0101V58.8692C21.375 59.6247 22.1712 60.1147 22.845 59.788L27.7042 57.3584C28.4596 56.9909 28.4596 55.9088 27.7042 55.5413L22.845 53.1117C22.6911 53.0326 22.5195 52.9943 22.3466 53.0007C22.1737 53.007 22.0053 53.0578 21.8577 53.148C21.71 53.2382 21.5881 53.3649 21.5035 53.5159C21.419 53.6669 21.3747 53.837 21.375 54.0101V54.0101ZM9.125 68.7713C11.9425 69.7717 16.8221 70.7313 23.4167 70.7313C30.0112 70.7313 34.8908 69.7717 37.7083 68.7713C37.7083 68.4038 32.0325 66.648 23.4167 66.648C14.8008 66.648 9.125 68.4038 9.125 68.7713V68.7713ZM27.5 82.9813H19.3333C18.2104 82.9813 17.2917 83.9001 17.2917 85.023V92.9447C9.0025 92.1484 3 89.8005 3 87.0647V68.6897C3 65.3005 12.1467 62.5647 23.4167 62.5647C34.6867 62.5647 43.8333 65.3005 43.8333 68.6897V87.0647C43.8333 89.8005 37.8308 92.128 29.5417 92.9242V85.023C29.5417 83.9001 28.6229 82.9813 27.5 82.9813Z" fill="#5A980C"/>
</g>
<defs>
<clipPath id="clip0_1401_9098">
<rect width="8" height="42" fill="white" transform="translate(2 51)"/>
</clipPath>
</defs>
</svg>
