<svg width="130" height="130" viewBox="0 0 130 130" fill="none" xmlns="http://www.w3.org/2000/svg">
<path d="M48.5254 17.6025C43.4882 17.6025 36.4805 25.2986 36.4805 32.8749C36.4805 40.168 43.5243 43.4481 48.5254 43.4481C53.5264 43.4481 60.5702 40.168 60.5702 32.8749C60.5702 25.2986 53.5625 17.6025 48.5254 17.6025ZM54.9995 37.3168C53.3638 36.0386 51.9485 35.5382 50.7838 35.833C50.2614 36.0222 49.784 36.3133 49.381 36.6887C48.978 37.064 48.6577 37.5156 48.4398 38.0158L46.2043 37.1382C46.5629 36.3017 47.1012 35.5499 47.7829 34.9334C48.4646 34.3169 49.2739 33.8501 50.1562 33.5645C52.1015 33.0664 54.237 33.7102 56.5075 35.4818L54.9995 37.3168ZM48.5254 29.3505C46.3573 29.3505 41.2984 29.3505 41.2984 25.8261C41.2984 23.1817 44.6337 19.9521 48.5254 19.9521C52.4171 19.9521 55.7523 23.1817 55.7523 25.8261C55.7523 29.3505 50.6934 29.3505 48.5254 29.3505Z" fill="#E1DBCD"/>
<path d="M31.6699 22.4189C31.6859 22.7305 31.8281 23.0231 32.0653 23.2324C32.3025 23.4417 32.6152 23.5505 32.9346 23.5349C33.2541 23.5194 33.5541 23.3806 33.7687 23.1493C33.9833 22.918 34.0949 22.613 34.0789 22.3014V20.7178C33.1874 21.1549 32.374 21.7293 31.6699 22.4189Z" fill="#E1DBCD"/>
<path d="M19.6192 9.37801C19.6162 10.1359 19.8671 10.874 20.3336 11.4801C20.8002 12.0861 21.457 12.527 22.204 12.7356C23.5711 10.3437 24.7334 8.35124 25.6717 6.79111C25.1571 6.32552 24.5142 6.01672 23.8221 5.90264C23.13 5.78856 22.4187 5.87417 21.7758 6.14896C21.1329 6.42375 20.5863 6.87574 20.2031 7.4494C19.82 8.02305 19.617 8.69338 19.6192 9.37801Z" fill="#E1DBCD"/>
<path d="M48.526 22.3018C45.7424 22.3018 43.708 24.6196 43.708 25.8261C43.708 26.5839 45.4196 27.0009 48.526 27.0009C51.6323 27.0009 53.3439 26.5839 53.3439 25.8261C53.3439 24.6196 51.3095 22.3018 48.526 22.3018Z" fill="#E1DBCD"/>
<path d="M73.819 5.85449C72.9138 5.85788 72.043 6.1934 71.3799 6.79433C72.5205 8.6928 73.8166 10.9343 74.8476 12.7388C75.595 12.5301 76.2521 12.0889 76.7187 11.4823C77.1853 10.8758 77.4359 10.1372 77.4324 9.37888C77.4324 8.44416 77.0517 7.54771 76.3741 6.88676C75.6964 6.22581 74.7773 5.85449 73.819 5.85449Z" fill="#E1DBCD"/>
<path d="M76.0262 16.4452C77.737 16.1414 79.2889 15.2738 80.4222 13.9875C81.5556 12.7011 82.2016 11.0741 82.2522 9.3788C82.2522 5.57598 79.0952 1.15522 75.0252 1.15522C73.8156 1.09259 72.6097 1.33346 71.5226 1.85483C70.4356 2.37621 69.5038 3.16068 68.8161 4.13333C68.7232 4.2762 68.5998 4.39782 68.4543 4.48987C68.3088 4.58193 68.1446 4.64224 67.9729 4.66669C67.8012 4.69205 67.6259 4.68026 67.4594 4.63214C67.2928 4.58402 67.1392 4.50076 67.0094 4.38826C64.5932 2.30065 61.6429 0.889504 58.4713 0.304401C55.2996 -0.280702 52.0248 -0.0179655 48.9938 1.06476C48.6966 1.18345 48.3635 1.18345 48.0664 1.06476C45.0358 -0.0182751 41.7613 -0.281173 38.5899 0.30395C35.4186 0.889072 32.4688 2.3004 30.0532 4.38826C29.9237 4.50132 29.7701 4.58494 29.6035 4.63309C29.4369 4.68124 29.2614 4.69271 29.0896 4.66669C28.918 4.64224 28.7538 4.58193 28.6083 4.48987C28.4628 4.39782 28.3394 4.2762 28.2465 4.13333C27.5579 3.15927 26.6246 2.37392 25.5357 1.85248C24.4468 1.33103 23.239 1.09095 22.0277 1.15522C17.9577 1.15522 14.8008 5.57598 14.8008 9.3788C14.8513 11.0741 15.4973 12.7011 16.6307 13.9875C17.764 15.2738 19.316 16.1414 21.0268 16.4452C21.2089 16.4758 21.3814 16.5469 21.5308 16.6529C21.6803 16.7589 21.8027 16.8971 21.8887 17.0567C21.9746 17.2162 22.0217 17.393 22.0264 17.5732C22.0311 17.7533 21.9932 17.9322 21.9157 18.0958C16.7364 29.0097 18.5853 33.73 24.0838 39.0929C29.3016 44.1822 39.494 46.8137 44.9696 48.227C46.5764 48.6417 47.7544 48.946 48.5265 49.2244C49.2985 48.946 50.4765 48.637 52.0833 48.227C57.5589 46.8172 67.7513 44.1822 72.9692 39.0929C78.4677 33.73 80.3165 29.0097 75.1372 18.0958C75.0597 17.9322 75.0218 17.7533 75.0265 17.5732C75.0312 17.393 75.0783 17.2162 75.1643 17.0567C75.2502 16.8971 75.3727 16.7589 75.5221 16.6529C75.6716 16.5469 75.844 16.4758 76.0262 16.4452ZM28.1851 7.26417C27.107 9.03694 25.6556 11.5111 23.8911 14.6149C23.7867 14.7979 23.6341 14.9504 23.449 15.0566C23.2639 15.1627 23.0531 15.2187 22.8383 15.2187C22.8058 15.2187 22.7721 15.2187 22.7396 15.2187C21.1592 15.1383 19.6751 14.4533 18.6094 13.3123C17.5437 12.1713 16.9824 10.6664 17.0472 9.12418C17.1121 7.58198 17.7979 6.12696 18.9558 5.07492C20.1138 4.02287 21.6504 3.45868 23.2322 3.50482C24.1907 3.5072 25.1349 3.73221 25.9865 4.16122C26.8382 4.59024 27.5728 5.21092 28.1297 5.97189C28.2675 6.15837 28.3463 6.38021 28.3561 6.60992C28.366 6.83963 28.3065 7.06711 28.1851 7.26417ZM57.6264 8.40607C59.7958 9.79586 62.1247 10.933 64.5654 11.7942L63.8042 14.0263C61.1574 13.1053 58.6343 11.8762 56.2894 10.3656L57.6264 8.40607ZM61.7758 15.2528C61.7758 15.7175 61.6346 16.1718 61.3699 16.5582C61.1052 16.9445 60.7289 17.2457 60.2887 17.4235C59.8486 17.6014 59.3642 17.6479 58.8969 17.5572C58.4296 17.4666 58.0004 17.2428 57.6635 16.9142C57.3266 16.5856 57.0971 16.1669 57.0042 15.7112C56.9112 15.2554 56.9589 14.783 57.1413 14.3536C57.3236 13.9243 57.6324 13.5573 58.0285 13.2992C58.4247 13.041 58.8904 12.9032 59.3669 12.9032C60.0058 12.9032 60.6185 13.1507 61.0703 13.5914C61.522 14.032 61.7758 14.6296 61.7758 15.2528ZM39.4266 8.40137L40.7635 10.3562C38.4187 11.8668 35.8955 13.0959 33.2487 14.0169L32.4875 11.7848C34.928 10.9251 37.2569 9.78953 39.4266 8.40137ZM40.095 15.2528C40.095 15.7175 39.9538 16.1718 39.6891 16.5582C39.4244 16.9445 39.0481 17.2457 38.6079 17.4235C38.1678 17.6014 37.6834 17.6479 37.2161 17.5572C36.7488 17.4666 36.3196 17.2428 35.9827 16.9142C35.6458 16.5856 35.4163 16.1669 35.3234 15.7112C35.2304 15.2554 35.2781 14.783 35.4605 14.3536C35.6428 13.9243 35.9516 13.5573 36.3477 13.2992C36.7439 13.041 37.2096 12.9032 37.6861 12.9032C38.325 12.9032 38.9377 13.1507 39.3895 13.5914C39.8412 14.032 40.095 14.6296 40.095 15.2528ZM29.2546 22.3016C29.2546 20.9482 31.1072 19.4045 34.7604 17.7199C34.9437 17.635 35.146 17.5966 35.3485 17.6083C35.5511 17.6201 35.7473 17.6815 35.919 17.787C36.0907 17.8925 36.2323 18.0385 36.3306 18.2116C36.429 18.3847 36.4809 18.5793 36.4816 18.7772V22.3016C36.4816 23.2363 36.1009 24.1327 35.4232 24.7937C34.7456 25.4546 33.8265 25.826 32.8681 25.826C31.9098 25.826 30.9907 25.4546 30.313 24.7937C29.6354 24.1327 29.2546 23.2363 29.2546 22.3016ZM48.5265 45.7975C41.42 45.7975 34.0726 40.9644 34.0726 32.8747C34.0726 24.6394 41.7729 15.2528 48.5265 15.2528C55.28 15.2528 62.9803 24.6394 62.9803 32.8747C62.9803 40.9644 55.633 45.7975 48.5265 45.7975ZM74.3134 15.2105C74.2808 15.2105 74.2471 15.2105 74.2146 15.2105C73.9998 15.2104 73.7888 15.1542 73.6037 15.0478C73.4186 14.9415 73.2661 14.7887 73.1619 14.6055C71.9574 12.5002 70.2422 9.51508 68.8679 7.25594C68.7485 7.05993 68.6902 6.83426 68.7 6.60647C68.7098 6.37867 68.7874 6.15859 68.9233 5.97306C69.662 4.95696 70.7131 4.1966 71.9245 3.80209C73.1358 3.40759 74.4445 3.39944 75.6609 3.77882C76.8773 4.1582 77.9383 4.90542 78.6903 5.91223C79.4422 6.91905 79.846 8.13319 79.8432 9.3788C79.8489 10.8529 79.2815 12.2742 78.2553 13.3564C77.2291 14.4386 75.8205 15.1011 74.3134 15.2105Z" fill="#E1DBCD"/>
<path d="M85.7814 63.8433C82.8626 55.8422 79.6128 41.3735 76.5424 43.5954C66.7038 50.7148 48.8401 55.6972 48.8401 55.6972C48.8401 55.6972 31.5804 51.1694 24.2159 44.7478C21.6676 42.5256 16.7858 55.8762 13.776 63.8433C10.3251 72.9782 7.00629 78.1596 7.00629 87.9185C7.00629 91.4243 16.0044 88.3352 20.5223 95.4581C27.3216 106.178 36.4049 103.526 38.9904 115.627C40.719 123.717 40.9535 121.871 50.0864 121.871C59.2193 121.871 64.7785 124.676 73.4728 121.871C81.8512 119.168 88.0227 116.815 91.9357 108.907C95.5687 101.565 92.8722 96.0611 91.9357 87.9185C90.8266 78.2764 89.1065 72.9583 85.7814 63.8433Z" fill="#E1DBCD"/>
<path d="M2.85097 98.5514C3.92328 95.4533 4.82019 93.406 7.58727 91.5802C14.3462 87.1205 19.0874 98.5034 25.0894 103.579C29.8019 107.564 32.1939 106.484 35.1541 114.617C36.8595 119.303 38.6252 122.678 34.562 125.655C30.9984 128.266 31.3128 128.01 26.8656 127.978C20.6446 127.934 19.7611 125.655 14.4328 122.169C8.61684 118.365 4.38105 115.701 2.85097 109.008C1.93998 105.024 1.51265 102.418 2.85097 98.5514Z" fill="#E1DBCD" stroke="#C2A716" stroke-width="3"/>
<path d="M97.9342 99.8321C96.8619 96.8687 95.965 94.9104 93.1979 93.164C86.439 88.8982 81.6978 99.7862 75.6957 104.641C70.9832 108.453 68.5913 107.42 65.6311 115.199C63.9256 119.681 62.16 122.91 66.2231 125.757C69.7867 128.254 69.4724 128.01 73.9196 127.98C80.1405 127.937 81.024 125.757 86.3524 122.423C92.1683 118.784 96.4041 116.236 97.9342 109.834C98.8452 106.023 99.2725 103.531 97.9342 99.8321Z" fill="#E1DBCD" stroke="#C2A716" stroke-width="3"/>
<g clip-path="url(#clip0_1666_12393)">
<path d="M29.4696 117.534C28.9581 117.168 28.3375 116.975 27.7029 116.986C27.0684 116.997 26.455 117.21 25.9569 117.594C25.4588 117.977 25.1034 118.51 24.9453 119.109C24.7872 119.709 24.8351 120.342 25.0817 120.913L25.6693 122.272C25.7748 122.516 25.9367 122.733 26.1423 122.906C26.3479 123.079 26.5917 123.203 26.8547 123.269C27.1177 123.335 27.3927 123.341 27.6584 123.286C27.9241 123.231 28.1732 123.117 28.3863 122.953L30.7374 121.143C30.9505 120.979 31.1219 120.769 31.2382 120.53C31.3545 120.291 31.4125 120.028 31.4078 119.764C31.4031 119.499 31.3357 119.239 31.2109 119.003C31.0862 118.768 30.9074 118.564 30.6885 118.407L29.4696 117.534ZM30.7026 119.775C30.7061 119.934 30.6716 120.092 30.6017 120.236C30.5319 120.379 30.4288 120.505 30.3004 120.603L27.9493 122.413C27.8215 122.512 27.672 122.58 27.5126 122.613C27.3532 122.646 27.1882 122.642 27.0304 122.603C26.8726 122.563 26.7263 122.489 26.6029 122.385C26.4796 122.281 26.3824 122.151 26.3191 122.004L25.7315 120.645C25.5449 120.214 25.5087 119.734 25.6283 119.281C25.748 118.827 26.0169 118.424 26.3939 118.134C26.7708 117.844 27.235 117.682 27.7152 117.674C28.1954 117.666 28.6651 117.811 29.0522 118.089L30.2711 118.962C30.4029 119.055 30.5105 119.178 30.5854 119.319C30.6603 119.46 30.7005 119.616 30.7027 119.775L30.7026 119.775Z" fill="#C2A716"/>
<path d="M24.36 119.434C24.1705 119.103 23.8523 118.838 23.4637 118.687C23.075 118.537 22.657 118.516 22.2865 118.629C21.8897 118.75 21.5933 119.007 21.4517 119.354C21.1704 120.043 21.615 120.866 22.4431 121.187C22.8317 121.338 23.2497 121.359 23.6202 121.246C23.7852 121.197 23.9394 121.118 24.0754 121.015C24.2445 120.886 24.3755 120.715 24.455 120.52C24.5964 120.174 24.5627 119.788 24.36 119.434ZM23.7442 119.77C23.8414 119.939 23.8611 120.116 23.7997 120.266C23.7383 120.416 23.5997 120.531 23.4095 120.589C23.1931 120.655 22.9425 120.641 22.7039 120.548C22.2453 120.37 21.9718 119.94 22.1069 119.609C22.1414 119.526 22.1977 119.454 22.2701 119.399C22.338 119.348 22.4149 119.309 22.4971 119.285C22.7135 119.219 22.9641 119.234 23.2027 119.326C23.4412 119.419 23.6336 119.577 23.7442 119.77Z" fill="#C2A716"/>
<path d="M23.5143 118.27C23.8349 118.272 24.1239 118.179 24.3509 118.004C24.4189 117.952 24.4809 117.892 24.5359 117.827C25.0192 117.254 24.8525 116.339 24.1643 115.787C23.8413 115.527 23.4496 115.383 23.0614 115.381C22.6456 115.378 22.2828 115.536 22.0398 115.824C21.5566 116.396 21.7233 117.312 22.4114 117.864C22.7344 118.123 23.1261 118.267 23.5143 118.27ZM22.5844 116.261C22.6067 116.234 22.6318 116.21 22.6594 116.189C22.7623 116.11 22.8999 116.068 23.0571 116.069C23.2839 116.07 23.5179 116.159 23.7162 116.318C24.0976 116.624 24.2236 117.115 23.9914 117.39C23.8859 117.515 23.7181 117.583 23.5188 117.582C23.292 117.581 23.0579 117.492 22.8596 117.333C22.4782 117.027 22.3522 116.536 22.5844 116.261Z" fill="#C2A716"/>
<path d="M28.758 113.73C28.3796 113.783 28.0538 114.005 27.8409 114.353C27.642 114.678 27.5657 115.08 27.626 115.484C27.6863 115.887 27.8768 116.251 28.1625 116.507C28.4684 116.782 28.8453 116.903 29.2238 116.85C29.4364 116.819 29.637 116.735 29.8051 116.604C29.9398 116.499 30.0536 116.371 30.141 116.226C30.3398 115.901 30.4161 115.499 30.3558 115.096C30.2274 114.236 29.5106 113.623 28.758 113.73ZM29.658 115.195C29.695 115.443 29.6514 115.684 29.5353 115.874C29.4332 116.041 29.2865 116.146 29.1222 116.169C28.9579 116.192 28.7868 116.133 28.6401 116.001C28.4732 115.851 28.3609 115.632 28.324 115.384C28.287 115.137 28.3305 114.896 28.4467 114.706C28.4899 114.633 28.5462 114.569 28.613 114.517C28.6842 114.461 28.7693 114.424 28.8597 114.41C29.2212 114.359 29.5868 114.718 29.658 115.195Z" fill="#C2A716"/>
<path d="M26.5184 116.301C26.5963 116.264 26.6698 116.218 26.7378 116.166C26.9648 115.991 27.1248 115.739 27.1972 115.434C27.285 115.065 27.2323 114.66 27.0488 114.294C26.6578 113.513 25.7837 113.142 25.1002 113.467C24.7566 113.631 24.5155 113.939 24.4214 114.334C24.3336 114.703 24.3863 115.108 24.5698 115.474C24.9608 116.255 25.8349 116.626 26.5184 116.301ZM25.2036 115.172C25.0909 114.947 25.057 114.705 25.1084 114.489C25.144 114.34 25.218 114.219 25.3209 114.14C25.3484 114.119 25.3781 114.1 25.4096 114.085C25.7379 113.929 26.1984 114.163 26.415 114.595C26.5277 114.82 26.5615 115.063 26.5102 115.279C26.4652 115.468 26.3582 115.611 26.209 115.682C25.8807 115.839 25.4202 115.605 25.2036 115.172Z" fill="#C2A716"/>
</g>
<g clip-path="url(#clip1_1666_12393)">
<path d="M70.8628 117.755C71.4264 117.404 72.0923 117.243 72.7584 117.298C73.4245 117.352 74.054 117.618 74.5504 118.054C75.0467 118.491 75.3825 119.074 75.5061 119.715C75.6297 120.356 75.5344 121.018 75.2348 121.601L74.5209 122.99C74.3927 123.239 74.2072 123.456 73.9788 123.624C73.7504 123.792 73.4854 123.906 73.2043 123.958C72.9233 124.01 72.6338 123.997 72.3584 123.922C72.0831 123.846 71.8294 123.71 71.617 123.523L69.2744 121.462C69.062 121.275 68.8968 121.043 68.7915 120.784C68.6863 120.524 68.6439 120.245 68.6676 119.967C68.6914 119.689 68.7806 119.42 68.9284 119.181C69.0762 118.942 69.2786 118.74 69.5197 118.59L70.8628 117.755ZM69.4079 120.027C69.393 120.194 69.4181 120.362 69.4813 120.517C69.5445 120.673 69.644 120.812 69.7719 120.924L72.1145 122.985C72.2419 123.097 72.3942 123.179 72.5594 123.224C72.7246 123.27 72.8983 123.277 73.0669 123.246C73.2356 123.215 73.3946 123.147 73.5316 123.046C73.6687 122.945 73.78 122.815 73.8569 122.665L74.5708 121.276C74.7976 120.835 74.8697 120.334 74.7761 119.849C74.6825 119.364 74.4284 118.923 74.0528 118.592C73.6772 118.262 73.2008 118.061 72.6967 118.02C72.1926 117.979 71.6887 118.1 71.2622 118.365L69.9191 119.201C69.774 119.29 69.6522 119.412 69.5635 119.555C69.4748 119.698 69.4215 119.86 69.4079 120.027L69.4079 120.027Z" fill="#C2A716"/>
<path d="M76.0969 120.096C76.3195 119.761 76.6727 119.504 77.0919 119.371C77.511 119.239 77.9518 119.245 78.3333 119.389C78.7417 119.543 79.0349 119.834 79.1591 120.208C79.406 120.951 78.8803 121.785 77.9872 122.067C77.5681 122.2 77.1273 122.194 76.7459 122.05C76.576 121.987 76.4194 121.894 76.2838 121.776C76.1153 121.629 75.9897 121.441 75.92 121.231C75.796 120.857 75.8588 120.454 76.0969 120.096ZM76.7202 120.49C76.6061 120.662 76.5729 120.846 76.6267 121.008C76.6806 121.17 76.8181 121.3 77.0139 121.374C77.2367 121.458 77.5011 121.46 77.7584 121.378C78.2531 121.222 78.571 120.788 78.4524 120.431C78.4221 120.342 78.368 120.262 78.2958 120.2C78.2281 120.142 78.15 120.096 78.0654 120.065C77.8426 119.981 77.5782 119.979 77.3209 120.061C77.0636 120.142 76.8502 120.294 76.7202 120.49Z" fill="#C2A716"/>
<path d="M77.0677 118.929C76.7306 118.909 76.4334 118.792 76.2073 118.593C76.1395 118.533 76.0786 118.467 76.0254 118.395C75.5581 117.76 75.7982 116.809 76.5607 116.275C76.9185 116.024 77.3404 115.899 77.7486 115.923C78.1857 115.949 78.5559 116.138 78.7908 116.458C79.2581 117.092 79.018 118.043 78.2556 118.577C77.8977 118.828 77.4759 118.953 77.0677 118.929ZM78.1875 116.88C78.1659 116.851 78.1412 116.824 78.1137 116.8C78.0112 116.71 77.8696 116.656 77.7043 116.647C77.4659 116.633 77.2136 116.71 76.9939 116.864C76.5714 117.16 76.4042 117.667 76.6287 117.972C76.7307 118.111 76.9022 118.194 77.1117 118.206C77.3502 118.22 77.6025 118.143 77.8222 117.989C78.2447 117.693 78.412 117.185 78.1875 116.88Z" fill="#C2A716"/>
<path d="M71.8789 113.803C72.2728 113.885 72.5995 114.14 72.7986 114.52C72.9845 114.876 73.0362 115.303 72.9442 115.723C72.8523 116.143 72.6262 116.512 72.3078 116.763C71.9668 117.031 71.5621 117.133 71.1681 117.051C70.9468 117.005 70.742 116.902 70.5745 116.754C70.4404 116.635 70.3299 116.492 70.2484 116.334C70.0625 115.979 70.0107 115.551 70.1027 115.131C70.2987 114.236 71.0955 113.64 71.8789 113.803ZM70.8291 115.283C70.7727 115.541 70.8013 115.797 70.91 116.004C71.0054 116.187 71.1521 116.307 71.3231 116.342C71.4941 116.378 71.6783 116.327 71.8418 116.198C72.0278 116.052 72.1613 115.83 72.2177 115.572C72.2741 115.314 72.2455 115.057 72.1369 114.85C72.0966 114.771 72.0419 114.7 71.9755 114.64C71.9047 114.576 71.8178 114.532 71.7237 114.512C71.3474 114.433 70.9377 114.786 70.8291 115.283Z" fill="#C2A716"/>
<path d="M74.0507 116.657C73.9715 116.613 73.8974 116.561 73.8296 116.501C73.6035 116.302 73.4533 116.026 73.3987 115.701C73.3326 115.307 73.4167 114.885 73.6356 114.512C74.1019 113.718 75.0469 113.387 75.7421 113.775C76.0917 113.97 76.3233 114.31 76.3941 114.731C76.4602 115.125 76.3761 115.547 76.1573 115.92C75.6909 116.715 74.7459 117.045 74.0507 116.657ZM75.5126 115.56C75.647 115.331 75.6998 115.078 75.6611 114.849C75.6343 114.689 75.565 114.557 75.4625 114.467C75.4351 114.443 75.4052 114.422 75.3732 114.404C75.0392 114.217 74.5386 114.432 74.2803 114.872C74.1459 115.101 74.0932 115.354 74.1318 115.584C74.1657 115.786 74.2679 115.943 74.4198 116.028C74.7537 116.215 75.2542 116 75.5126 115.56Z" fill="#C2A716"/>
</g>
<path d="M10.147 54.9506C11.9557 52.637 16.0768 49.9263 16.7835 52.6368C17.4903 55.3474 16.7845 55.5288 18.5933 59.5777C20.402 63.6267 24.2574 65.3583 28.8483 67.6754C40.309 73.4596 55.39 76.93 53.5812 84.4492C52.8908 87.319 52.7924 87.628 50.5641 89.655C47.889 92.0884 45.1349 92.547 40.9122 91.9686C36.6895 91.3902 30.0539 85.6061 22.2118 80.9789C15.9631 77.2918 7.85646 76.4113 7.13168 69.4106C6.84858 66.6761 7.13168 61.8913 7.13168 61.8913C8.33772 58.4207 8.33817 57.2642 10.147 54.9506Z" fill="#E1DBCD" stroke="#C2A716" stroke-width="3"/>
<path d="M90.6382 54.9506C88.8294 52.637 84.7084 49.9263 84.0016 52.6368C83.2949 55.3474 84.0007 55.5288 82.1919 59.5777C80.3831 63.6267 76.5278 65.3583 71.9368 67.6754C60.4762 73.4596 45.3952 76.93 47.204 84.4492C47.8943 87.319 47.9928 87.628 50.2211 89.655C52.8962 92.0884 55.6503 92.547 59.873 91.9686C64.0956 91.3902 70.7313 85.6061 78.5734 80.9789C84.8221 77.2918 92.9287 76.4113 93.6535 69.4106C93.9366 66.6761 93.6535 61.8913 93.6535 61.8913C92.4474 58.4207 92.447 57.2642 90.6382 54.9506Z" fill="#E1DBCD" stroke="#C2A716" stroke-width="3"/>
<path d="M109.492 5.75879L88.3081 26.6561L91.8204 30.0433L114.781 14.2461L109.492 5.75879Z" fill="#E1DBCD"/>
<path d="M120.907 24.8965L96.0759 35.4397L97.848 39.41L122.416 33.7014L120.907 24.8965Z" fill="#E1DBCD"/>
<path d="M89.7305 31.4166L86.5693 28.3682L84.1384 30.7662L86.9483 33.476L89.7305 31.4166Z" fill="#E1DBCD"/>
<path d="M95.633 39.877L94.0381 36.3037L91.1886 37.5136L92.6062 40.6899L95.633 39.877Z" fill="#E1DBCD"/>
<defs>
<clipPath id="clip0_1666_12393">
<rect width="11.178" height="11.1134" fill="white" transform="matrix(0.792367 -0.610045 0.629098 0.777326 18.6875 117.494)"/>
</clipPath>
<clipPath id="clip1_1666_12393">
<rect width="11.7545" height="11.7244" fill="white" transform="matrix(-0.750789 -0.660543 -0.678976 0.734161 82.1963 118.439)"/>
</clipPath>
</defs>
</svg>
