<svg width="46" height="49" viewBox="0 0 46 49" fill="none" xmlns="http://www.w3.org/2000/svg">
<path d="M22.4441 26.7031C19.0919 26.7031 14.4282 31.9543 14.4282 37.1238C14.4282 42.1 19.1159 44.3381 22.4441 44.3381C25.7723 44.3381 30.46 42.1 30.46 37.1238C30.46 31.9543 25.7964 26.7031 22.4441 26.7031ZM26.7526 40.1546C25.6641 39.2825 24.7222 38.941 23.9471 39.1422C23.5994 39.2712 23.2818 39.4699 23.0136 39.726C22.7453 39.9821 22.5322 40.2902 22.3872 40.6315L20.8994 40.0327C21.1381 39.462 21.4963 38.949 21.95 38.5283C22.4037 38.1077 22.9423 37.7892 23.5295 37.5943C24.824 37.2544 26.2452 37.6937 27.7562 38.9025L26.7526 40.1546ZM22.4441 34.719C21.0012 34.719 17.6346 34.719 17.6346 32.3142C17.6346 30.5099 19.8542 28.3063 22.4441 28.3063C25.034 28.3063 27.2536 30.5099 27.2536 32.3142C27.2536 34.719 23.887 34.719 22.4441 34.719Z" fill="#4593A5"/>
<path d="M11.2251 29.9883C11.2357 30.2009 11.3304 30.4006 11.4882 30.5434C11.6461 30.6862 11.8542 30.7605 12.0668 30.7498C12.2794 30.7392 12.479 30.6446 12.6218 30.4867C12.7646 30.3289 12.8389 30.1208 12.8283 29.9082V28.8276C12.235 29.1259 11.6937 29.5178 11.2251 29.9883V29.9883Z" fill="#4593A5"/>
<path d="M3.20656 21.0909C3.20458 21.608 3.37153 22.1116 3.68204 22.5251C3.99255 22.9387 4.42962 23.2395 4.92677 23.3818C5.83657 21.7498 6.6101 20.3903 7.23454 19.3258C6.89205 19.0081 6.46421 18.7974 6.0036 18.7196C5.54299 18.6417 5.06967 18.7001 4.64181 18.8876C4.21395 19.0751 3.85018 19.3835 3.5952 19.7749C3.34022 20.1664 3.20514 20.6237 3.20656 21.0909Z" fill="#4593A5"/>
<path d="M22.4446 29.9077C20.5922 29.9077 19.2383 31.4892 19.2383 32.3125C19.2383 32.8295 20.3773 33.1141 22.4446 33.1141C24.5119 33.1141 25.651 32.8295 25.651 32.3125C25.651 31.4892 24.2971 29.9077 22.4446 29.9077Z" fill="#4593A5"/>
<path d="M39.2765 18.6865C38.6741 18.6888 38.0947 18.9178 37.6533 19.3278C38.4124 20.6232 39.2749 22.1526 39.9611 23.3838C40.4585 23.2414 40.8958 22.9404 41.2063 22.5265C41.5168 22.1127 41.6836 21.6087 41.6813 21.0913C41.6813 20.4535 41.4279 19.8418 40.977 19.3909C40.526 18.9399 39.9143 18.6865 39.2765 18.6865V18.6865Z" fill="#4593A5"/>
<path d="M40.7455 25.9123C41.8841 25.705 42.9169 25.113 43.6711 24.2353C44.4254 23.3576 44.8553 22.2475 44.889 21.0908C44.889 18.496 42.788 15.4796 40.0794 15.4796C39.2744 15.4369 38.4719 15.6013 37.7484 15.957C37.025 16.3127 36.4049 16.848 35.9472 17.5117C35.8854 17.6091 35.8033 17.6921 35.7064 17.7549C35.6096 17.8177 35.5003 17.8589 35.3861 17.8756C35.2718 17.8929 35.1552 17.8848 35.0443 17.852C34.9335 17.8192 34.8313 17.7624 34.7449 17.6856C33.1369 16.2612 31.1735 15.2983 29.0628 14.8991C26.952 14.4999 24.7726 14.6791 22.7555 15.4179C22.5577 15.4989 22.336 15.4989 22.1383 15.4179C20.1214 14.6789 17.9422 14.4996 15.8317 14.8988C13.7212 15.298 11.7581 16.261 10.1505 17.6856C10.0643 17.7628 9.96212 17.8198 9.85123 17.8527C9.74033 17.8855 9.62353 17.8933 9.50924 17.8756C9.39503 17.8589 9.28576 17.8177 9.18892 17.7549C9.09208 17.6921 9.00994 17.6091 8.94813 17.5117C8.48991 16.847 7.86874 16.3112 7.1441 15.9554C6.41946 15.5996 5.61561 15.4358 4.80953 15.4796C2.10096 15.4796 0 18.496 0 21.0908C0.0336399 22.2475 0.463557 23.3576 1.21781 24.2353C1.97205 25.113 3.00487 25.705 4.14341 25.9123C4.26462 25.9332 4.37939 25.9817 4.47885 26.054C4.57832 26.1264 4.6598 26.2206 4.71699 26.3295C4.77418 26.4384 4.80555 26.559 4.80867 26.6819C4.81179 26.8049 4.78658 26.9269 4.73498 27.0385C1.28815 34.4853 2.51859 37.7061 6.17784 41.3653C9.65032 44.8378 16.4334 46.6334 20.0774 47.5977C21.1467 47.8806 21.9307 48.0883 22.4445 48.2782C22.9583 48.0883 23.7422 47.8774 24.8116 47.5977C28.4556 46.6358 35.2386 44.8378 38.7111 41.3653C42.3704 37.7061 43.6008 34.4853 40.154 27.0385C40.1024 26.9269 40.0772 26.8049 40.0803 26.6819C40.0834 26.559 40.1148 26.4384 40.172 26.3295C40.2292 26.2206 40.3106 26.1264 40.4101 26.054C40.5096 25.9817 40.6243 25.9332 40.7455 25.9123ZM8.90725 19.6479C8.18983 20.8575 7.22392 22.5456 6.04959 24.6634C5.98014 24.7883 5.87856 24.8924 5.75539 24.9648C5.63221 25.0373 5.4919 25.0755 5.349 25.0755C5.32736 25.0755 5.30491 25.0755 5.28327 25.0755C4.23154 25.0206 3.24388 24.5532 2.53465 23.7747C1.82542 22.9961 1.45184 21.9693 1.495 20.917C1.53817 19.8648 1.99458 18.872 2.7652 18.1541C3.53581 17.4363 4.55844 17.0513 5.61112 17.0828C6.24902 17.0844 6.87736 17.238 7.44413 17.5307C8.0109 17.8234 8.49981 18.2469 8.87038 18.7662C8.96213 18.8934 9.01453 19.0448 9.02108 19.2015C9.02764 19.3582 8.98806 19.5134 8.90725 19.6479ZM28.5005 20.427C29.9442 21.3753 31.4941 22.1512 33.1184 22.7388L32.6118 24.2618C30.8504 23.6334 29.1712 22.7948 27.6107 21.7641L28.5005 20.427ZM31.262 25.0987C31.262 25.4158 31.1679 25.7257 30.9918 25.9894C30.8156 26.253 30.5652 26.4585 30.2723 26.5798C29.9793 26.7012 29.657 26.7329 29.346 26.6711C29.035 26.6092 28.7494 26.4565 28.5252 26.2323C28.3009 26.0081 28.1483 25.7224 28.0864 25.4115C28.0245 25.1005 28.0563 24.7781 28.1776 24.4852C28.299 24.1922 28.5045 23.9419 28.7681 23.7657C29.0317 23.5895 29.3417 23.4955 29.6588 23.4955C30.084 23.4955 30.4917 23.6644 30.7924 23.9651C31.093 24.2657 31.262 24.6735 31.262 25.0987ZM16.3885 20.4238L17.2782 21.7577C15.7177 22.7884 14.0385 23.627 12.2771 24.2554L11.7705 22.7324C13.3947 22.1458 14.9446 21.371 16.3885 20.4238ZM16.8334 25.0987C16.8334 25.4158 16.7393 25.7257 16.5632 25.9894C16.387 26.253 16.1366 26.4585 15.8437 26.5798C15.5507 26.7012 15.2284 26.7329 14.9174 26.6711C14.6064 26.6092 14.3208 26.4565 14.0966 26.2323C13.8724 26.0081 13.7197 25.7224 13.6578 25.4115C13.5959 25.1005 13.6277 24.7781 13.749 24.4852C13.8704 24.1922 14.0759 23.9419 14.3395 23.7657C14.6031 23.5895 14.9131 23.4955 15.2302 23.4955C15.6554 23.4955 16.0631 23.6644 16.3638 23.9651C16.6645 24.2657 16.8334 24.6735 16.8334 25.0987ZM9.61906 29.9082C9.61906 28.9848 10.8519 27.9315 13.2831 26.782C13.4051 26.7241 13.5397 26.6979 13.6745 26.7059C13.8093 26.7139 13.9399 26.7559 14.0542 26.8278C14.1685 26.8998 14.2627 26.9995 14.3281 27.1176C14.3936 27.2357 14.4281 27.3684 14.4286 27.5035V29.9082C14.4286 30.546 14.1752 31.1577 13.7243 31.6087C13.2733 32.0596 12.6616 32.313 12.0238 32.313C11.386 32.313 10.7744 32.0596 10.3234 31.6087C9.87242 31.1577 9.61906 30.546 9.61906 29.9082ZM22.4445 45.94C17.7151 45.94 12.8254 42.6423 12.8254 37.1225C12.8254 31.5034 17.95 25.0987 22.4445 25.0987C26.939 25.0987 32.0635 31.5034 32.0635 37.1225C32.0635 42.6423 27.1738 45.94 22.4445 45.94ZM39.6057 25.0698C39.584 25.0698 39.5616 25.0698 39.54 25.0698C39.397 25.0698 39.2566 25.0315 39.1334 24.9589C39.0102 24.8863 38.9087 24.7821 38.8394 24.657C38.0378 23.2206 36.8963 21.1837 35.9817 19.6423C35.9022 19.5085 35.8634 19.3546 35.87 19.1991C35.8765 19.0437 35.9282 18.8935 36.0186 18.767C36.5102 18.0736 37.2097 17.5548 38.0159 17.2857C38.822 17.0165 39.6929 17.0109 40.5025 17.2698C41.312 17.5286 42.0181 18.0385 42.5185 18.7254C43.0189 19.4124 43.2876 20.2409 43.2858 21.0908C43.2896 22.0965 42.9119 23.0664 42.229 23.8047C41.5461 24.5431 40.6087 24.9952 39.6057 25.0698Z" fill="#4593A5"/>
<path d="M42.7168 2.41699L37.107 12.934L35.3829 12.0144L38.8088 1.43977L42.7168 2.41699Z" fill="#4593A5"/>
<path d="M33.9644 0.405762L32.7932 11.0554L31.0474 10.8634L30.3767 0.894704L33.9644 0.405762Z" fill="#4593A5"/>
<path d="M35.0958 12.9687L36.6475 13.7964L36.0037 15.0033L34.6244 14.2675L35.0958 12.9687Z" fill="#4593A5"/>
<path d="M31.126 11.7554L32.6973 11.9282L32.5629 13.1503L31.1662 12.9967L31.126 11.7554Z" fill="#4593A5"/>
</svg>
