<svg width="71" height="68" viewBox="0 0 71 68" fill="none" xmlns="http://www.w3.org/2000/svg">
<path d="M44.9345 23.903C43.4568 23.903 42.2676 25.4082 42.2676 27.2757C42.2676 29.1477 43.4568 30.653 44.9345 30.653C46.4033 30.653 47.5926 29.1477 47.5926 27.2757C47.5926 25.4082 46.4033 23.903 44.9345 23.903Z" fill="#5CC2D9"/>
<path d="M26.0674 23.903C24.5997 23.903 23.4082 25.4071 23.4082 27.2757C23.4082 29.1477 24.5997 30.653 26.0674 30.653C27.544 30.653 28.7332 29.1477 28.7332 27.2757C28.7332 25.4071 27.544 23.903 26.0674 23.903Z" fill="#5CC2D9"/>
<path d="M68.7812 14.6421C67.217 14.5712 66.2352 13.9379 65.4298 12.9648C65.2712 9.67525 64.1197 6.50162 62.4467 5.1235C61.5071 4.3495 60.1825 3.958 58.5095 3.958C58.3753 3.958 58.2366 3.96813 58.1002 3.97263C53.3909 1.41438 48.4708 3.86238 48.4708 3.86238C48.7925 2.11525 47.9827 1.17925 48.5917 0.25C39.4605 0.25 35.5044 4.14475 35.5 4.14813C35.4978 4.14475 31.5417 0.25 22.4105 0.25C23.0195 1.17925 22.2086 2.11525 22.5314 3.86238C22.5314 3.86238 17.6113 1.41325 12.902 3.97263C12.7656 3.96813 12.6258 3.958 12.4905 3.958C10.8186 3.958 9.49403 4.35062 8.55439 5.1235C6.88034 6.50162 5.72881 9.67525 5.57017 12.9648C4.76587 13.9379 3.78297 14.5712 2.21875 14.6421C2.21875 14.6421 2.35631 18.9498 6.64627 21.823C6.64627 21.823 2.14664 26.1734 2.90212 35.4175C2.90212 35.4175 4.71706 33.172 8.96153 32.326C3.96269 36.5785 6.87813 42.8729 3.17725 47.2188C3.17725 47.2188 8.26928 48.3527 10.3338 46.8396C9.52509 53.503 13.5211 56.1017 13.5211 59.3631C18.0551 57.8511 18.6896 53.314 18.6896 53.314C18.6896 61.7155 21.5563 61.4174 21.5563 65.8836C21.5563 65.8836 26.5851 65.0804 28.6507 60.8751C29.4717 64.8408 33.3656 65.2694 35.5 67.75H35.5022C37.6367 65.2694 41.5306 64.8408 42.3515 60.8751C44.416 65.0804 49.446 65.8836 49.446 65.8836C49.446 61.4174 52.3126 61.7155 52.3126 53.314C52.3126 53.314 52.9471 57.8511 57.48 59.3631C57.48 56.1029 61.476 53.503 60.6673 46.8396C62.7318 48.3527 67.8239 47.2188 67.8239 47.2188C64.123 42.8729 67.0395 36.5785 62.0407 32.326C66.2852 33.172 68.099 35.4175 68.099 35.4175C68.8556 26.1734 64.3548 21.823 64.3548 21.823C68.6448 18.9498 68.7812 14.6421 68.7812 14.6421ZM11.6584 10.7238C10.1585 11.9624 9.26772 17.1632 12.3518 19.4031C11.9779 20.0873 11.6253 20.7833 11.2945 21.49C8.87278 19.816 8.07514 17.1801 7.84772 15.1529C7.44391 11.5675 8.61097 7.9765 9.95442 6.87063C10.4803 6.4375 11.3578 6.208 12.4916 6.208C15.4969 6.208 19.3564 7.7875 21.7027 9.84962C20.5046 10.4144 19.373 11.149 18.2969 12.0175C16.2413 10.4515 12.9475 9.664 11.6584 10.7238ZM39.7655 57.742C39.8687 56.2907 39.476 55.1005 39.476 55.1005C39.1254 57.2583 38.1758 58.8006 38.1758 58.8006C38.2169 56.95 37.2872 56.1569 37.2872 56.1569C36.4208 58.6656 35.5144 59.6399 35.5144 59.6399C35.5144 59.6399 34.6103 58.6667 33.7428 56.1569C33.7428 56.1569 32.8142 56.95 32.8552 58.8006C32.8552 58.8006 31.9056 57.2583 31.5551 55.1005C31.5551 55.1005 31.1623 56.2907 31.2644 57.742C31.2644 57.742 24.0623 53.0204 22.933 46.6394C25.2449 49.273 30.3225 53.5379 35.5022 48.0153C40.703 53.5592 45.8005 49.2393 48.0992 46.609C46.9909 53.0057 39.7655 57.742 39.7655 57.742ZM33.6451 37.0758C33.086 36.3108 32.508 35.521 31.8457 35.026C31.5029 34.7684 31.2078 34.5535 30.9471 34.369C31.9844 33.9325 34.0978 33.1844 35.5133 33.1844C36.9267 33.1844 39.1432 33.8436 40.2659 34.2228C39.9586 34.4376 39.598 34.6964 39.1587 35.026C38.4953 35.5221 37.924 36.3153 37.3715 37.0825C36.7492 37.9443 36.0458 38.9207 35.5189 38.9207H35.5166C34.9908 38.9174 34.2752 37.9386 33.6451 37.0758ZM48.8081 45.1656L48.7848 45.241L48.7415 45.3074C48.7182 45.3434 48.564 45.5684 48.3066 45.8868C46.1522 47.4685 41.038 50.2371 36.6094 46.0443V39.4416L40.8472 37.6247C41.4928 37.3232 42.022 36.5043 42.022 35.809L42.0176 33.865C42.0176 33.865 39.7323 32.0605 35.5144 32.0605C31.2966 32.0605 28.998 33.865 28.998 33.865L28.9869 35.8079C28.9869 36.5031 29.5171 37.3232 30.1617 37.6236L34.3906 39.4371V46.051C29.9986 50.2011 24.9365 47.5101 22.7555 45.9239C22.5921 45.7251 22.437 45.5194 22.2907 45.3074L22.2474 45.241L22.2241 45.1656C22.0211 44.5244 21.7826 43.2509 21.9656 42.0044C22.1453 40.7939 22.7178 39.6587 23.0173 39.1165C23.4023 38.419 28.9858 33.8751 28.9991 33.865C30.804 30.6396 31.0248 30.3235 32.5801 29.6339C33.2358 29.3447 34.3707 29.1996 35.5067 29.1996C36.6427 29.1996 37.7753 29.3447 38.4321 29.6339C39.9863 30.3224 40.2137 30.6385 42.0198 33.8639C42.0198 33.8639 47.6321 38.4179 48.0171 39.1165C48.3166 39.6587 48.8902 40.7961 49.0677 42.0044C49.2507 43.2509 49.0111 44.5233 48.8081 45.1656ZM54.2839 30.2335C53.7714 32.677 50.349 35.1318 49.02 38.6553C49.0066 38.6294 48.9967 38.5911 48.9845 38.5664C48.6616 37.9825 46.6037 36.1397 42.8618 33.0876C41.1256 29.9927 40.7396 29.4291 38.8736 28.6034C37.7931 28.1252 36.1568 28.0746 35.5044 28.0746C34.8499 28.0746 33.2147 28.1252 32.1353 28.6022C30.2615 29.4325 29.8799 29.9961 28.1282 33.1225C24.414 36.1544 22.3694 37.9859 22.0488 38.5675C22.0344 38.5923 22.0255 38.6327 22.0122 38.6597C20.6765 35.1351 17.2297 32.6792 16.7194 30.2346C16.198 27.7439 18.44 22.0716 20.5512 20.8735C20.9295 20.6609 22.2652 20.8735 22.2652 20.8735C22.6601 20.338 24.8001 14.0774 30.3836 13.0446C33.6984 12.4304 35.5144 15.3036 35.5144 15.3036C35.5144 15.3036 37.3061 12.4304 40.622 13.0446C46.2033 14.0774 48.3443 20.338 48.7404 20.8735C48.7404 20.8735 50.075 20.6609 50.4544 20.8735C52.5633 22.0705 54.8053 27.7428 54.2839 30.2335ZM63.1545 15.154C62.9271 17.1812 62.1294 19.816 59.7077 21.49C59.377 20.7833 59.0244 20.0873 58.6504 19.4031C61.7356 17.1632 60.8437 11.9624 59.3438 10.7238C58.0547 9.66513 54.761 10.4526 52.7075 12.0175C51.6303 11.1501 50.4999 10.4144 49.3017 9.84962C51.6458 7.7875 55.5054 6.208 58.5107 6.208C59.6455 6.208 60.5231 6.4375 61.05 6.87063C62.3912 7.9765 63.5594 11.5697 63.1545 15.154Z" fill="#5CC2D9"/>
</svg>
