<svg width="71" height="62" viewBox="0 0 71 62" fill="none" xmlns="http://www.w3.org/2000/svg">
<path d="M61.8336 23.3479C60.7192 15.6567 56.1385 10.3379 48.4757 7.29932C49.7818 6.60924 50.6258 6.26363 50.6258 6.26363C46.9348 4.96332 43.7308 4.20594 40.9567 3.86147C42.4156 2.76305 43.3897 2.34558 43.3897 2.34558C20.8601 -0.832198 9.75039 11.6987 9.05233 23.365C4.63811 24.1395 1.28125 27.9754 1.28125 32.6052C1.28125 37.1871 4.56967 40.9934 8.91888 41.8215C9.41619 52.5605 21.1236 61.1562 35.4989 61.1562C49.8764 61.1562 61.5838 52.5605 62.0811 41.8215C66.4292 40.9922 69.7188 37.1848 69.7188 32.6052C69.7188 27.9378 66.3026 24.0756 61.8336 23.3479ZM9.1527 38.5C6.51786 37.8156 4.56397 35.4488 4.56397 32.6052C4.56397 29.8495 6.4038 27.5431 8.91659 26.7812C8.97248 29.2472 9.6215 31.6049 10.7576 33.7778C9.98386 35.2603 9.44259 36.853 9.1527 38.5ZM49.8126 40.5383C51.3273 42.4272 52.2147 44.6331 52.2147 46.9999C52.2147 53.9372 44.7299 59.5582 35.4989 59.5582C26.2678 59.5582 18.7841 53.9372 18.7841 46.9999C18.7841 44.6331 19.6704 42.4272 21.1874 40.5383C15.9896 37.3924 12.6624 32.5767 12.6624 27.1713C12.6624 7.85594 35.4989 20.161 35.4989 20.161C35.4989 20.161 58.3365 7.85708 58.3365 27.1713C58.3365 32.5756 55.0093 37.3924 49.8126 40.5383ZM61.8473 38.5C61.5569 36.8529 61.0161 35.26 60.2436 33.7766C61.3796 31.6038 62.0275 29.2461 62.0834 26.7801C64.5962 27.5431 66.4349 29.8483 66.4349 32.6041C66.4349 35.4488 64.4821 37.8156 61.8473 38.5Z" fill="#5CC2D9"/>
<path d="M37.9463 41.541C38.5771 41.541 39.0869 40.4928 39.0869 39.1947C39.0869 37.9024 38.5771 36.8462 37.9463 36.8462C37.3144 36.8462 36.8057 37.9024 36.8057 39.1947C36.8057 40.4928 37.3144 41.541 37.9463 41.541Z" fill="#5CC2D9"/>
<path d="M33.0508 41.541C33.6815 41.541 34.1914 40.4928 34.1914 39.1947C34.1914 37.9024 33.6815 36.8462 33.0508 36.8462C32.4189 36.8462 31.9102 37.9024 31.9102 39.1947C31.9102 40.4928 32.4189 41.541 33.0508 41.541Z" fill="#5CC2D9"/>
<path d="M45.4033 36.3431C47.6081 36.3431 49.3955 34.045 49.3955 31.2103C49.3955 28.3755 47.6081 26.0775 45.4033 26.0775C43.1985 26.0775 41.4111 28.3755 41.4111 31.2103C41.4111 34.045 43.1985 36.3431 45.4033 36.3431Z" fill="#5CC2D9"/>
<path d="M25.5967 36.3431C27.8015 36.3431 29.5889 34.045 29.5889 31.2103C29.5889 28.3755 27.8015 26.0775 25.5967 26.0775C23.3919 26.0775 21.6045 28.3755 21.6045 31.2103C21.6045 34.045 23.3919 36.3431 25.5967 36.3431Z" fill="#5CC2D9"/>
<path d="M35.5203 52.5757C40.8685 52.5336 46.3205 53.9405 46.7578 53.5618C48.3723 52.1643 43.3377 45.6736 35.4661 45.6922C27.5963 45.7941 22.6611 52.3655 24.3008 53.7385C24.744 54.1091 30.1709 52.6167 35.5203 52.5757Z" fill="#5CC2D9"/>
</svg>
