<svg width="50" height="49" viewBox="0 0 50 49" fill="none" xmlns="http://www.w3.org/2000/svg">
<g clip-path="url(#clip0_691_8567)">
<path d="M41.7952 37.0565L41.6406 36.5334L41.3315 35.6964L41.1254 35.1733L40.5587 34.127L39.7859 33.133L38.7555 32.1914L37.5705 31.0928L36.5916 30.1511L35.6643 29.1049L34.8915 28.0586L34.1702 26.96L33.3974 25.4952L32.9337 24.5013L32.367 23.4027L31.6457 22.1994L30.8214 21.1009L30.2547 20.5254L29.688 20.0023L28.9152 19.4268L27.9878 19.0083L26.8028 18.5898L25.6179 18.4329H24.3814L23.1964 18.5898L21.4963 19.2176L19.8476 20.3685L18.7657 21.4671L18.096 22.5133L17.4262 23.7165L16.5504 25.5475L15.726 27.1693L14.7987 28.4248L13.6652 29.8896L10.3164 33.0284L10.0073 33.29L9.23453 34.3885L8.61629 35.6441L8.25565 37.2135L8.04957 38.626L7.99805 40.1954L8.15261 41.2416L8.61629 42.7064L9.28605 44.0666L10.0073 45.0082L10.9347 45.9499L12.1712 46.7869L13.6137 47.467L14.6956 47.7285L16.3443 47.7809L17.9414 47.4147L18.9203 46.9438L19.3324 46.63L20.2598 46.1068L21.1356 45.5837L21.9084 45.1129L22.7328 44.7467L23.4025 44.4328L24.1753 44.2235L24.9996 44.1712L25.9785 44.3282L26.6998 44.4851L27.8848 45.0605L29.3273 45.7929L30.5123 46.5776L31.5942 47.2054L32.6761 47.6762L33.7065 47.8855L34.5824 47.9378L35.3036 47.8855L36.4371 47.5716L37.8796 46.8915L38.91 46.1591L39.992 45.0605L40.7648 44.0143L41.4345 42.6018L41.8467 41.2416L42.0012 40.0907V38.8875L41.9497 38.2074L41.7952 37.0565Z" fill="#5CC2D9"/>
<path d="M37.6801 9.47852C38.1411 5.05361 36.0373 1.2004 32.9812 0.872142C29.9251 0.543882 27.074 3.86487 26.613 8.28978C26.152 12.7147 28.2558 16.5679 31.3119 16.8962C34.368 17.2244 37.2191 13.9034 37.6801 9.47852Z" fill="#5CC2D9"/>
<path d="M18.6736 16.8745C21.7297 16.5463 23.8335 12.6931 23.3725 8.26815C22.9115 3.84325 20.0604 0.522258 17.0043 0.850518C13.9482 1.17878 11.8444 5.03198 12.3054 9.45689C12.7663 13.8818 15.6175 17.2028 18.6736 16.8745Z" fill="#5CC2D9"/>
<path d="M47.8914 22.5931C48.8379 18.2782 47.1735 14.2305 44.1739 13.5521C41.1744 12.8737 37.9755 15.8217 37.0291 20.1365C36.0827 24.4514 37.747 28.4991 40.7466 29.1775C43.7462 29.8559 46.945 26.9079 47.8914 22.5931Z" fill="#5CC2D9"/>
<path d="M9.24816 29.176C12.2477 28.4977 13.9121 24.4499 12.9657 20.135C12.0192 15.8202 8.82038 12.8723 5.82082 13.5506C2.82127 14.229 1.15688 18.2768 2.10332 22.5916C3.04975 26.9064 6.24861 29.8544 9.24816 29.176Z" fill="#5CC2D9"/>
</g>
<defs>
<clipPath id="clip0_691_8567">
<rect width="50" height="49" fill="white"/>
</clipPath>
</defs>
</svg>
