<svg width="33" height="33" viewBox="0 0 33 33" fill="none" xmlns="http://www.w3.org/2000/svg">
<circle cx="16.5" cy="16.5" r="16" fill="#D97575" stroke="white"/>
<path d="M17.5596 20.0713H15.4502L15.1514 11.2031H17.8584L17.5596 20.0713ZM16.5049 21.46C16.9326 21.46 17.2754 21.5859 17.5332 21.8379C17.7969 22.0898 17.9287 22.4121 17.9287 22.8047C17.9287 23.1914 17.7969 23.5107 17.5332 23.7627C17.2754 24.0146 16.9326 24.1406 16.5049 24.1406C16.083 24.1406 15.7402 24.0146 15.4766 23.7627C15.2188 23.5107 15.0898 23.1914 15.0898 22.8047C15.0898 22.418 15.2188 22.0986 15.4766 21.8467C15.7402 21.5889 16.083 21.46 16.5049 21.46Z" fill="white"/>
</svg>
