<svg id="Capa_1" data-name="Capa 1" xmlns="http://www.w3.org/2000/svg" xmlns:xlink="http://www.w3.org/1999/xlink" viewBox="0 0 197.36 189.61"><defs><style>.cls-1{fill:url(#Degradado_sin_nombre_4);}</style><linearGradient id="Degradado_sin_nombre_4" x1="1.32" y1="101" x2="198.68" y2="101" gradientTransform="matrix(1, 0, 0, -1, 0, 201)" gradientUnits="userSpaceOnUse"><stop offset="0.18" stop-color="#2c4d47"/><stop offset="0.71" stop-color="#549388"/><stop offset="1" stop-color="#71c7b9"/></linearGradient></defs><title>reciclar</title><path class="cls-1" d="M2.36,66.37,14.71,76,3.07,98.29c-5.8,10.29,4.16,20.28,10.55,23.77s16,3.83,25.05,3.71L55,99l12.35,6.68L45.93,66ZM4.17,120.9l26.54,49c5.32,6.81,15.38,8.42,25.79,8.16h28v-46.4l-53.08-.39C23.19,131.76,12.42,130.05,4.17,120.9ZM171.05,30.57,156.6,36.7l-13.83-21c-6.16-10.06-19.77-6.19-25.9-2.29s-11.09,12.12-15.41,20.12L116.9,60.82,105.1,68.4l45.15.51ZM122.48,5.74,66.76,5.19C58.21,6.55,52,14.55,47.12,23.77L33.54,48.24l40.6,22.51,26-46.21C103.75,17.09,110.49,8.52,122.48,5.74Zm2.42,189.07,1.65-15.61,25-1.94c11.8-.51,15-14.28,14.58-21.54S161,140.15,156.05,132.5l-31.34.3-.87-14L101.49,158Zm45.28-30.41,27.5-48.47c2.94-8.13-1-17.51-6.74-26.22L176.11,66l-39.34,24.6,27.79,45.18C169.34,142.5,173.59,152.56,170.18,164.4Z" transform="translate(-1.32 -5.19)"/></svg>