<svg id="Capa_1" data-name="Capa 1" xmlns="http://www.w3.org/2000/svg" xmlns:xlink="http://www.w3.org/1999/xlink" viewBox="0 0 193.51 193.51"><defs><style>.cls-1{fill:url(#Degradado_sin_nombre_4);}.cls-2{fill:url(#Degradado_sin_nombre_4-2);}.cls-3{fill:url(#Degradado_sin_nombre_4-3);}.cls-4{fill:url(#Degradado_sin_nombre_4-4);}.cls-5{fill:url(#Degradado_sin_nombre_4-5);}.cls-6{fill:url(#Degradado_sin_nombre_4-6);}.cls-7{fill:url(#Degradado_sin_nombre_4-7);}.cls-8{fill:url(#Degradado_sin_nombre_4-8);}.cls-9{fill:url(#Degradado_sin_nombre_4-9);}.cls-10{fill:url(#Degradado_sin_nombre_4-10);}.cls-11{fill:url(#Degradado_sin_nombre_4-11);}</style><linearGradient id="Degradado_sin_nombre_4" x1="61.57" y1="43.98" x2="70.37" y2="43.98" gradientUnits="userSpaceOnUse"><stop offset="0.18" stop-color="#2c4d47"/><stop offset="0.71" stop-color="#549388"/><stop offset="1" stop-color="#71c7b9"/></linearGradient><linearGradient id="Degradado_sin_nombre_4-2" x1="123.16" y1="149.55" x2="131.95" y2="149.54" xlink:href="#Degradado_sin_nombre_4"/><linearGradient id="Degradado_sin_nombre_4-3" x1="39.58" y1="65.97" x2="48.38" y2="65.97" xlink:href="#Degradado_sin_nombre_4"/><linearGradient id="Degradado_sin_nombre_4-4" x1="145.13" y1="127.54" x2="153.92" y2="127.54" xlink:href="#Degradado_sin_nombre_4"/><linearGradient id="Degradado_sin_nombre_4-5" x1="123.14" y1="43.96" x2="131.94" y2="43.96" xlink:href="#Degradado_sin_nombre_4"/><linearGradient id="Degradado_sin_nombre_4-6" x1="61.57" y1="149.53" x2="70.36" y2="149.53" xlink:href="#Degradado_sin_nombre_4"/><linearGradient id="Degradado_sin_nombre_4-7" x1="145.13" y1="65.97" x2="153.92" y2="65.97" xlink:href="#Degradado_sin_nombre_4"/><linearGradient id="Degradado_sin_nombre_4-8" x1="39.58" y1="127.54" x2="48.38" y2="127.53" xlink:href="#Degradado_sin_nombre_4"/><linearGradient id="Degradado_sin_nombre_4-9" x1="3.49" y1="98.98" x2="197" y2="98.92" xlink:href="#Degradado_sin_nombre_4"/><linearGradient id="Degradado_sin_nombre_4-10" x1="21.08" y1="98.97" x2="179.41" y2="98.92" xlink:href="#Degradado_sin_nombre_4"/><linearGradient id="Degradado_sin_nombre_4-11" x1="87.05" y1="98.96" x2="139.82" y2="98.94" xlink:href="#Degradado_sin_nombre_4"/></defs><title>reloj1</title><circle class="cls-1" cx="65.97" cy="43.98" r="4.4"/><circle class="cls-2" cx="127.56" cy="149.55" r="4.4"/><circle class="cls-3" cx="43.98" cy="65.97" r="4.4"/><circle class="cls-4" cx="149.52" cy="127.54" r="4.4"/><circle class="cls-5" cx="127.54" cy="43.96" r="4.4"/><circle class="cls-6" cx="65.96" cy="149.53" r="4.4"/><circle class="cls-7" cx="149.52" cy="65.97" r="4.4"/><circle class="cls-8" cx="43.98" cy="127.53" r="4.4"/><path class="cls-9" d="M100.25,2.19C47,2.19,3.49,45.73,3.49,99S47,195.7,100.25,195.7a4.4,4.4,0,0,0,0-8.79,88,88,0,0,1,0-175.92c48.37,0,87.95,39.58,87.95,88A87.67,87.67,0,0,1,117,185.15a4.56,4.56,0,0,0-3.52,5.27c.44,2.64,2.64,4,5.28,3.52A97,97,0,0,0,197,99C197,45.73,153.46,2.19,100.25,2.19Z" transform="translate(-3.49 -2.19)"/><path class="cls-10" d="M118.72,22c-2.2-.44-4.84.88-5.28,3.08s.88,4.84,3.08,5.28a71.15,71.15,0,0,1,54.09,64.21h-8.79a4.4,4.4,0,0,0,0,8.8h8.35a70.1,70.1,0,0,1-65.53,65.52v-8.35a4.4,4.4,0,1,0-8.79,0v8.35a70.11,70.11,0,0,1-65.53-65.52h8.36a4.4,4.4,0,0,0,0-8.8h-8.8a71,71,0,0,1,66-66v8.8a4.4,4.4,0,1,0,8.79,0V24.18a4.15,4.15,0,0,0-4.39-4.39A79.18,79.18,0,1,0,118.72,22Z" transform="translate(-3.49 -2.19)"/><path class="cls-11" d="M138.51,131.05l-26.39-26.39A12.11,12.11,0,0,0,113.44,99a12.82,12.82,0,0,0-8.8-12.32V63.76a4.4,4.4,0,0,0-8.79,0V86.63A12.82,12.82,0,0,0,87.05,99a13,13,0,0,0,13.2,13.19,12.14,12.14,0,0,0,5.71-1.32l26.39,26.39a4.25,4.25,0,0,0,6.16,0A4.25,4.25,0,0,0,138.51,131.05Zm-38.26-27.7a4.4,4.4,0,1,1,4.39-4.4A4.16,4.16,0,0,1,100.25,103.35Z" transform="translate(-3.49 -2.19)"/></svg>