<svg width="41" height="47" fill="none" xmlns="http://www.w3.org/2000/svg"><path d="M20.374 27.374c-2.895 0-6.921 4.534-6.921 8.997 0 4.297 4.047 6.23 6.92 6.23 2.874 0 6.922-1.933 6.922-6.23 0-4.463-4.027-8.997-6.921-8.997zm3.72 11.614c-.94-.753-1.753-1.048-2.423-.874a2.354 2.354 0 0 0-1.346 1.286l-1.285-.517a3.738 3.738 0 0 1 2.27-2.105c1.119-.294 2.346.086 3.65 1.13l-.866 1.08zm-3.72-4.693c-1.246 0-4.153 0-4.153-2.076 0-1.558 1.916-3.46 4.153-3.46 2.236 0 4.152 1.902 4.152 3.46 0 2.076-2.907 2.076-4.152 2.076zM10.687 30.21a.693.693 0 0 0 1.384-.069v-.933c-.512.258-.98.596-1.384 1.002zM3.764 22.528a2.05 2.05 0 0 0 1.485 1.978c.785-1.41 1.453-2.583 1.993-3.503a2.07 2.07 0 0 0-3.478 1.525z" fill="#fff"/><path d="M20.374 30.142c-1.6 0-2.768 1.365-2.768 2.076 0 .446.983.692 2.768.692 1.785 0 2.768-.246 2.768-.692 0-.71-1.169-2.076-2.768-2.076zM34.907 20.452c-.52.002-1.02.2-1.401.554a197.74 197.74 0 0 1 1.992 3.502 2.05 2.05 0 0 0 1.486-1.98 2.077 2.077 0 0 0-2.077-2.076z" fill="#fff"/><path d="M36.176 26.691a4.36 4.36 0 0 0 3.577-4.163c0-2.24-1.814-4.845-4.153-4.845a4.072 4.072 0 0 0-3.567 1.755.691.691 0 0 1-1.039.15 10.28 10.28 0 0 0-10.351-1.958.703.703 0 0 1-.533 0 10.276 10.276 0 0 0-10.35 1.958.674.674 0 0 1-.554.164.691.691 0 0 1-.485-.314 4.071 4.071 0 0 0-3.573-1.755c-2.339 0-4.153 2.605-4.153 4.845a4.36 4.36 0 0 0 3.578 4.163.693.693 0 0 1 .51.973c-2.976 6.43-1.913 9.21 1.246 12.37 2.998 2.998 8.855 4.548 12.001 5.38.924.245 1.6.424 2.044.588.444-.164 1.12-.346 2.044-.587 3.146-.83 9.003-2.383 12.001-5.381 3.16-3.16 4.222-5.94 1.246-12.37a.693.693 0 0 1 .51-.973zm-27.49-5.409a178.8 178.8 0 0 0-2.468 4.331.693.693 0 0 1-.604.356h-.057a3.453 3.453 0 0 1 .283-6.901 3.469 3.469 0 0 1 2.814 1.453.692.692 0 0 1 .032.761zm16.917.673a19.088 19.088 0 0 0 3.987 1.996l-.437 1.315a20.078 20.078 0 0 1-4.318-2.156l.768-1.155zm2.384 4.034a1.384 1.384 0 1 1-2.768 0 1.384 1.384 0 0 1 2.768 0zm-12.842-4.037.769 1.152a20.076 20.076 0 0 1-4.319 2.157l-.437-1.315a19.098 19.098 0 0 0 3.987-1.994zm.384 4.037a1.384 1.384 0 1 1-2.768 0 1.384 1.384 0 0 1 2.768 0zM9.3 30.14c0-.797 1.065-1.706 3.164-2.699a.693.693 0 0 1 .989.623v2.076a2.076 2.076 0 1 1-4.153 0zm11.074 13.843c-4.083 0-8.305-2.848-8.305-7.614 0-4.851 4.425-10.381 8.305-10.381s8.305 5.53 8.305 10.381c0 4.766-4.221 7.614-8.305 7.614zm14.817-18.02h-.056a.693.693 0 0 1-.605-.357 207.459 207.459 0 0 0-2.468-4.33.693.693 0 0 1 .032-.755 3.456 3.456 0 0 1 6.275 2.006 3.432 3.432 0 0 1-3.178 3.436zM37.877 6.404l-4.843 9.08-1.489-.793 2.958-9.13 3.374.843zM30.32 4.668l-1.01 9.195-1.508-.166-.58-8.607 3.098-.422z" fill="#fff"/><path d="m31.297 15.516 1.34.714-.556 1.043-1.19-.636.406-1.121zM27.87 14.468l1.356.15-.116 1.054-1.206-.132-.035-1.072z" fill="#fff"/></svg>