<svg width="64" height="42" fill="none" xmlns="http://www.w3.org/2000/svg"><path d="M44 17.654V19a1.002 1.002 0 0 0 2 .1 7.862 7.862 0 0 0-2-1.446zM32 15c-4.182 0-10 6.551-10 13 0 6.208 5.848 9 10 9s10-2.792 10-9c0-6.449-5.818-13-10-13zm5.375 16.781c-1.358-1.088-2.533-1.514-3.5-1.263a3.4 3.4 0 0 0-1.946 1.858l-1.856-.747a5.399 5.399 0 0 1 3.281-3.042c1.615-.424 3.388.124 5.273 1.632l-1.252 1.562zM32 25c-1.8 0-6 0-6-3 0-2.251 2.769-5 6-5s6 2.749 6 5c0 3-4.2 3-6 3zM18.005 19.1a1 1 0 1 0 2-.1v-1.348a7.707 7.707 0 0 0-2 1.448zM8 8a2.961 2.961 0 0 0 2.146 2.858c1.135-2.036 2.1-3.732 2.879-5.06A2.99 2.99 0 0 0 8 8z" fill="#fff"/><path d="M32 19c-2.311 0-4 1.973-4 3 0 .645 1.421 1 4 1 2.579 0 4-.355 4-1 0-1.027-1.689-3-4-3zM53 5a2.992 2.992 0 0 0-2.025.8 285.729 285.729 0 0 1 2.879 5.06A2.96 2.96 0 0 0 56 8a3 3 0 0 0-3-3z" fill="#fff"/><path d="M54.831 14.015A6.3 6.3 0 0 0 60 8c0-3.237-2.621-7-6-7a5.883 5.883 0 0 0-5.155 2.535 1 1 0 0 1-1.5.217A14.853 14.853 0 0 0 32.388.922a1.016 1.016 0 0 1-.77 0 14.847 14.847 0 0 0-14.955 2.83.975.975 0 0 1-.8.237 1 1 0 0 1-.7-.454A5.883 5.883 0 0 0 10 1C6.621 1 4 4.763 4 8a6.3 6.3 0 0 0 5.169 6.015 1.001 1.001 0 0 1 .738 1.405c-4.3 9.29-2.765 13.308 1.8 17.873 4.332 4.332 12.794 6.572 17.34 7.775 1.334.353 2.312.612 2.953.849.641-.237 1.619-.5 2.953-.85 4.546-1.2 13.008-3.442 17.34-7.774 4.565-4.565 6.1-8.583 1.8-17.873a1 1 0 0 1 .738-1.405zM15.112 6.2c-.895 1.509-2.1 3.615-3.565 6.257a1 1 0 0 1-.874.514h-.082A4.99 4.99 0 0 1 11 3a5.01 5.01 0 0 1 4.066 2.1 1 1 0 0 1 .046 1.1zm24.443.972a27.588 27.588 0 0 0 5.761 2.884l-.632 1.9a29.005 29.005 0 0 1-6.239-3.116l1.11-1.668zM43 13a2 2 0 1 1-4 0 2 2 0 0 1 4 0zM24.445 7.168l1.11 1.664a29.005 29.005 0 0 1-6.239 3.116l-.632-1.9a27.588 27.588 0 0 0 5.761-2.88zM25 13a2 2 0 1 1-4 0 2 2 0 0 1 4 0zm-9 6c0-1.152 1.538-2.466 4.571-3.9A1 1 0 0 1 22 16v3a3 3 0 0 1-6 0zm16 20c-5.9 0-12-4.114-12-11 0-7.01 6.393-15 12-15s12 7.99 12 15c0 6.886-6.1 11-12 11zm13-17a3 3 0 0 1-3-3v-3a1.001 1.001 0 0 1 1.429-.9C46.462 16.534 48 17.848 48 19a3 3 0 0 1-3 3zm8.409-9.036h-.082a1 1 0 0 1-.874-.515c-1-1.792-2.424-4.333-3.565-6.256a1 1 0 0 1 .046-1.092A4.993 4.993 0 0 1 58 8a4.96 4.96 0 0 1-4.591 4.964z" fill="#fff"/></svg>