<svg width="41" height="47" viewBox="0 0 41 47" fill="none" xmlns="http://www.w3.org/2000/svg">
<path d="M20.3737 27.374C17.4793 27.374 13.4526 31.908 13.4526 36.3714C13.4526 40.668 17.5001 42.6004 20.3737 42.6004C23.2473 42.6004 27.2948 40.668 27.2948 36.3714C27.2948 31.908 23.2681 27.374 20.3737 27.374ZM24.0938 38.9883C23.1539 38.2353 22.3407 37.9404 21.6714 38.1141C21.3712 38.2256 21.097 38.3971 20.8654 38.6182C20.6338 38.8393 20.4498 39.1054 20.3246 39.4001L19.04 38.8831C19.2461 38.3902 19.5554 37.9473 19.9471 37.5841C20.3388 37.2209 20.8038 36.946 21.3108 36.7777C22.4286 36.4842 23.6557 36.8635 24.9603 37.9072L24.0938 38.9883ZM20.3737 34.2951C19.1279 34.2951 16.2211 34.2951 16.2211 32.2188C16.2211 30.6608 18.1375 28.7582 20.3737 28.7582C22.6099 28.7582 24.5263 30.6608 24.5263 32.2188C24.5263 34.2951 21.6195 34.2951 20.3737 34.2951Z" fill="white"/>
<path d="M10.687 30.2102C10.6962 30.3937 10.7779 30.5661 10.9142 30.6894C11.0505 30.8127 11.2302 30.8769 11.4137 30.8677C11.5973 30.8585 11.7697 30.7768 11.893 30.6405C12.0163 30.5042 12.0804 30.3245 12.0712 30.141V29.208C11.559 29.4655 11.0916 29.8039 10.687 30.2102Z" fill="white"/>
<path d="M3.76369 22.5276C3.76197 22.974 3.90613 23.4089 4.17423 23.7659C4.44232 24.123 4.8197 24.3827 5.24895 24.5056C6.03449 23.0965 6.70237 21.9227 7.24152 21.0035C6.94581 20.7292 6.57641 20.5473 6.17871 20.4801C5.78101 20.4129 5.37233 20.4633 5.00291 20.6252C4.63348 20.7871 4.3194 21.0534 4.09924 21.3914C3.87909 21.7293 3.76246 22.1242 3.76369 22.5276Z" fill="white"/>
<path d="M20.3739 30.1416C18.7744 30.1416 17.6055 31.5071 17.6055 32.2179C17.6055 32.6643 18.589 32.91 20.3739 32.91C22.1588 32.91 23.1423 32.6643 23.1423 32.2179C23.1423 31.5071 21.9734 30.1416 20.3739 30.1416Z" fill="white"/>
<path d="M34.9074 20.4521C34.3872 20.4541 33.8869 20.6518 33.5059 21.0058C34.1613 22.1243 34.906 23.4448 35.4984 24.5079C35.9279 24.3849 36.3055 24.125 36.5736 23.7677C36.8417 23.4104 36.9857 22.9752 36.9837 22.5285C36.9837 21.9778 36.7649 21.4497 36.3756 21.0603C35.9862 20.6709 35.4581 20.4521 34.9074 20.4521Z" fill="white"/>
<path d="M36.1756 26.6913C37.1586 26.5123 38.0504 26.0012 38.7016 25.2433C39.3529 24.4855 39.7241 23.527 39.7531 22.5283C39.7531 20.2879 37.9391 17.6835 35.6005 17.6835C34.9054 17.6466 34.2125 17.7885 33.5878 18.0957C32.9632 18.4028 32.4278 18.865 32.0327 19.438C31.9793 19.5222 31.9084 19.5938 31.8247 19.648C31.7411 19.7023 31.6468 19.7378 31.5482 19.7522C31.4495 19.7672 31.3488 19.7602 31.2531 19.7319C31.1574 19.7035 31.0691 19.6545 30.9945 19.5882C29.6061 18.3583 27.9109 17.527 26.0885 17.1823C24.266 16.8376 22.3843 16.9923 20.6426 17.6302C20.4719 17.7001 20.2805 17.7001 20.1097 17.6302C18.3684 16.9922 16.4868 16.8373 14.6645 17.182C12.8423 17.5267 11.1473 18.3582 9.75927 19.5882C9.68486 19.6548 9.5966 19.7041 9.50086 19.7324C9.40511 19.7608 9.30426 19.7675 9.20558 19.7522C9.10697 19.7378 9.01262 19.7023 8.92901 19.648C8.84539 19.5938 8.77448 19.5222 8.72111 19.438C8.32547 18.8641 7.78913 18.4015 7.16347 18.0943C6.5378 17.7871 5.84375 17.6456 5.14776 17.6835C2.80913 17.6835 0.995117 20.2879 0.995117 22.5283C1.02416 23.527 1.39536 24.4855 2.04659 25.2433C2.69783 26.0012 3.58958 26.5123 4.57262 26.6913C4.67727 26.7093 4.77637 26.7512 4.86225 26.8136C4.94812 26.8761 5.01847 26.9575 5.06786 27.0515C5.11724 27.1455 5.14432 27.2496 5.14702 27.3558C5.14971 27.4619 5.12794 27.5673 5.08339 27.6637C2.10733 34.0934 3.16972 36.8742 6.32919 40.0337C9.32739 43.0319 15.184 44.5822 18.3303 45.4148C19.2536 45.6592 19.9305 45.8384 20.3741 46.0024C20.8178 45.8384 21.4946 45.6564 22.4179 45.4148C25.5642 44.5843 31.4208 43.0319 34.419 40.0337C37.5785 36.8742 38.6409 34.0934 35.6648 27.6637C35.6203 27.5673 35.5985 27.4619 35.6012 27.3558C35.6039 27.2496 35.631 27.1455 35.6804 27.0515C35.7297 26.9575 35.8001 26.8761 35.886 26.8136C35.9719 26.7512 36.071 26.7093 36.1756 26.6913ZM8.68581 21.2825C8.06637 22.3268 7.23238 23.7844 6.21845 25.613C6.15848 25.7208 6.07078 25.8106 5.96443 25.8732C5.85807 25.9357 5.73693 25.9687 5.61355 25.9687C5.59486 25.9687 5.57548 25.9687 5.55679 25.9687C4.64871 25.9214 3.79595 25.5178 3.18358 24.8456C2.57122 24.1734 2.24866 23.2868 2.28593 22.3782C2.3232 21.4697 2.71728 20.6125 3.38264 19.9927C4.04801 19.3729 4.93096 19.0405 5.83987 19.0677C6.39064 19.0691 6.93316 19.2017 7.42252 19.4544C7.91189 19.7072 8.33402 20.0728 8.65397 20.5211C8.73319 20.631 8.77843 20.7617 8.78409 20.897C8.78975 21.0324 8.75558 21.1664 8.68581 21.2825ZM25.603 21.9552C26.8495 22.774 28.1877 23.4439 29.5902 23.9512L29.1528 25.2662C27.632 24.7236 26.1821 23.9995 24.8347 23.1096L25.603 21.9552ZM27.9873 25.9888C27.9873 26.2626 27.9061 26.5302 27.754 26.7578C27.6019 26.9854 27.3857 27.1629 27.1328 27.2676C26.8799 27.3724 26.6015 27.3998 26.333 27.3464C26.0645 27.293 25.8179 27.1612 25.6243 26.9676C25.4307 26.774 25.2989 26.5273 25.2455 26.2588C25.192 25.9903 25.2195 25.712 25.3242 25.4591C25.429 25.2061 25.6064 24.99 25.834 24.8379C26.0617 24.6858 26.3293 24.6046 26.6031 24.6046C26.9702 24.6046 27.3223 24.7504 27.5819 25.01C27.8415 25.2696 27.9873 25.6217 27.9873 25.9888ZM15.1452 21.9524L15.9135 23.1041C14.5661 23.994 13.1163 24.7181 11.5954 25.2607L11.158 23.9457C12.5603 23.4392 13.8985 22.7702 15.1452 21.9524ZM15.5294 25.9888C15.5294 26.2626 15.4482 26.5302 15.2961 26.7578C15.144 26.9854 14.9278 27.1629 14.6749 27.2676C14.4219 27.3724 14.1436 27.3998 13.8751 27.3464C13.6066 27.293 13.3599 27.1612 13.1664 26.9676C12.9728 26.774 12.8409 26.5273 12.7875 26.2588C12.7341 25.9903 12.7615 25.712 12.8663 25.4591C12.9711 25.2061 13.1485 24.99 13.3761 24.8379C13.6038 24.6858 13.8714 24.6046 14.1451 24.6046C14.5123 24.6046 14.8643 24.7504 15.1239 25.01C15.3835 25.2696 15.5294 25.6217 15.5294 25.9888ZM9.3004 30.1414C9.3004 29.3441 10.3649 28.4347 12.464 27.4422C12.5693 27.3922 12.6856 27.3696 12.802 27.3765C12.9184 27.3834 13.0311 27.4196 13.1298 27.4818C13.2284 27.5439 13.3098 27.6299 13.3663 27.7319C13.4228 27.8339 13.4527 27.9485 13.453 28.0651V30.1414C13.453 30.6921 13.2343 31.2202 12.8449 31.6096C12.4555 31.999 11.9274 32.2177 11.3767 32.2177C10.826 32.2177 10.2979 31.999 9.90854 31.6096C9.51915 31.2202 9.3004 30.6921 9.3004 30.1414ZM20.3741 43.9836C16.2907 43.9836 12.0688 41.1362 12.0688 36.3704C12.0688 31.5187 16.4935 25.9888 20.3741 25.9888C24.2548 25.9888 28.6794 31.5187 28.6794 36.3704C28.6794 41.1362 24.4575 43.9836 20.3741 43.9836ZM35.1914 25.9639C35.1727 25.9639 35.1534 25.9639 35.1347 25.9639C35.0112 25.9638 34.89 25.9307 34.7837 25.8681C34.6773 25.8054 34.5896 25.7154 34.5298 25.6074C33.8377 24.3672 32.8521 22.6085 32.0624 21.2776C31.9938 21.1621 31.9603 21.0292 31.9659 20.895C31.9716 20.7608 32.0162 20.6311 32.0942 20.5218C32.5187 19.9232 33.1227 19.4753 33.8187 19.2429C34.5148 19.0104 35.2668 19.0056 35.9657 19.2291C36.6647 19.4526 37.2743 19.8929 37.7064 20.486C38.1385 21.0791 38.3705 21.7944 38.3689 22.5283C38.3722 23.3967 38.0461 24.234 37.4565 24.8716C36.8668 25.5091 36.0574 25.8994 35.1914 25.9639Z" fill="white"/>
<path d="M37.8774 6.4043L33.0339 15.4849L31.5452 14.6909L34.5032 5.56055L37.8774 6.4043Z" fill="white"/>
<path d="M30.3203 4.66797L29.3091 13.8631L27.8017 13.6973L27.2226 5.09013L30.3203 4.66797Z" fill="white"/>
<path d="M31.2974 15.5158L32.6372 16.2305L32.0814 17.2725L30.8905 16.6373L31.2974 15.5158Z" fill="white"/>
<path d="M27.8694 14.468L29.2261 14.6172L29.11 15.6724L27.9041 15.5397L27.8694 14.468Z" fill="white"/>
</svg>
