<svg width="135" height="135" fill="none" xmlns="http://www.w3.org/2000/svg"><circle cx="67.5" cy="67.5" r="67.5" fill="#1D2430"/><path d="M72.674 72.096V75H62.93v-2.904h3.408v-7.272c-.191.24-.52.496-.983.768a7.967 7.967 0 0 1-1.489.696c-.527.192-1 .288-1.416.288v-3c.288 0 .633-.088 1.032-.264.416-.192.825-.416 1.225-.672a9.144 9.144 0 0 0 1.056-.744c.303-.256.495-.456.575-.6h3.288v10.8h3.048zm14.14-4.128c0 1.408-.272 2.664-.816 3.768-.528 1.088-1.264 1.944-2.208 2.568-.928.624-1.984.936-3.168.936-1.184 0-2.248-.312-3.192-.936-.928-.624-1.664-1.48-2.208-2.568-.528-1.104-.792-2.36-.792-3.768s.264-2.656.792-3.744c.544-1.104 1.28-1.968 2.208-2.592.944-.64 2.008-.96 3.192-.96 1.184 0 2.24.32 3.168.96.944.624 1.68 1.488 2.208 2.592.544 1.088.816 2.336.816 3.744zm-3.24 0c0-1.28-.28-2.32-.84-3.12-.544-.816-1.248-1.224-2.112-1.224-.896 0-1.616.408-2.16 1.224-.544.8-.816 1.84-.816 3.12s.272 2.32.816 3.12c.544.8 1.264 1.2 2.16 1.2.864 0 1.568-.4 2.112-1.2.56-.8.84-1.84.84-3.12zm17.982 0c0 1.408-.272 2.664-.816 3.768-.528 1.088-1.264 1.944-2.208 2.568-.928.624-1.984.936-3.168.936-1.184 0-2.248-.312-3.192-.936-.928-.624-1.664-1.48-2.208-2.568-.528-1.104-.792-2.36-.792-3.768s.264-2.656.792-3.744c.544-1.104 1.28-1.968 2.208-2.592.944-.64 2.008-.96 3.192-.96 1.184 0 2.24.32 3.168.96.944.624 1.68 1.488 2.208 2.592.544 1.088.816 2.336.816 3.744zm-3.24 0c0-1.28-.28-2.32-.84-3.12-.544-.816-1.248-1.224-2.112-1.224-.896 0-1.616.408-2.16 1.224-.544.8-.816 1.84-.816 3.12s.272 2.32.816 3.12c.544.8 1.264 1.2 2.16 1.2.864 0 1.568-.4 2.112-1.2.56-.8.84-1.84.84-3.12zm9.222-2.976c-.736 0-1.408-.16-2.016-.48a4.014 4.014 0 0 1-1.416-1.32 3.404 3.404 0 0 1-.528-1.848c0-.672.176-1.28.528-1.824a3.814 3.814 0 0 1 1.416-1.296 4.098 4.098 0 0 1 2.016-.504c.736 0 1.4.168 1.992.504.608.32 1.088.752 1.44 1.296.352.544.528 1.152.528 1.824 0 .672-.176 1.288-.528 1.848a3.958 3.958 0 0 1-1.44 1.32c-.592.32-1.256.48-1.992.48zm-2.592 8.88 6.744-7.896 6.24-8.208 1.464 1.296-6.576 7.776-6.432 8.328-1.44-1.296zm2.592-10.488c.464 0 .864-.2 1.2-.6.336-.416.504-.896.504-1.44 0-.544-.168-1.016-.504-1.416-.336-.4-.736-.6-1.2-.6-.464 0-.864.2-1.2.6-.336.4-.504.872-.504 1.416 0 .56.168 1.04.504 1.44.336.4.736.6 1.2.6zm9.264 11.856c-.736 0-1.4-.16-1.992-.48a4.231 4.231 0 0 1-1.44-1.32 3.286 3.286 0 0 1-.528-1.824c0-.672.176-1.28.528-1.824.368-.56.848-1 1.44-1.32.592-.336 1.256-.504 1.992-.504s1.4.168 1.992.504a3.7 3.7 0 0 1 1.44 1.32c.352.544.528 1.152.528 1.824 0 .672-.176 1.28-.528 1.824a3.958 3.958 0 0 1-1.44 1.32c-.592.32-1.256.48-1.992.48zm0-1.608c.48 0 .88-.2 1.2-.6.336-.4.504-.872.504-1.416 0-.56-.168-1.04-.504-1.44-.336-.4-.736-.6-1.2-.6-.464 0-.864.208-1.2.624-.336.4-.504.872-.504 1.416 0 .544.168 1.016.504 1.416.336.4.736.6 1.2.6z" fill="#fff"/></svg>