<svg width="135" height="135" fill="none" xmlns="http://www.w3.org/2000/svg"><path d="M135 67.5A67.502 67.502 0 0 0 60.758.338a67.5 67.5 0 0 0-34.483 13.714L67.5 67.5H135z" fill="#4593A5"/><path d="M134.293 57.76A67.498 67.498 0 0 1 28.48 122.578 67.498 67.498 0 0 1 54.536 1.257a67.501 67.501 0 0 1 78.989 52.21L67.5 67.5l66.793-9.74z" fill="#1D2430"/><path d="M91.62 44.726c0 1.056-.205 1.998-.613 2.826-.396.816-.948 1.458-1.656 1.926-.696.468-1.488.702-2.376.702a4.245 4.245 0 0 1-2.394-.702c-.696-.468-1.248-1.11-1.656-1.926-.396-.828-.594-1.77-.594-2.826s.198-1.992.594-2.808c.408-.828.96-1.476 1.656-1.944a4.168 4.168 0 0 1 2.394-.72c.888 0 1.68.24 2.376.72.708.468 1.26 1.116 1.656 1.944.408.816.612 1.752.612 2.808zm-2.43 0c0-.96-.21-1.74-.63-2.34-.409-.612-.937-.918-1.585-.918-.672 0-1.212.306-1.62.918-.408.6-.612 1.38-.612 2.34s.204 1.74.612 2.34c.408.6.948.9 1.62.9.648 0 1.176-.3 1.584-.9.42-.6.63-1.38.63-2.34zm11.776 3.096V50h-7.308v-2.178h2.556v-5.454c-.144.18-.39.372-.738.576a5.975 5.975 0 0 1-1.116.522c-.396.144-.75.216-1.062.216v-2.25c.216 0 .474-.066.774-.198.312-.144.618-.312.918-.504.312-.192.576-.378.792-.558.228-.192.372-.342.432-.45h2.466v8.1h2.286zM105 42.494c-.552 0-1.056-.12-1.512-.36a3.01 3.01 0 0 1-1.062-.99 2.553 2.553 0 0 1-.396-1.386c0-.504.132-.96.396-1.368a2.86 2.86 0 0 1 1.062-.972c.456-.252.96-.378 1.512-.378s1.05.126 1.494.378c.456.24.816.564 1.08.972.264.408.396.864.396 1.368 0 .504-.132.966-.396 1.386a2.968 2.968 0 0 1-1.08.99 3.09 3.09 0 0 1-1.494.36zm-1.944 6.66 5.058-5.922 4.68-6.156 1.098.972-4.932 5.832-4.824 6.246-1.08-.972zM105 41.288c.348 0 .648-.15.9-.45a1.67 1.67 0 0 0 .378-1.08 1.6 1.6 0 0 0-.378-1.062c-.252-.3-.552-.45-.9-.45s-.648.15-.9.45a1.6 1.6 0 0 0-.378 1.062c0 .42.126.78.378 1.08.252.3.552.45.9.45zm6.948 8.892a3.09 3.09 0 0 1-1.494-.36 3.174 3.174 0 0 1-1.08-.99 2.464 2.464 0 0 1-.396-1.368c0-.504.132-.96.396-1.368.276-.42.636-.75 1.08-.99a2.973 2.973 0 0 1 1.494-.378c.552 0 1.05.126 1.494.378.456.24.816.57 1.08.99.264.408.396.864.396 1.368 0 .504-.132.96-.396 1.368a2.968 2.968 0 0 1-1.08.99 3.09 3.09 0 0 1-1.494.36zm0-1.206c.36 0 .66-.15.9-.45a1.6 1.6 0 0 0 .378-1.062c0-.42-.126-.78-.378-1.08-.252-.3-.552-.45-.9-.45s-.648.156-.9.468a1.6 1.6 0 0 0-.378 1.062c0 .408.126.762.378 1.062.252.3.552.45.9.45zM47.202 99.224c0-1.104.272-2.104.816-3a5.966 5.966 0 0 1 2.232-2.136c.944-.528 2-.792 3.168-.792 1.296 0 2.408.312 3.336.936.944.624 1.672 1.52 2.184 2.688.512 1.168.768 2.568.768 4.2 0 3.104-.6 5.472-1.8 7.104-1.184 1.648-2.784 2.472-4.8 2.472A6.468 6.468 0 0 1 50.13 110a6.39 6.39 0 0 1-2.304-1.992l1.848-2.016c.384.592.88 1.056 1.488 1.392a3.992 3.992 0 0 0 1.992.528c1.072 0 1.928-.424 2.568-1.272.64-.864.968-2.064.984-3.6-.32.576-.8 1.032-1.44 1.368-.624.336-1.336.504-2.136.504-1.12 0-2.128-.248-3.024-.744a5.942 5.942 0 0 1-2.136-2.04c-.512-.864-.768-1.832-.768-2.904zm6.216-3.216c-.576 0-1.104.152-1.584.456-.464.288-.84.68-1.128 1.176a3.021 3.021 0 0 0-.432 1.584c0 .576.136 1.104.408 1.584.288.464.672.84 1.152 1.128.48.272 1.008.408 1.584.408.576 0 1.096-.136 1.56-.408a3.38 3.38 0 0 0 1.152-1.128c.288-.48.432-1.008.432-1.584 0-.576-.144-1.104-.432-1.584a3.248 3.248 0 0 0-1.152-1.176c-.48-.304-1-.456-1.56-.456zm7.916 3.216c0-1.104.272-2.104.816-3a5.966 5.966 0 0 1 2.232-2.136c.944-.528 2-.792 3.168-.792 1.296 0 2.408.312 3.336.936.944.624 1.672 1.52 2.184 2.688.512 1.168.768 2.568.768 4.2 0 3.104-.6 5.472-1.8 7.104-1.184 1.648-2.784 2.472-4.8 2.472a6.468 6.468 0 0 1-2.976-.696 6.39 6.39 0 0 1-2.304-1.992l1.848-2.016c.384.592.88 1.056 1.488 1.392a3.992 3.992 0 0 0 1.992.528c1.072 0 1.928-.424 2.568-1.272.64-.864.968-2.064.984-3.6-.32.576-.8 1.032-1.44 1.368-.624.336-1.336.504-2.136.504-1.12 0-2.128-.248-3.024-.744a5.942 5.942 0 0 1-2.136-2.04c-.512-.864-.768-1.832-.768-2.904zm6.216-3.216c-.576 0-1.104.152-1.584.456-.464.288-.84.68-1.128 1.176a3.021 3.021 0 0 0-.432 1.584c0 .576.136 1.104.408 1.584.288.464.672.84 1.152 1.128.48.272 1.008.408 1.584.408.576 0 1.096-.136 1.56-.408a3.38 3.38 0 0 0 1.152-1.128c.288-.48.432-1.008.432-1.584 0-.576-.144-1.104-.432-1.584a3.248 3.248 0 0 0-1.152-1.176c-.48-.304-1-.456-1.56-.456zm11.95.984c-.737 0-1.409-.16-2.017-.48a4.014 4.014 0 0 1-1.416-1.32 3.404 3.404 0 0 1-.528-1.848c0-.672.176-1.28.528-1.824a3.814 3.814 0 0 1 1.416-1.296 4.098 4.098 0 0 1 2.016-.504c.736 0 1.4.168 1.992.504.608.32 1.088.752 1.44 1.296.352.544.528 1.152.528 1.824 0 .672-.176 1.288-.528 1.848a3.958 3.958 0 0 1-1.44 1.32c-.592.32-1.256.48-1.992.48zm-2.593 8.88 6.744-7.896 6.24-8.208 1.464 1.296-6.576 7.776-6.432 8.328-1.44-1.296zM79.5 95.384c.464 0 .864-.2 1.2-.6.336-.416.504-.896.504-1.44 0-.544-.168-1.016-.504-1.416-.336-.4-.736-.6-1.2-.6-.464 0-.864.2-1.2.6-.336.4-.504.872-.504 1.416 0 .56.168 1.04.504 1.44.336.4.736.6 1.2.6zm9.264 11.856c-.736 0-1.4-.16-1.992-.48a4.231 4.231 0 0 1-1.44-1.32 3.286 3.286 0 0 1-.528-1.824c0-.672.176-1.28.528-1.824.368-.56.848-1 1.44-1.32.592-.336 1.256-.504 1.992-.504s1.4.168 1.992.504a3.7 3.7 0 0 1 1.44 1.32c.352.544.528 1.152.528 1.824 0 .672-.176 1.28-.528 1.824a3.958 3.958 0 0 1-1.44 1.32c-.592.32-1.256.48-1.992.48zm0-1.608c.48 0 .88-.2 1.2-.6.336-.4.504-.872.504-1.416 0-.56-.168-1.04-.504-1.44-.336-.4-.736-.6-1.2-.6-.464 0-.864.208-1.2.624-.336.4-.504.872-.504 1.416 0 .544.168 1.016.504 1.416.336.4.736.6 1.2.6z" fill="#fff"/></svg>