<svg width="172" height="28" viewBox="0 0 172 28" fill="none" xmlns="http://www.w3.org/2000/svg">
<rect x="73" width="28" height="28" rx="14" fill="#C4C4C4"/>
<path d="M0 14C0 6.26801 6.26801 0 14 0C21.732 0 28 6.26801 28 14C28 21.732 21.732 28 14 28C6.26801 28 0 21.732 0 14Z" fill="#BF4A00"/>
<rect x="144" width="28" height="28" rx="14" fill="#C4C4C4"/>
<rect x="36" width="28" height="28" rx="14" fill="#C4C4C4"/>
<rect x="108" width="28" height="28" rx="14" fill="#C4C4C4"/>
<path d="M50 -6.11959e-07C46.287 -4.49658e-07 42.726 1.475 40.1005 4.1005C37.475 6.72601 36 10.287 36 14C36 17.713 37.475 21.274 40.1005 23.8995C42.726 26.525 46.287 28 50 28L50 14L50 -6.11959e-07Z" fill="#BF4A00"/>
</svg>
