<svg width="173" height="28" viewBox="0 0 173 28" fill="none" xmlns="http://www.w3.org/2000/svg">
<rect x="37" width="28" height="28" rx="14" fill="#C4C4C4"/>
<rect x="74" width="28" height="28" rx="14" fill="#C4C4C4"/>
<path d="M1 14C1 6.26801 7.26801 0 15 0C22.732 0 29 6.26801 29 14C29 21.732 22.732 28 15 28C7.26801 28 1 21.732 1 14Z" fill="#C4C4C4"/>
<rect x="145" width="28" height="28" rx="14" fill="#C4C4C4"/>
<rect x="109" width="28" height="28" rx="14" fill="#C4C4C4"/>
<path d="M0 14C0 6.26801 6.26801 0 14 0H15V28H14C6.26801 28 0 21.732 0 14Z" fill="url(#paint0_linear_1854_11192)"/>
<defs>
<linearGradient id="paint0_linear_1854_11192" x1="0" y1="14" x2="15" y2="14" gradientUnits="userSpaceOnUse">
<stop offset="0.296775" stop-color="#E75900"/>
<stop offset="0.296875" stop-color="#C4C4C4"/>
</linearGradient>
</defs>
</svg>
