<svg width="30" height="30" viewBox="0 0 30 30" fill="none" xmlns="http://www.w3.org/2000/svg">
<path fill-rule="evenodd" clip-rule="evenodd" d="M18.4778 18.8494C17.6846 19.92 15.039 20.1975 15.039 20.1975C15.039 20.1975 12.3371 19.9312 11.5421 18.8737C7.72652 18.8737 5.7334 24.3544 5.7334 24.3544H24.3447C24.3447 24.3525 22.7734 18.8494 18.4778 18.8494Z" fill="white"/>
<path fill-rule="evenodd" clip-rule="evenodd" d="M18.643 11.0963C18.643 13.0819 16.9911 16.875 14.9586 16.875C12.9186 16.875 11.2705 13.0819 11.2705 11.0963C11.2705 9.11063 12.9186 7.5 14.9586 7.5C16.9911 7.5 18.643 9.11063 18.643 11.0963Z" fill="white"/>
<path fill-rule="evenodd" clip-rule="evenodd" d="M26.4447 15.0394C25.7491 16.1176 23.5816 16.6913 23.5816 16.6913C23.5816 16.6913 21.0409 16.1269 20.3397 15.0657C20.3397 15.0657 20.3172 16.3107 19.2578 17.7582C22.6328 17.3232 24.0916 20.5763 24.0916 20.5763L29.9622 20.5875C29.9603 20.5857 30.2228 15.0394 26.4447 15.0394Z" fill="white"/>
<path fill-rule="evenodd" clip-rule="evenodd" d="M26.2307 8.49937C26.2307 10.0894 24.9894 13.1213 23.4575 13.1213C21.92 13.1213 20.6807 10.0894 20.6807 8.49937C20.6807 6.91312 21.9238 5.625 23.4575 5.625C24.9894 5.625 26.2307 6.915 26.2307 8.49937Z" fill="white"/>
<path fill-rule="evenodd" clip-rule="evenodd" d="M3.59609 15.0394C4.30484 16.1101 6.50046 16.6801 6.50046 16.6801C6.50046 16.6801 9.07484 16.1194 9.77796 15.0657C9.77796 15.0657 9.80421 16.3032 10.8767 17.7394C7.45671 17.3082 5.98296 20.5369 5.98296 20.5369L0.0392099 20.5463C0.0392099 20.5463 -0.228915 15.0394 3.59609 15.0394Z" fill="white"/>
<path fill-rule="evenodd" clip-rule="evenodd" d="M3.75398 8.5612C3.75398 10.1137 4.99898 13.0818 6.52711 13.0818C8.06273 13.0818 9.30211 10.1137 9.30211 8.5612C9.30483 8.19416 9.23519 7.83018 9.09718 7.49007C8.95917 7.14995 8.75549 6.84036 8.49778 6.579C8.24007 6.31763 7.93339 6.10961 7.59525 5.96682C7.25711 5.82404 6.89415 5.74928 6.52711 5.74683C6.16022 5.74952 5.79747 5.82446 5.45954 5.96736C5.12162 6.11026 4.81516 6.31832 4.55765 6.57966C4.30014 6.841 4.09662 7.1505 3.95873 7.4905C3.82084 7.83049 3.75126 8.19432 3.75398 8.5612Z" fill="white"/>
</svg>
