<svg width="286" height="70" viewBox="0 0 286 70" fill="none" xmlns="http://www.w3.org/2000/svg">
<path d="M17.8205 15.8959L10.8497 19.3667C10.627 19.4741 10.3807 19.5233 10.1338 19.5098C9.88692 19.4963 9.64749 19.4205 9.43782 19.2894C9.22815 19.1584 9.05509 18.9764 8.93476 18.7604C8.81443 18.5444 8.75075 18.3015 8.74967 18.0542V11.1126C8.74967 10.0334 9.88717 9.33339 10.8497 9.80005L17.7913 13.2709C18.8705 13.8251 18.8705 15.3417 17.8205 15.8959ZM52.4997 11.1126V18.0542C52.4997 19.1334 53.6372 19.8334 54.5997 19.3667L61.5413 15.8959C62.6205 15.3709 62.6205 13.8251 61.5413 13.3001L54.5997 9.82922C54.3799 9.71614 54.1347 9.6615 53.8877 9.67057C53.6406 9.67963 53.4001 9.7521 53.1892 9.88099C52.9783 10.0099 52.8041 10.1909 52.6833 10.4066C52.5625 10.6222 52.4993 10.8654 52.4997 11.1126ZM32.083 8.19589V15.1376C32.083 16.2167 33.2205 16.9167 34.183 16.4501L41.1247 12.9792C42.2038 12.4542 42.2038 10.9084 41.1247 10.3834L34.183 6.91255C33.9632 6.79947 33.718 6.74483 33.471 6.7539C33.224 6.76297 32.9834 6.83543 32.7725 6.96433C32.5616 7.09322 32.3874 7.27421 32.2666 7.4899C32.1459 7.70558 32.0826 7.9487 32.083 8.19589ZM14.583 29.2834C18.608 30.7126 25.5788 32.0834 34.9997 32.0834C44.4205 32.0834 51.3913 30.7126 55.4163 29.2834C55.4163 28.7584 47.308 26.2501 34.9997 26.2501C22.6913 26.2501 14.583 28.7584 14.583 29.2834ZM40.833 49.5834H29.1663C27.5622 49.5834 26.2497 50.8959 26.2497 52.5001V63.8167C14.408 62.6792 5.83301 59.3251 5.83301 55.4167V29.1667C5.83301 24.3251 18.8997 20.4167 34.9997 20.4167C51.0997 20.4167 64.1663 24.3251 64.1663 29.1667V55.4167C64.1663 59.3251 55.5913 62.6501 43.7497 63.7876V52.5001C43.7497 50.8959 42.4372 49.5834 40.833 49.5834Z" fill="#83700D"/>
<path d="M89.8205 15.8959L82.8497 19.3667C82.627 19.4741 82.3807 19.5233 82.1338 19.5098C81.8869 19.4963 81.6475 19.4205 81.4378 19.2894C81.2282 19.1584 81.0551 18.9764 80.9348 18.7604C80.8144 18.5444 80.7508 18.3015 80.7497 18.0542V11.1126C80.7497 10.0334 81.8872 9.33339 82.8497 9.80005L89.7913 13.2709C90.8705 13.8251 90.8705 15.3417 89.8205 15.8959ZM124.5 11.1126V18.0542C124.5 19.1334 125.637 19.8334 126.6 19.3667L133.541 15.8959C134.621 15.3709 134.621 13.8251 133.541 13.3001L126.6 9.82922C126.38 9.71614 126.135 9.6615 125.888 9.67057C125.641 9.67963 125.4 9.7521 125.189 9.88099C124.978 10.0099 124.804 10.1909 124.683 10.4066C124.563 10.6222 124.499 10.8654 124.5 11.1126ZM104.083 8.19589V15.1376C104.083 16.2167 105.221 16.9167 106.183 16.4501L113.125 12.9792C114.204 12.4542 114.204 10.9084 113.125 10.3834L106.183 6.91255C105.963 6.79947 105.718 6.74483 105.471 6.7539C105.224 6.76297 104.983 6.83543 104.773 6.96433C104.562 7.09322 104.387 7.27421 104.267 7.4899C104.146 7.70558 104.083 7.9487 104.083 8.19589ZM86.583 29.2834C90.608 30.7126 97.5788 32.0834 107 32.0834C116.421 32.0834 123.391 30.7126 127.416 29.2834C127.416 28.7584 119.308 26.2501 107 26.2501C94.6913 26.2501 86.583 28.7584 86.583 29.2834ZM112.833 49.5834H101.166C99.5622 49.5834 98.2497 50.8959 98.2497 52.5001V63.8167C86.408 62.6792 77.833 59.3251 77.833 55.4167V29.1667C77.833 24.3251 90.8997 20.4167 107 20.4167C123.1 20.4167 136.166 24.3251 136.166 29.1667V55.4167C136.166 59.3251 127.591 62.6501 115.75 63.7876V52.5001C115.75 50.8959 114.437 49.5834 112.833 49.5834Z" fill="#83700D"/>
<path d="M161.821 15.8959L154.85 19.3667C154.627 19.4741 154.381 19.5233 154.134 19.5098C153.887 19.4963 153.647 19.4205 153.438 19.2894C153.228 19.1584 153.055 18.9764 152.935 18.7604C152.814 18.5444 152.751 18.3015 152.75 18.0542V11.1126C152.75 10.0334 153.887 9.33339 154.85 9.80005L161.791 13.2709C162.871 13.8251 162.871 15.3417 161.821 15.8959ZM196.5 11.1126V18.0542C196.5 19.1334 197.637 19.8334 198.6 19.3667L205.541 15.8959C206.621 15.3709 206.621 13.8251 205.541 13.3001L198.6 9.82922C198.38 9.71614 198.135 9.6615 197.888 9.67057C197.641 9.67963 197.4 9.7521 197.189 9.88099C196.978 10.0099 196.804 10.1909 196.683 10.4066C196.563 10.6222 196.499 10.8654 196.5 11.1126ZM176.083 8.19589V15.1376C176.083 16.2167 177.221 16.9167 178.183 16.4501L185.125 12.9792C186.204 12.4542 186.204 10.9084 185.125 10.3834L178.183 6.91255C177.963 6.79947 177.718 6.74483 177.471 6.7539C177.224 6.76297 176.983 6.83543 176.773 6.96433C176.562 7.09322 176.387 7.27421 176.267 7.4899C176.146 7.70558 176.083 7.9487 176.083 8.19589ZM158.583 29.2834C162.608 30.7126 169.579 32.0834 179 32.0834C188.421 32.0834 195.391 30.7126 199.416 29.2834C199.416 28.7584 191.308 26.2501 179 26.2501C166.691 26.2501 158.583 28.7584 158.583 29.2834ZM184.833 49.5834H173.166C171.562 49.5834 170.25 50.8959 170.25 52.5001V63.8167C158.408 62.6792 149.833 59.3251 149.833 55.4167V29.1667C149.833 24.3251 162.9 20.4167 179 20.4167C195.1 20.4167 208.166 24.3251 208.166 29.1667V55.4167C208.166 59.3251 199.591 62.6501 187.75 63.7876V52.5001C187.75 50.8959 186.437 49.5834 184.833 49.5834Z" fill="#83700D"/>
<path d="M233.701 14.8578L226.731 18.3286C226.508 18.436 226.262 18.4852 226.015 18.4717C225.768 18.4582 225.528 18.3824 225.319 18.2514C225.109 18.1203 224.936 17.9383 224.816 17.7223C224.695 17.5063 224.632 17.2634 224.631 17.0161V10.0745C224.631 8.9953 225.768 8.2953 226.731 8.76197L233.672 12.2328C234.751 12.787 234.751 14.3036 233.701 14.8578ZM268.381 10.0745V17.0161C268.381 18.0953 269.518 18.7953 270.481 18.3286L277.422 14.8578C278.501 14.3328 278.501 12.787 277.422 12.262L270.481 8.79113C270.261 8.67805 270.016 8.62341 269.769 8.63248C269.521 8.64155 269.281 8.71401 269.07 8.84291C268.859 8.9718 268.685 9.15279 268.564 9.36848C268.443 9.58416 268.38 9.82728 268.381 10.0745ZM247.964 7.1578V14.0995C247.964 15.1786 249.101 15.8786 250.064 15.412L257.006 11.9411C258.085 11.4161 258.085 9.8703 257.006 9.3453L250.064 5.87447C249.844 5.76138 249.599 5.70675 249.352 5.71581C249.105 5.72488 248.864 5.79735 248.653 5.92624C248.442 6.05514 248.268 6.23613 248.147 6.45181C248.027 6.66749 247.964 6.91062 247.964 7.1578ZM230.464 28.2453C234.489 29.6745 241.46 31.0453 250.881 31.0453C260.301 31.0453 267.272 29.6745 271.297 28.2453C271.297 27.7203 263.189 25.212 250.881 25.212C238.572 25.212 230.464 27.7203 230.464 28.2453ZM256.714 48.5453H245.047C243.443 48.5453 242.131 49.8578 242.131 51.462V62.7786C230.289 61.6411 221.714 58.287 221.714 54.3786V28.1286C221.714 23.287 234.781 19.3786 250.881 19.3786C266.981 19.3786 280.047 23.287 280.047 28.1286V54.3786C280.047 58.287 271.472 61.612 259.631 62.7495V51.462C259.631 49.8578 258.318 48.5453 256.714 48.5453Z" fill="#E1DBCD"/>
<path d="M233.701 14.8578L226.731 18.3286C226.508 18.436 226.262 18.4852 226.015 18.4717C225.768 18.4582 225.528 18.3824 225.319 18.2514C225.109 18.1203 224.936 17.9383 224.816 17.7223C224.695 17.5063 224.632 17.2634 224.631 17.0161V10.0745C224.631 8.9953 225.768 8.2953 226.731 8.76197L233.672 12.2328C234.751 12.787 234.751 14.3036 233.701 14.8578ZM268.381 10.0745V17.0161C268.381 18.0953 269.518 18.7953 270.481 18.3286L277.422 14.8578C278.501 14.3328 278.501 12.787 277.422 12.262L270.481 8.79113C270.261 8.67805 270.016 8.62341 269.769 8.63248C269.521 8.64155 269.281 8.71401 269.07 8.84291C268.859 8.9718 268.685 9.15279 268.564 9.36848C268.443 9.58416 268.38 9.82728 268.381 10.0745ZM247.964 7.1578V14.0995C247.964 15.1786 249.101 15.8786 250.064 15.412L257.006 11.9411C258.085 11.4161 258.085 9.8703 257.006 9.3453L250.064 5.87447C249.844 5.76138 249.599 5.70675 249.352 5.71581C249.105 5.72488 248.864 5.79735 248.653 5.92624C248.442 6.05514 248.268 6.23613 248.147 6.45181C248.027 6.66749 247.964 6.91062 247.964 7.1578ZM230.464 28.2453C234.489 29.6745 241.46 31.0453 250.881 31.0453C260.301 31.0453 267.272 29.6745 271.297 28.2453C271.297 27.7203 263.189 25.212 250.881 25.212C238.572 25.212 230.464 27.7203 230.464 28.2453ZM256.714 48.5453H245.047C243.443 48.5453 242.131 49.8578 242.131 51.462V62.7786C230.289 61.6411 221.714 58.287 221.714 54.3786V28.1286C221.714 23.287 234.781 19.3786 250.881 19.3786C259.273 19.3786 266.842 20.4407 272.165 22.1434C277.053 23.707 276 24.1114 276 26.4291V55.0006C275.285 57.8577 277.428 58.5113 273.142 60.0333C269.621 61.2839 264.956 62.2379 259.631 62.7495V51.462C259.631 49.8578 258.318 48.5453 256.714 48.5453Z" fill="#83700D"/>
</svg>
