<svg width="219" height="49" viewBox="0 0 219 49" fill="none" xmlns="http://www.w3.org/2000/svg">
<path d="M12.4747 11.1271L7.59516 13.5567C7.43926 13.6319 7.26687 13.6663 7.09405 13.6569C6.92124 13.6474 6.75363 13.5943 6.60686 13.5026C6.4601 13.4109 6.33895 13.2835 6.25472 13.1323C6.17049 12.9811 6.12592 12.811 6.12516 12.638V7.77879C6.12516 7.02337 6.92141 6.53337 7.59516 6.86004L12.4543 9.28962C13.2097 9.67754 13.2097 10.7392 12.4747 11.1271ZM36.7502 7.77879V12.638C36.7502 13.3934 37.5464 13.8834 38.2202 13.5567L43.0793 11.1271C43.8347 10.7596 43.8347 9.67754 43.0793 9.31004L38.2202 6.88045C38.0663 6.80129 37.8947 6.76305 37.7217 6.7694C37.5488 6.77574 37.3805 6.82647 37.2328 6.9167C37.0852 7.00692 36.9632 7.13362 36.8787 7.28459C36.7942 7.43557 36.7499 7.60576 36.7502 7.77879ZM22.4585 5.73712V10.5963C22.4585 11.3517 23.2547 11.8417 23.9285 11.515L28.7877 9.08545C29.5431 8.71795 29.5431 7.63587 28.7877 7.26837L23.9285 4.83879C23.7746 4.75963 23.603 4.72138 23.4301 4.72773C23.2572 4.73408 23.0888 4.7848 22.9412 4.87503C22.7935 4.96526 22.6716 5.09195 22.587 5.24293C22.5025 5.39391 22.4582 5.56409 22.4585 5.73712ZM10.2085 20.4984C13.026 21.4988 17.9056 22.4584 24.5002 22.4584C31.0947 22.4584 35.9743 21.4988 38.7918 20.4984C38.7918 20.1309 33.116 18.375 24.5002 18.375C15.8843 18.375 10.2085 20.1309 10.2085 20.4984ZM28.5835 34.7084H20.4168C19.2939 34.7084 18.3752 35.6271 18.3752 36.75V44.6717C10.086 43.8755 4.0835 41.5275 4.0835 38.7917V20.4167C4.0835 17.0275 13.2302 14.2917 24.5002 14.2917C35.7702 14.2917 44.9168 17.0275 44.9168 20.4167V38.7917C44.9168 41.5275 38.9143 43.855 30.6252 44.6513V36.75C30.6252 35.6271 29.7064 34.7084 28.5835 34.7084Z" fill="#5A980C"/>
<path d="M69.4747 11.1271L64.5952 13.5567C64.4393 13.6319 64.2669 13.6663 64.0941 13.6569C63.9212 13.6474 63.7536 13.5943 63.6069 13.5026C63.4601 13.4109 63.339 13.2835 63.2547 13.1323C63.1705 12.9811 63.1259 12.811 63.1252 12.638V7.77879C63.1252 7.02337 63.9214 6.53337 64.5952 6.86004L69.4543 9.28962C70.2097 9.67754 70.2097 10.7392 69.4747 11.1271ZM93.7502 7.77879V12.638C93.7502 13.3934 94.5464 13.8834 95.2202 13.5567L100.079 11.1271C100.835 10.7596 100.835 9.67754 100.079 9.31004L95.2202 6.88045C95.0663 6.80129 94.8947 6.76305 94.7217 6.7694C94.5488 6.77574 94.3805 6.82647 94.2328 6.9167C94.0852 7.00692 93.9632 7.13362 93.8787 7.28459C93.7942 7.43557 93.7499 7.60576 93.7502 7.77879ZM79.4585 5.73712V10.5963C79.4585 11.3517 80.2547 11.8417 80.9285 11.515L85.7877 9.08545C86.5431 8.71795 86.5431 7.63587 85.7877 7.26837L80.9285 4.83879C80.7746 4.75963 80.603 4.72138 80.4301 4.72773C80.2572 4.73408 80.0888 4.7848 79.9412 4.87503C79.7935 4.96526 79.6716 5.09195 79.587 5.24293C79.5025 5.39391 79.4582 5.56409 79.4585 5.73712ZM67.2085 20.4984C70.026 21.4988 74.9056 22.4584 81.5002 22.4584C88.0947 22.4584 92.9743 21.4988 95.7918 20.4984C95.7918 20.1309 90.116 18.375 81.5002 18.375C72.8843 18.375 67.2085 20.1309 67.2085 20.4984ZM85.5835 34.7084H77.4168C76.2939 34.7084 75.3752 35.6271 75.3752 36.75V44.6717C67.086 43.8755 61.0835 41.5275 61.0835 38.7917V20.4167C61.0835 17.0275 70.2302 14.2917 81.5002 14.2917C92.7702 14.2917 101.917 17.0275 101.917 20.4167V38.7917C101.917 41.5275 95.9143 43.855 87.6252 44.6513V36.75C87.6252 35.6271 86.7064 34.7084 85.5835 34.7084Z" fill="#5A980C"/>
<path d="M182.391 12.4001L177.512 14.8297C177.356 14.9048 177.183 14.9393 177.011 14.9298C176.838 14.9204 176.67 14.8673 176.523 14.7756C176.377 14.6838 176.255 14.5564 176.171 14.4052C176.087 14.254 176.042 14.084 176.042 13.9109V9.05174C176.042 8.29632 176.838 7.80632 177.512 8.13299L182.371 10.5626C183.126 10.9505 183.126 12.0122 182.391 12.4001ZM206.667 9.05174V13.9109C206.667 14.6663 207.463 15.1563 208.137 14.8297L212.996 12.4001C213.751 12.0326 213.751 10.9505 212.996 10.583L208.137 8.1534C207.983 8.07424 207.811 8.036 207.638 8.04235C207.465 8.04869 207.297 8.09942 207.149 8.18964C207.002 8.27987 206.88 8.40656 206.795 8.55754C206.711 8.70852 206.666 8.87871 206.667 9.05174ZM192.375 7.01007V11.8692C192.375 12.6247 193.171 13.1147 193.845 12.788L198.704 10.3584C199.46 9.9909 199.46 8.90882 198.704 8.54132L193.845 6.11174C193.691 6.03258 193.519 5.99433 193.347 6.00068C193.174 6.00703 193.005 6.05775 192.858 6.14798C192.71 6.2382 192.588 6.3649 192.504 6.51588C192.419 6.66685 192.375 6.83704 192.375 7.01007ZM180.125 21.7713C182.942 22.7717 187.822 23.7313 194.417 23.7313C201.011 23.7313 205.891 22.7717 208.708 21.7713C208.708 21.4038 203.032 19.648 194.417 19.648C185.801 19.648 180.125 21.4038 180.125 21.7713ZM198.5 35.9813H190.333C189.21 35.9813 188.292 36.9001 188.292 38.023V45.9447C180.002 45.1484 174 42.8005 174 40.0647V21.6897C174 18.3005 183.147 15.5647 194.417 15.5647C205.687 15.5647 214.833 18.3005 214.833 21.6897V40.0647C214.833 42.8005 208.831 45.128 200.542 45.9242V38.023C200.542 36.9001 199.623 35.9813 198.5 35.9813Z" fill="#E1DBCD"/>
<path d="M126.391 12.4001L121.512 14.8297C121.356 14.9048 121.183 14.9393 121.011 14.9298C120.838 14.9204 120.67 14.8673 120.523 14.7756C120.377 14.6838 120.255 14.5564 120.171 14.4052C120.087 14.254 120.042 14.084 120.042 13.9109V9.05174C120.042 8.29632 120.838 7.80632 121.512 8.13299L126.371 10.5626C127.126 10.9505 127.126 12.0122 126.391 12.4001ZM150.667 9.05174V13.9109C150.667 14.6663 151.463 15.1563 152.137 14.8297L156.996 12.4001C157.751 12.0326 157.751 10.9505 156.996 10.583L152.137 8.1534C151.983 8.07424 151.811 8.036 151.638 8.04235C151.465 8.04869 151.297 8.09942 151.149 8.18964C151.002 8.27987 150.88 8.40656 150.795 8.55754C150.711 8.70852 150.666 8.87871 150.667 9.05174ZM136.375 7.01007V11.8692C136.375 12.6247 137.171 13.1147 137.845 12.788L142.704 10.3584C143.46 9.9909 143.46 8.90882 142.704 8.54132L137.845 6.11174C137.691 6.03258 137.519 5.99433 137.347 6.00068C137.174 6.00703 137.005 6.05775 136.858 6.14798C136.71 6.2382 136.588 6.3649 136.504 6.51588C136.419 6.66685 136.375 6.83704 136.375 7.01007ZM124.125 21.7713C126.942 22.7717 131.822 23.7313 138.417 23.7313C145.011 23.7313 149.891 22.7717 152.708 21.7713C152.708 21.4038 147.032 19.648 138.417 19.648C129.801 19.648 124.125 21.4038 124.125 21.7713ZM142.5 35.9813H134.333C133.21 35.9813 132.292 36.9001 132.292 38.023V45.9447C124.002 45.1484 118 42.8005 118 40.0647V21.6897C118 18.3005 127.147 15.5647 138.417 15.5647C149.687 15.5647 158.833 18.3005 158.833 21.6897V40.0647C158.833 42.8005 152.831 45.128 144.542 45.9242V38.023C144.542 36.9001 143.623 35.9813 142.5 35.9813Z" fill="#E1DBCD"/>
<g clip-path="url(#clip0_1392_9083)">
<path d="M126.391 12.4001L121.512 14.8297C121.356 14.9048 121.183 14.9393 121.011 14.9298C120.838 14.9204 120.67 14.8673 120.523 14.7756C120.377 14.6838 120.255 14.5564 120.171 14.4052C120.087 14.254 120.042 14.084 120.042 13.9109V9.05174C120.042 8.29632 120.838 7.80632 121.512 8.13299L126.371 10.5626C127.126 10.9505 127.126 12.0122 126.391 12.4001ZM150.667 9.05174V13.9109C150.667 14.6663 151.463 15.1563 152.137 14.8297L156.996 12.4001C157.751 12.0326 157.751 10.9505 156.996 10.583L152.137 8.1534C151.983 8.07424 151.811 8.036 151.638 8.04235C151.465 8.04869 151.297 8.09942 151.149 8.18964C151.002 8.27987 150.88 8.40656 150.795 8.55754C150.711 8.70852 150.666 8.87871 150.667 9.05174ZM136.375 7.01007V11.8692C136.375 12.6247 137.171 13.1147 137.845 12.788L142.704 10.3584C143.46 9.9909 143.46 8.90882 142.704 8.54132L137.845 6.11174C137.691 6.03258 137.519 5.99433 137.347 6.00068C137.174 6.00703 137.005 6.05775 136.858 6.14798C136.71 6.2382 136.588 6.3649 136.504 6.51588C136.419 6.66685 136.375 6.83704 136.375 7.01007ZM124.125 21.7713C126.942 22.7717 131.822 23.7313 138.417 23.7313C145.011 23.7313 149.891 22.7717 152.708 21.7713C152.708 21.4038 147.032 19.648 138.417 19.648C129.801 19.648 124.125 21.4038 124.125 21.7713ZM142.5 35.9813H134.333C133.21 35.9813 132.292 36.9001 132.292 38.023V45.9447C124.002 45.1484 118 42.8005 118 40.0647V21.6897C118 18.3005 127.147 15.5647 138.417 15.5647C149.687 15.5647 158.833 18.3005 158.833 21.6897V40.0647C158.833 42.8005 152.831 45.128 144.542 45.9242V38.023C144.542 36.9001 143.623 35.9813 142.5 35.9813Z" fill="#5A980C"/>
</g>
<defs>
<clipPath id="clip0_1392_9083">
<rect width="49" height="42" fill="white" transform="translate(76 4)"/>
</clipPath>
</defs>
</svg>
