<svg width="19" height="24" viewBox="0 0 19 24" fill="none" xmlns="http://www.w3.org/2000/svg">
<path d="M15.6342 7.61995C16.8217 9.65995 16.8811 12.1799 15.8123 14.2799C15.5154 14.8199 15.1592 15.2999 14.7436 15.7799L10.2311 20.7599C10.2311 20.7599 10.2311 20.7599 10.1717 20.8199C9.93418 21.0599 9.57793 20.9999 9.34043 20.7599L4.82793 15.7799C4.4123 15.2999 4.05605 14.8199 3.75918 14.2799C2.69043 12.1799 2.7498 9.65995 3.9373 7.61995C5.00605 5.63995 7.0248 4.37995 9.28105 4.19995C9.6373 4.19995 9.99355 4.19995 10.3498 4.19995C12.5467 4.37995 14.5061 5.63995 15.6342 7.61995ZM14.6842 13.7999C15.5748 12.0599 15.5154 9.95995 14.5654 8.21995C13.6748 6.59995 12.0123 5.51995 10.2311 5.39995C9.93418 5.39995 9.6373 5.39995 9.34043 5.39995C7.4998 5.51995 5.8373 6.59995 5.00605 8.21995C4.05605 9.95995 3.99668 11.9999 4.8873 13.7999C5.1248 14.2199 5.42168 14.6399 5.77793 14.9999L9.81543 19.4999L13.8529 14.9999C14.1498 14.6399 14.4467 14.2199 14.6842 13.7999Z" fill="#E2B71F"/>
<path d="M14.5752 8.21863C15.5389 9.99565 15.5991 12.0791 14.6957 13.9173C14.4548 14.4076 14.1536 14.8365 13.7922 15.2042L9.69664 19.7999L5.60103 15.1429C5.23966 14.7752 4.93851 14.3463 4.69759 13.9173C3.79415 12.1403 3.85438 9.99565 4.81805 8.21863C5.72149 6.56416 7.40792 5.52246 9.27503 5.3999C9.57618 5.3999 9.87733 5.3999 10.1785 5.3999C12.0456 5.52246 13.6718 6.56416 14.5752 8.21863Z" fill="#E2B71F"/>
<path d="M12.0811 13.4109V13.3453L12.0161 13.214V13.1484L11.9512 12.9514L11.8213 12.8202L11.6264 12.6889L11.4965 12.5576L11.3666 12.4263L11.1717 12.2294L11.1068 12.0981L10.9769 11.9669L10.847 11.7043L10.782 11.573L10.717 11.4418L10.5871 11.2448L10.5222 11.1136L10.3923 10.9823L10.3273 10.9166L10.1974 10.851L10.0675 10.7854L9.87264 10.7197H9.74273H9.54786H9.353L9.09318 10.7854L8.89831 10.9823L8.70345 11.1136L8.63849 11.3105L8.50858 11.4418L8.37867 11.7043L8.24876 11.9669L8.11885 12.1638L7.98895 12.3607L7.46931 12.8202V12.8858L7.3394 13.0171L7.20949 13.214V13.4109L7.14453 13.6078V13.8704V14.0017L7.20949 14.2642L7.3394 14.4611L7.46931 14.5924L7.59922 14.7237L7.72913 14.855L7.98895 14.9206L8.11885 14.9862H8.37867L8.57354 14.9206L8.7684 14.855L8.83336 14.7893L8.96327 14.7237L9.09318 14.658L9.15813 14.5924L9.28804 14.5268L9.41795 14.4611H9.54786H9.61282H9.80768H9.87264L10.0675 14.5924L10.2624 14.658L10.4572 14.7893L10.5871 14.9206L10.782 14.9862H10.9119H11.0418H11.1717L11.3016 14.9206L11.4965 14.855L11.6914 14.7237L11.8213 14.5924L11.9512 14.3955L12.0811 14.1986V14.0017L12.1461 13.8704V13.6735V13.6078L12.0811 13.4109Z" fill="white"/>
<path d="M11.509 9.35464C11.5769 8.7057 11.256 8.13945 10.7922 8.08987C10.3284 8.04029 9.89736 8.52617 9.82943 9.1751C9.7615 9.82403 10.0824 10.3903 10.5462 10.4399C11.01 10.4894 11.441 10.0036 11.509 9.35464Z" fill="white"/>
<path d="M8.69502 10.4529C9.15881 10.4033 9.47972 9.83702 9.41179 9.18809C9.34386 8.53916 8.91281 8.05328 8.44902 8.10286C7.98523 8.15244 7.66432 8.71869 7.73225 9.36762C7.80018 10.0166 8.23123 10.5024 8.69502 10.4529Z" fill="white"/>
<path d="M13.0209 11.2921C13.1612 10.6552 12.906 10.0558 12.4508 9.95333C11.9956 9.85088 11.5128 10.2842 11.3724 10.9211C11.232 11.558 11.4872 12.1574 11.9424 12.2598C12.3977 12.3623 12.8805 11.929 13.0209 11.2921Z" fill="white"/>
<path d="M7.3324 12.2669C7.78761 12.1644 8.04283 11.565 7.90245 10.9281C7.76207 10.2912 7.27925 9.85791 6.82403 9.96037C6.36882 10.0628 6.1136 10.6622 6.25398 11.2991C6.39436 11.9361 6.87719 12.3693 7.3324 12.2669Z" fill="white"/>
</svg>
