<svg width="198" height="100" viewBox="0 0 198 100" fill="none" xmlns="http://www.w3.org/2000/svg">
<path d="M24.8812 21.4883H8.51074L17.3952 99.2266H24.8812V21.4883Z" fill="#845F52"/>
<path d="M183.676 23.3853H173.035V99.2275H180.624L183.676 23.3853Z" fill="#845F52"/>
<path d="M0.000976562 0L0.328385 30.9164L6.71285 35.4518L0.000976562 38.3243V68.258H193.99V41.2723L188.67 35.8298L193.581 32.277L193.909 2.57007L0.000976562 0Z" fill="#A07A6B"/>
<path d="M188.669 35.8302C188.669 35.9057 147.907 35.9057 97.7315 35.8302C47.4743 35.7546 6.71191 35.5278 6.71191 35.4522C6.71191 35.3766 47.4743 35.3766 97.7315 35.4522C147.907 35.5278 188.669 35.7546 188.669 35.8302Z" fill="#845F52"/>
<path d="M118.113 67.351C118.113 67.351 118.031 67.2754 117.867 67.1242C117.703 66.9731 117.458 66.7463 117.212 66.4439C116.557 65.8392 115.739 65.0077 114.593 63.8739C112.301 61.6817 108.945 58.4314 104.525 54.803C100.105 51.1747 94.5392 47.0928 87.4181 43.9936C83.8984 42.4818 79.9695 41.1968 75.7951 40.5165C71.6206 39.8362 67.1187 39.7606 62.6987 40.2141C58.1968 40.6677 53.8587 41.5747 49.7661 42.7086C45.6735 43.8424 41.8264 45.2031 38.1431 46.4881C30.8582 49.2094 24.3919 51.855 18.7441 53.6692C13.0963 55.5589 8.34892 56.6928 5.07483 57.2219C1.80075 57.7511 0 57.9022 0 57.9022C0 57.9022 0.0818521 57.9022 0.327408 57.8266C0.572965 57.8266 0.900373 57.7511 1.30963 57.6755C2.21001 57.5999 3.43779 57.3731 5.07483 57.0707C8.34892 56.466 13.0145 55.3322 18.5804 53.4424C24.1464 51.5527 30.6127 48.907 37.8975 46.1857C41.5809 44.8251 45.4279 43.4645 49.5205 42.3306C53.6131 41.1968 57.9513 40.2141 62.535 39.8362C67.0369 39.3826 71.5387 39.4582 75.7951 40.1385C80.0514 40.8188 83.9803 42.1039 87.4999 43.6913C94.621 46.7905 100.269 50.9479 104.689 54.6519C109.109 58.3558 112.383 61.6062 114.675 63.8739C115.821 65.0077 116.639 65.8392 117.294 66.4439C117.54 66.7463 117.785 66.9731 117.949 67.1242C118.031 67.2754 118.113 67.351 118.113 67.351Z" fill="#845F52"/>
<path d="M152.409 50.9485C152.409 50.9485 152.246 51.024 151.918 51.2508C151.591 51.4776 151.1 51.7799 150.445 52.1579V52.0823C151.837 53.2162 154.21 55.1059 157.894 56.8445C161.577 58.5831 166.57 60.0949 172.463 60.3217C173.2 60.3217 173.937 60.3217 174.755 60.3217C175.492 60.2461 176.31 60.2461 177.047 60.1705C178.602 60.0193 180.239 59.7925 181.794 59.2634C183.35 58.7343 184.741 57.7516 185.396 56.2398C186.051 54.8036 185.887 53.065 185.232 51.5532C184.004 48.3784 181.058 45.8839 177.947 43.9186C174.755 41.8776 170.99 40.4414 167.061 39.6099C162.395 38.5517 157.566 38.4761 153.064 38.854C148.562 39.232 144.224 40.139 140.214 41.1217C136.203 42.18 132.356 43.3894 129.409 45.506C126.462 47.5469 124.498 50.4193 124.007 53.2918C123.761 54.728 123.925 56.0886 124.416 57.3736C124.825 58.5831 125.562 59.7169 126.299 60.624C127.854 62.4382 129.573 63.7232 130.964 64.7059C132.356 65.6886 133.584 66.3689 134.32 66.8224C134.729 67.0492 134.975 67.2004 135.221 67.3515C135.384 67.5027 135.548 67.5027 135.548 67.5027C135.548 67.5027 133.747 66.6712 130.882 64.8571C129.409 63.8744 127.69 62.6649 126.135 60.7752C125.316 59.8681 124.662 58.7343 124.171 57.4492C123.679 56.1642 123.516 54.728 123.761 53.2918C124.171 50.3437 126.217 47.3957 129.245 45.2792C132.274 43.1627 136.121 41.8776 140.132 40.8194C144.142 39.7611 148.481 38.854 153.064 38.4761C157.648 38.0981 162.395 38.1737 167.143 39.232C171.154 40.0635 174.919 41.5753 178.193 43.6162C179.83 44.5989 181.303 45.8083 182.613 47.0934C183.923 48.3784 184.987 49.8902 185.641 51.4776C186.296 53.065 186.46 54.8791 185.805 56.4665C185.15 58.0539 183.595 59.1122 181.958 59.6413C180.403 60.2461 178.684 60.3972 177.129 60.624C176.31 60.6996 175.574 60.6996 174.755 60.7752C174.018 60.7752 173.2 60.7752 172.463 60.7752C166.488 60.5484 161.413 58.961 157.73 57.2224C154.047 55.4839 151.673 53.5185 150.281 52.3847L150.199 52.3091H150.281C150.936 51.9311 151.427 51.6288 151.755 51.402C152.246 51.024 152.409 50.9485 152.409 50.9485Z" fill="#845F52"/>
<path d="M44.6912 15.1178C44.6912 15.1178 44.5275 15.1933 44.2001 15.2689C43.8727 15.3445 43.3816 15.4957 42.8086 15.6469C41.5809 15.9492 39.7801 16.3272 37.4883 16.7052C32.8227 17.4611 25.9471 18.2925 17.5163 17.6878C15.3882 17.5366 13.1782 17.3099 10.8863 17.0075C9.7404 16.7807 8.59447 16.4784 7.53039 15.9492C6.46632 15.4201 5.40224 14.6642 4.82927 13.5304C4.58372 13.0012 4.50187 12.3209 4.58372 11.7162C4.66557 11.1115 4.91113 10.5823 5.23853 10.0532C5.9752 8.99494 7.12113 8.23904 8.34891 7.7855C9.5767 7.33196 10.9682 7.10519 12.2778 6.87842C13.5874 6.65165 14.9789 6.42488 16.3704 6.27369C21.9364 5.4422 27.8297 4.83748 33.8868 4.6863C39.9438 4.53512 46.3283 4.76189 52.7128 5.82015C55.905 6.34928 59.0154 7.0296 62.0439 7.93668C63.5172 8.39022 65.0724 8.84376 66.3821 9.59967C67.7735 10.3556 68.9195 11.4894 69.4106 12.85C69.6561 13.5304 69.8198 14.2863 69.6561 15.0422C69.4924 15.7981 69.165 16.4784 68.6739 17.0075C67.6098 18.1414 66.2183 18.6705 64.8269 19.124C62.0439 19.9555 59.2609 20.5603 56.5598 21.2406C45.6735 23.8106 35.7694 25.398 27.3386 26.5319C18.9078 27.5901 12.1141 28.1193 7.36669 28.4216C4.99298 28.5728 3.19223 28.6484 1.8826 28.724C1.30963 28.724 0.818521 28.724 0.491113 28.7996C0.163704 28.7996 0 28.7996 0 28.7996C0 28.7996 0.163704 28.7996 0.491113 28.724C0.818521 28.724 1.30963 28.6484 1.8826 28.6484C3.11038 28.5728 4.99298 28.4972 7.28484 28.2705C12.0323 27.9681 18.826 27.3634 27.1749 26.2295C35.6875 25.0957 45.5916 23.4327 56.478 20.8626C59.1791 20.1823 61.962 19.5776 64.745 18.7461C66.1365 18.2925 67.4461 17.6878 68.4284 16.7052C68.9195 16.176 69.2469 15.5713 69.3287 14.9666C69.4924 14.2863 69.3287 13.606 69.0832 13.0012C68.5921 11.7162 67.528 10.6579 66.2184 9.97762C64.9087 9.22171 63.4354 8.76817 61.962 8.31463C58.9335 7.40755 55.8231 6.72724 52.6309 6.1981C46.2464 5.13984 39.9438 4.91307 33.8868 5.06425C27.8297 5.21543 21.9364 5.82015 16.4523 6.57606C15.0608 6.72724 13.6693 6.95401 12.3597 7.18078C11.05 7.40755 9.65855 7.63432 8.51262 8.08786C7.28484 8.5414 6.22076 9.22171 5.56594 10.2044C5.23853 10.6579 4.99298 11.1871 4.91113 11.7918C4.82927 12.3209 4.91113 12.9256 5.15668 13.3792C5.6478 14.4374 6.63002 15.1178 7.61225 15.6469C8.67632 16.176 9.82225 16.4784 10.8863 16.6296C13.1782 17.0075 15.3882 17.2343 17.4345 17.3855C25.8653 17.9902 32.7408 17.2343 37.4064 16.4784C39.7801 16.1004 41.499 15.7225 42.7268 15.4957C43.2998 15.3445 43.7909 15.2689 44.1183 15.1933C44.5275 15.1178 44.6912 15.1178 44.6912 15.1178Z" fill="#845F52"/>
<path d="M193.908 2.56982C193.908 2.56982 193.826 2.64541 193.662 2.79659C193.498 2.94778 193.253 3.17455 192.925 3.47691C192.271 4.00604 191.206 4.83753 189.815 5.66902C187.032 7.4076 182.448 9.37295 176.473 10.4312C173.526 10.9603 170.17 11.2627 166.651 11.4139C163.131 11.5651 159.284 11.5651 155.273 11.6407C147.252 11.7162 138.494 12.0186 129.326 12.9257C120.159 13.8328 111.482 15.3446 103.87 17.5367C96.258 19.6532 89.628 22.3745 84.3894 25.0957C79.1509 27.817 75.222 30.5382 72.6027 32.5036C71.9479 33.0327 71.3749 33.4862 70.8838 33.8642C70.3927 34.2421 69.9835 34.6201 69.6561 34.9225C69.3286 35.2248 69.0831 35.376 68.9194 35.5272C68.7557 35.6784 68.6738 35.7539 68.6738 35.7539C68.6738 35.7539 68.7557 35.6784 68.9194 35.5272C69.0831 35.376 69.3286 35.1492 69.6561 34.8469C69.9835 34.5445 70.3927 34.2421 70.8838 33.7886C71.3749 33.4106 71.9479 32.9571 72.6027 32.428C75.1401 30.387 79.069 27.5902 84.3894 24.8689C89.628 22.0721 96.258 19.3509 103.952 17.1587C111.646 14.9666 120.323 13.4548 129.49 12.5477C138.657 11.6407 147.497 11.4139 155.519 11.3383C159.53 11.2627 163.295 11.3383 166.896 11.1871C170.416 11.0359 173.772 10.7336 176.719 10.2044C182.694 9.22177 187.196 7.33201 190.06 5.59343C191.452 4.76194 192.516 4.00604 193.171 3.47691C193.498 3.25014 193.744 3.02337 193.908 2.87219C193.826 2.64541 193.908 2.56982 193.908 2.56982Z" fill="#845F52"/>
<path d="M142.095 27.1366C142.095 27.1366 142.176 27.1366 142.422 27.061C142.667 26.9854 142.995 26.9098 143.486 26.8342C144.386 26.683 145.778 26.4563 147.579 26.3051C149.379 26.1539 151.589 26.0027 154.127 26.0027C154.782 26.0027 155.436 26.0027 156.091 26.0027C156.419 26.0027 156.746 26.0027 157.155 26.0783C157.483 26.1539 157.892 26.2295 158.219 26.3807C158.874 26.7586 159.283 27.4389 159.365 28.1948C159.365 28.5728 159.283 28.9507 159.12 29.3287C158.956 29.631 158.629 30.009 158.301 30.2358C157.974 30.4625 157.483 30.5381 157.073 30.6137C156.664 30.6893 156.255 30.7649 155.846 30.7649C155.027 30.9161 154.209 30.9917 153.308 31.1429C151.589 31.3696 149.789 31.672 147.906 31.8988C144.223 32.4279 140.212 33.0326 136.037 33.6373C133.909 33.9397 131.781 34.2421 129.653 34.5444C127.443 34.8468 125.151 35.1491 122.859 34.5444C121.713 34.2421 120.649 33.7129 119.749 32.8814C118.93 32.0499 118.357 30.9917 118.357 29.7822C118.357 28.6484 119.012 27.5145 119.913 26.7586C120.813 26.0027 121.959 25.4736 123.105 25.02C127.607 23.2815 132.272 22.072 136.856 21.3917C139.148 21.0138 141.358 20.787 143.568 20.5602C145.778 20.3334 147.988 20.2579 150.034 20.1823C158.547 19.8799 166.159 20.2579 172.544 20.3334C178.928 20.409 184.085 20.2579 187.686 19.9555C189.487 19.8043 190.878 19.7287 191.779 19.5775C192.27 19.502 192.597 19.502 192.843 19.502C193.088 19.502 193.17 19.502 193.17 19.502C193.17 19.502 193.088 19.502 192.843 19.5775C192.597 19.5775 192.27 19.6531 191.779 19.7287C190.878 19.8799 189.487 20.0311 187.686 20.1823C184.085 20.4846 178.928 20.7114 172.544 20.6358C166.159 20.6358 158.547 20.2579 150.034 20.5602C147.906 20.6358 145.778 20.787 143.568 20.9382C141.358 21.0893 139.148 21.3917 136.856 21.7697C132.354 22.45 127.689 23.6594 123.187 25.398C122.041 25.8515 120.977 26.3807 120.158 27.061C119.258 27.7413 118.685 28.7996 118.685 29.8578C118.685 30.9161 119.176 31.8988 119.994 32.6547C120.813 33.4106 121.795 33.8641 122.859 34.1665C125.069 34.7712 127.361 34.4688 129.489 34.1665C131.699 33.8641 133.827 33.5617 135.874 33.2594C140.048 32.6547 144.059 32.1255 147.742 31.5964C149.625 31.3696 151.426 31.0673 153.145 30.8405C154.045 30.6893 154.863 30.6137 155.682 30.4625C156.091 30.3869 156.5 30.3114 156.91 30.3114C157.319 30.2358 157.646 30.1602 157.974 30.009C158.301 29.8578 158.547 29.5555 158.711 29.2531C158.874 28.9507 158.956 28.5728 158.956 28.2704C158.956 27.5901 158.547 26.9854 157.974 26.683C157.401 26.3051 156.664 26.3807 156.009 26.3051C155.355 26.3051 154.7 26.2295 154.045 26.2295C151.508 26.2295 149.298 26.3051 147.579 26.4563C145.778 26.6074 144.386 26.8342 143.486 26.9098C142.995 26.9854 142.667 27.061 142.422 27.061C142.176 27.1366 142.095 27.1366 142.095 27.1366Z" fill="#845F52"/>
<path d="M181.137 68.3842L188.013 63.2017L190.55 67.3098L178.764 75.9052L181.137 68.3842Z" fill="#845F52"/>
<path d="M61.08 22.032V24.146H59.204V22.032H61.08ZM61.08 25.77V32.07H59.204V25.77H61.08ZM71.6596 22.06V32H69.7416V27.758H65.2336V32H63.3016V22.06H65.2336V26.078H69.7416V22.06H71.6596ZM73.4813 29.256V24.664H75.3573V28.85C75.3573 29.9793 75.7633 30.544 76.5753 30.544C76.9393 30.544 77.2893 30.4367 77.6253 30.222C77.9706 29.998 78.2506 29.662 78.4653 29.214V24.664H80.3413V29.9C80.3413 30.1053 80.3739 30.25 80.4393 30.334C80.5046 30.4087 80.6213 30.4553 80.7893 30.474V32C80.6026 32.0373 80.4439 32.0607 80.3133 32.07C80.1919 32.0793 80.0799 32.084 79.9773 32.084C79.6413 32.084 79.3659 32.0093 79.1513 31.86C78.9459 31.7013 78.8246 31.4867 78.7873 31.216L78.7453 30.628C78.4186 31.132 77.9986 31.51 77.4853 31.762C76.9719 32.014 76.4073 32.14 75.7913 32.14C75.0353 32.14 74.4613 31.8973 74.0693 31.412C73.6773 30.9173 73.4813 30.1987 73.4813 29.256ZM86.5736 26.288C86.0042 26.288 85.4956 26.4 85.0476 26.624C84.5996 26.8387 84.2776 27.1513 84.0816 27.562V32H82.2056V24.664H83.9276V26.232C84.1796 25.728 84.5062 25.3313 84.9076 25.042C85.3182 24.7527 85.7476 24.594 86.1956 24.566C86.3916 24.566 86.5176 24.5707 86.5736 24.58V26.288ZM91.9876 26.288C91.4183 26.288 90.9096 26.4 90.4616 26.624C90.0136 26.8387 89.6916 27.1513 89.4956 27.562V32H87.6196V24.664H89.3416V26.232C89.5936 25.728 89.9203 25.3313 90.3216 25.042C90.7323 24.7527 91.1616 24.594 91.6096 24.566C91.8056 24.566 91.9316 24.5707 91.9876 24.58V26.288ZM92.4887 29.83C92.4887 29.354 92.6193 28.9387 92.8807 28.584C93.1513 28.22 93.5247 27.94 94.0007 27.744C94.4767 27.548 95.0227 27.45 95.6387 27.45C95.9467 27.45 96.2593 27.478 96.5767 27.534C96.894 27.5807 97.1693 27.6507 97.4027 27.744V27.352C97.4027 26.8853 97.2627 26.526 96.9827 26.274C96.712 26.022 96.306 25.896 95.7647 25.896C95.3633 25.896 94.9807 25.966 94.6167 26.106C94.2527 26.246 93.87 26.4513 93.4687 26.722L92.8667 25.49C93.352 25.1727 93.8467 24.9347 94.3507 24.776C94.864 24.6173 95.4007 24.538 95.9607 24.538C97.006 24.538 97.818 24.7993 98.3967 25.322C98.9847 25.8447 99.2787 26.5913 99.2787 27.562V29.9C99.2787 30.1053 99.3113 30.25 99.3767 30.334C99.442 30.4087 99.5587 30.4553 99.7267 30.474V32C99.5587 32.0373 99.4047 32.0607 99.2647 32.07C99.134 32.0887 99.022 32.098 98.9287 32.098C98.5553 32.098 98.2707 32.014 98.0747 31.846C97.8787 31.678 97.762 31.4727 97.7247 31.23L97.6827 30.852C97.356 31.272 96.9547 31.594 96.4787 31.818C96.012 32.0327 95.5313 32.14 95.0367 32.14C94.542 32.14 94.1033 32.042 93.7207 31.846C93.338 31.6407 93.0347 31.3653 92.8107 31.02C92.596 30.6653 92.4887 30.2687 92.4887 29.83ZM97.0527 30.208C97.286 29.984 97.4027 29.7693 97.4027 29.564V28.822C96.9173 28.626 96.4273 28.528 95.9327 28.528C95.438 28.528 95.0367 28.6353 94.7287 28.85C94.4207 29.0553 94.2667 29.3307 94.2667 29.676C94.2667 29.956 94.3787 30.208 94.6027 30.432C94.8267 30.656 95.1487 30.768 95.5687 30.768C95.8487 30.768 96.1193 30.7167 96.3807 30.614C96.6513 30.5113 96.8753 30.376 97.0527 30.208ZM101.396 28.262V21.962H103.272V28.262H101.396ZM101.396 32V29.886H103.272V32H101.396ZM58.372 41.68C58.372 41.16 58.464 40.648 58.648 40.144C58.84 39.64 59.116 39.184 59.476 38.776C59.836 38.368 60.276 38.044 60.796 37.804C61.316 37.556 61.908 37.432 62.572 37.432C63.348 37.432 64.024 37.604 64.6 37.948C65.176 38.292 65.604 38.74 65.884 39.292L64.612 40.168C64.468 39.848 64.28 39.596 64.048 39.412C63.816 39.228 63.564 39.096 63.292 39.016C63.028 38.936 62.772 38.896 62.524 38.896C62.108 38.896 61.744 38.98 61.432 39.148C61.128 39.316 60.872 39.536 60.664 39.808C60.456 40.08 60.3 40.384 60.196 40.72C60.1 41.056 60.052 41.392 60.052 41.728C60.052 42.232 60.156 42.704 60.364 43.144C60.572 43.576 60.864 43.928 61.24 44.2C61.616 44.472 62.052 44.608 62.548 44.608C62.804 44.608 63.068 44.564 63.34 44.476C63.62 44.388 63.876 44.248 64.108 44.056C64.34 43.864 64.52 43.616 64.648 43.312L66.004 44.092C65.828 44.516 65.552 44.876 65.176 45.172C64.8 45.46 64.376 45.684 63.904 45.844C63.432 45.996 62.964 46.072 62.5 46.072C61.892 46.072 61.336 45.948 60.832 45.7C60.336 45.444 59.904 45.108 59.536 44.692C59.168 44.268 58.88 43.796 58.672 43.276C58.472 42.748 58.372 42.216 58.372 41.68ZM69.8511 46.12C69.1711 46.12 68.5831 45.972 68.0871 45.676C67.5991 45.38 67.2191 44.988 66.9471 44.5C66.6751 44.004 66.5391 43.468 66.5391 42.892C66.5391 42.3 66.6711 41.756 66.9351 41.26C67.2071 40.756 67.5911 40.356 68.0871 40.06C68.5831 39.756 69.1751 39.604 69.8631 39.604C70.5511 39.604 71.1391 39.756 71.6271 40.06C72.1151 40.356 72.4871 40.752 72.7431 41.248C73.0071 41.736 73.1391 42.264 73.1391 42.832C73.1391 43.04 73.1271 43.22 73.1031 43.372H68.2431C68.2831 43.86 68.4631 44.244 68.7831 44.524C69.1111 44.804 69.4871 44.944 69.9111 44.944C70.2311 44.944 70.5311 44.868 70.8111 44.716C71.0991 44.556 71.2951 44.348 71.3991 44.092L72.7791 44.476C72.5471 44.956 72.1751 45.352 71.6631 45.664C71.1511 45.968 70.5471 46.12 69.8511 46.12ZM68.2071 42.352H71.4951C71.4471 41.88 71.2671 41.5 70.9551 41.212C70.6511 40.916 70.2791 40.768 69.8391 40.768C69.4071 40.768 69.0351 40.916 68.7231 41.212C68.4191 41.5 68.2471 41.88 68.2071 42.352ZM77.8627 41.104C77.3747 41.104 76.9387 41.2 76.5547 41.392C76.1707 41.576 75.8947 41.844 75.7267 42.196V46H74.1187V39.712H75.5947V41.056C75.8107 40.624 76.0907 40.284 76.4347 40.036C76.7867 39.788 77.1547 39.652 77.5387 39.628C77.7067 39.628 77.8147 39.632 77.8627 39.64V41.104ZM82.5033 41.104C82.0153 41.104 81.5793 41.2 81.1953 41.392C80.8113 41.576 80.5353 41.844 80.3673 42.196V46H78.7593V39.712H80.2353V41.056C80.4513 40.624 80.7313 40.284 81.0753 40.036C81.4273 39.788 81.7953 39.652 82.1793 39.628C82.3473 39.628 82.4553 39.632 82.5033 39.64V41.104ZM82.9328 44.14C82.9328 43.732 83.0448 43.376 83.2688 43.072C83.5008 42.76 83.8208 42.52 84.2288 42.352C84.6368 42.184 85.1048 42.1 85.6328 42.1C85.8968 42.1 86.1648 42.124 86.4368 42.172C86.7088 42.212 86.9448 42.272 87.1448 42.352V42.016C87.1448 41.616 87.0248 41.308 86.7848 41.092C86.5528 40.876 86.2048 40.768 85.7408 40.768C85.3968 40.768 85.0688 40.828 84.7568 40.948C84.4448 41.068 84.1168 41.244 83.7728 41.476L83.2568 40.42C83.6728 40.148 84.0968 39.944 84.5288 39.808C84.9688 39.672 85.4288 39.604 85.9088 39.604C86.8048 39.604 87.5008 39.828 87.9968 40.276C88.5008 40.724 88.7528 41.364 88.7528 42.196V44.2C88.7528 44.376 88.7808 44.5 88.8368 44.572C88.8928 44.636 88.9928 44.676 89.1368 44.692V46C88.9928 46.032 88.8608 46.052 88.7408 46.06C88.6288 46.076 88.5328 46.084 88.4528 46.084C88.1328 46.084 87.8888 46.012 87.7208 45.868C87.5528 45.724 87.4528 45.548 87.4208 45.34L87.3848 45.016C87.1048 45.376 86.7608 45.652 86.3528 45.844C85.9528 46.028 85.5408 46.12 85.1168 46.12C84.6928 46.12 84.3168 46.036 83.9888 45.868C83.6608 45.692 83.4008 45.456 83.2088 45.16C83.0248 44.856 82.9328 44.516 82.9328 44.14ZM86.8448 44.464C87.0448 44.272 87.1448 44.088 87.1448 43.912V43.276C86.7288 43.108 86.3088 43.024 85.8848 43.024C85.4608 43.024 85.1168 43.116 84.8528 43.3C84.5888 43.476 84.4568 43.712 84.4568 44.008C84.4568 44.248 84.5528 44.464 84.7448 44.656C84.9368 44.848 85.2128 44.944 85.5728 44.944C85.8128 44.944 86.0448 44.9 86.2688 44.812C86.5008 44.724 86.6928 44.608 86.8448 44.464ZM89.8714 42.856C89.8714 42.256 89.9914 41.708 90.2314 41.212C90.4714 40.716 90.8034 40.324 91.2274 40.036C91.6514 39.748 92.1354 39.604 92.6794 39.604C93.1434 39.604 93.5594 39.72 93.9274 39.952C94.3034 40.176 94.5954 40.464 94.8034 40.816V37.24H96.4114V44.2C96.4114 44.376 96.4394 44.5 96.4954 44.572C96.5514 44.636 96.6474 44.676 96.7834 44.692V46C96.4954 46.056 96.2674 46.084 96.0994 46.084C95.8114 46.084 95.5714 46.012 95.3794 45.868C95.1954 45.724 95.0914 45.536 95.0674 45.304L95.0434 44.908C94.8114 45.3 94.4954 45.6 94.0954 45.808C93.7034 46.016 93.2914 46.12 92.8594 46.12C92.2754 46.12 91.7594 45.976 91.3114 45.688C90.8634 45.392 90.5114 45 90.2554 44.512C89.9994 44.016 89.8714 43.464 89.8714 42.856ZM94.8034 43.696V42.196C94.6754 41.844 94.4554 41.552 94.1434 41.32C93.8314 41.088 93.5114 40.972 93.1834 40.972C92.8554 40.972 92.5674 41.064 92.3194 41.248C92.0714 41.424 91.8794 41.66 91.7434 41.956C91.6074 42.244 91.5394 42.556 91.5394 42.892C91.5394 43.236 91.6154 43.552 91.7674 43.84C91.9194 44.12 92.1234 44.344 92.3794 44.512C92.6434 44.672 92.9434 44.752 93.2794 44.752C93.5834 44.752 93.8834 44.652 94.1794 44.452C94.4834 44.252 94.6914 44 94.8034 43.696ZM100.894 46.12C100.206 46.12 99.6138 45.972 99.1178 45.676C98.6298 45.372 98.2538 44.972 97.9898 44.476C97.7258 43.98 97.5938 43.444 97.5938 42.868C97.5938 42.284 97.7258 41.744 97.9898 41.248C98.2618 40.752 98.6418 40.356 99.1298 40.06C99.6258 39.756 100.214 39.604 100.894 39.604C101.574 39.604 102.158 39.756 102.646 40.06C103.142 40.356 103.522 40.752 103.786 41.248C104.05 41.744 104.182 42.284 104.182 42.868C104.182 43.444 104.05 43.98 103.786 44.476C103.522 44.972 103.142 45.372 102.646 45.676C102.158 45.972 101.574 46.12 100.894 46.12ZM99.2498 42.868C99.2498 43.236 99.3218 43.564 99.4658 43.852C99.6098 44.132 99.8058 44.352 100.054 44.512C100.302 44.672 100.582 44.752 100.894 44.752C101.198 44.752 101.474 44.672 101.722 44.512C101.97 44.344 102.166 44.12 102.31 43.84C102.462 43.552 102.538 43.224 102.538 42.856C102.538 42.496 102.462 42.176 102.31 41.896C102.166 41.608 101.97 41.384 101.722 41.224C101.474 41.056 101.198 40.972 100.894 40.972C100.582 40.972 100.302 41.056 100.054 41.224C99.8058 41.384 99.6098 41.608 99.4658 41.896C99.3218 42.176 99.2498 42.5 99.2498 42.868ZM107.718 44.14C107.718 43.732 107.83 43.376 108.054 43.072C108.286 42.76 108.606 42.52 109.014 42.352C109.422 42.184 109.89 42.1 110.418 42.1C110.682 42.1 110.95 42.124 111.222 42.172C111.494 42.212 111.73 42.272 111.93 42.352V42.016C111.93 41.616 111.81 41.308 111.57 41.092C111.338 40.876 110.99 40.768 110.526 40.768C110.182 40.768 109.854 40.828 109.542 40.948C109.23 41.068 108.902 41.244 108.558 41.476L108.042 40.42C108.458 40.148 108.882 39.944 109.314 39.808C109.754 39.672 110.214 39.604 110.694 39.604C111.59 39.604 112.286 39.828 112.782 40.276C113.286 40.724 113.538 41.364 113.538 42.196V44.2C113.538 44.376 113.566 44.5 113.622 44.572C113.678 44.636 113.778 44.676 113.922 44.692V46C113.778 46.032 113.646 46.052 113.526 46.06C113.414 46.076 113.318 46.084 113.238 46.084C112.918 46.084 112.674 46.012 112.506 45.868C112.338 45.724 112.238 45.548 112.206 45.34L112.17 45.016C111.89 45.376 111.546 45.652 111.138 45.844C110.738 46.028 110.326 46.12 109.902 46.12C109.478 46.12 109.102 46.036 108.774 45.868C108.446 45.692 108.186 45.456 107.994 45.16C107.81 44.856 107.718 44.516 107.718 44.14ZM111.63 44.464C111.83 44.272 111.93 44.088 111.93 43.912V43.276C111.514 43.108 111.094 43.024 110.67 43.024C110.246 43.024 109.902 43.116 109.638 43.3C109.374 43.476 109.242 43.712 109.242 44.008C109.242 44.248 109.338 44.464 109.53 44.656C109.722 44.848 109.998 44.944 110.358 44.944C110.598 44.944 110.83 44.9 111.054 44.812C111.286 44.724 111.478 44.608 111.63 44.464ZM117.969 46.12C117.289 46.12 116.701 45.968 116.205 45.664C115.709 45.36 115.325 44.96 115.053 44.464C114.781 43.968 114.645 43.432 114.645 42.856C114.645 42.272 114.777 41.732 115.041 41.236C115.313 40.74 115.697 40.344 116.193 40.048C116.689 39.752 117.277 39.604 117.957 39.604C118.645 39.604 119.229 39.752 119.709 40.048C120.197 40.344 120.561 40.732 120.801 41.212L119.229 41.692C118.949 41.212 118.521 40.972 117.945 40.972C117.633 40.972 117.353 41.052 117.105 41.212C116.857 41.364 116.661 41.584 116.517 41.872C116.373 42.152 116.301 42.48 116.301 42.856C116.301 43.224 116.373 43.552 116.517 43.84C116.669 44.12 116.869 44.344 117.117 44.512C117.365 44.672 117.641 44.752 117.945 44.752C118.233 44.752 118.497 44.684 118.737 44.548C118.985 44.404 119.157 44.224 119.253 44.008L120.825 44.488C120.609 44.96 120.249 45.352 119.745 45.664C119.249 45.968 118.657 46.12 117.969 46.12ZM125.582 45.676C125.366 45.772 125.098 45.868 124.778 45.964C124.466 46.06 124.142 46.108 123.806 46.108C123.51 46.108 123.238 46.056 122.99 45.952C122.742 45.848 122.542 45.684 122.39 45.46C122.246 45.228 122.174 44.928 122.174 44.56V40.948H121.346V39.712H122.174V37.672H123.782V39.712H125.102V40.948H123.782V44.02C123.782 44.236 123.838 44.392 123.95 44.488C124.07 44.584 124.214 44.632 124.382 44.632C124.55 44.632 124.714 44.604 124.874 44.548C125.034 44.492 125.162 44.444 125.258 44.404L125.582 45.676ZM126.36 43.648V39.712H127.968V43.3C127.968 44.268 128.316 44.752 129.012 44.752C129.324 44.752 129.624 44.66 129.912 44.476C130.208 44.284 130.448 43.996 130.632 43.612V39.712H132.24V44.2C132.24 44.376 132.268 44.5 132.324 44.572C132.38 44.636 132.48 44.676 132.624 44.692V46C132.464 46.032 132.328 46.052 132.216 46.06C132.112 46.068 132.016 46.072 131.928 46.072C131.64 46.072 131.404 46.008 131.22 45.88C131.044 45.744 130.94 45.56 130.908 45.328L130.872 44.824C130.592 45.256 130.232 45.58 129.792 45.796C129.352 46.012 128.868 46.12 128.34 46.12C127.692 46.12 127.2 45.912 126.864 45.496C126.528 45.072 126.36 44.456 126.36 43.648ZM133.405 44.14C133.405 43.732 133.517 43.376 133.741 43.072C133.973 42.76 134.293 42.52 134.701 42.352C135.109 42.184 135.577 42.1 136.105 42.1C136.369 42.1 136.637 42.124 136.909 42.172C137.181 42.212 137.417 42.272 137.617 42.352V42.016C137.617 41.616 137.497 41.308 137.257 41.092C137.025 40.876 136.677 40.768 136.213 40.768C135.869 40.768 135.541 40.828 135.229 40.948C134.917 41.068 134.589 41.244 134.245 41.476L133.729 40.42C134.145 40.148 134.569 39.944 135.001 39.808C135.441 39.672 135.901 39.604 136.381 39.604C137.277 39.604 137.973 39.828 138.469 40.276C138.973 40.724 139.225 41.364 139.225 42.196V44.2C139.225 44.376 139.253 44.5 139.309 44.572C139.365 44.636 139.465 44.676 139.609 44.692V46C139.465 46.032 139.333 46.052 139.213 46.06C139.101 46.076 139.005 46.084 138.925 46.084C138.605 46.084 138.361 46.012 138.193 45.868C138.025 45.724 137.925 45.548 137.893 45.34L137.857 45.016C137.577 45.376 137.233 45.652 136.825 45.844C136.425 46.028 136.013 46.12 135.589 46.12C135.165 46.12 134.789 46.036 134.461 45.868C134.133 45.692 133.873 45.456 133.681 45.16C133.497 44.856 133.405 44.516 133.405 44.14ZM137.317 44.464C137.517 44.272 137.617 44.088 137.617 43.912V43.276C137.201 43.108 136.781 43.024 136.357 43.024C135.933 43.024 135.589 43.116 135.325 43.3C135.061 43.476 134.929 43.712 134.929 44.008C134.929 44.248 135.025 44.464 135.217 44.656C135.409 44.848 135.685 44.944 136.045 44.944C136.285 44.944 136.517 44.9 136.741 44.812C136.973 44.724 137.165 44.608 137.317 44.464ZM140.716 37.24H142.324V43.984C142.324 44.28 142.372 44.476 142.468 44.572C142.564 44.668 142.696 44.716 142.864 44.716C142.992 44.716 143.124 44.7 143.26 44.668C143.396 44.636 143.516 44.596 143.62 44.548L143.836 45.772C143.62 45.876 143.368 45.956 143.08 46.012C142.792 46.068 142.532 46.096 142.3 46.096C141.796 46.096 141.404 45.964 141.124 45.7C140.852 45.428 140.716 45.044 140.716 44.548V37.24ZM154.305 46H152.697V42.472C152.697 41.976 152.609 41.612 152.433 41.38C152.265 41.14 152.029 41.02 151.725 41.02C151.405 41.02 151.105 41.144 150.825 41.392C150.545 41.632 150.345 41.948 150.225 42.34V46H148.617V42.472C148.617 41.968 148.529 41.6 148.353 41.368C148.185 41.136 147.949 41.02 147.645 41.02C147.333 41.02 147.033 41.14 146.745 41.38C146.465 41.62 146.265 41.936 146.145 42.328V46H144.537V39.712H145.989V40.876C146.221 40.468 146.537 40.156 146.937 39.94C147.345 39.716 147.809 39.604 148.329 39.604C148.849 39.604 149.253 39.732 149.541 39.988C149.837 40.244 150.025 40.56 150.105 40.936C150.353 40.504 150.677 40.176 151.077 39.952C151.477 39.72 151.925 39.604 152.421 39.604C152.813 39.604 153.129 39.676 153.369 39.82C153.617 39.956 153.809 40.144 153.945 40.384C154.081 40.616 154.173 40.88 154.221 41.176C154.277 41.472 154.305 41.772 154.305 42.076V46ZM158.621 46.12C157.941 46.12 157.353 45.972 156.857 45.676C156.369 45.38 155.989 44.988 155.717 44.5C155.445 44.004 155.309 43.468 155.309 42.892C155.309 42.3 155.441 41.756 155.705 41.26C155.977 40.756 156.361 40.356 156.857 40.06C157.353 39.756 157.945 39.604 158.633 39.604C159.321 39.604 159.909 39.756 160.397 40.06C160.885 40.356 161.257 40.752 161.513 41.248C161.777 41.736 161.909 42.264 161.909 42.832C161.909 43.04 161.897 43.22 161.873 43.372H157.013C157.053 43.86 157.233 44.244 157.553 44.524C157.881 44.804 158.257 44.944 158.681 44.944C159.001 44.944 159.301 44.868 159.581 44.716C159.869 44.556 160.065 44.348 160.169 44.092L161.549 44.476C161.317 44.956 160.945 45.352 160.433 45.664C159.921 45.968 159.317 46.12 158.621 46.12ZM156.977 42.352H160.265C160.217 41.88 160.037 41.5 159.725 41.212C159.421 40.916 159.049 40.768 158.609 40.768C158.177 40.768 157.805 40.916 157.493 41.212C157.189 41.5 157.017 41.88 156.977 42.352ZM168.732 46H167.124V42.472C167.124 41.968 167.036 41.6 166.86 41.368C166.684 41.136 166.44 41.02 166.128 41.02C165.912 41.02 165.692 41.076 165.468 41.188C165.252 41.3 165.056 41.456 164.88 41.656C164.704 41.848 164.576 42.072 164.496 42.328V46H162.888V39.712H164.34V40.876C164.572 40.484 164.908 40.176 165.348 39.952C165.788 39.72 166.284 39.604 166.836 39.604C167.228 39.604 167.548 39.676 167.796 39.82C168.044 39.956 168.236 40.144 168.372 40.384C168.508 40.616 168.6 40.88 168.648 41.176C168.704 41.472 168.732 41.772 168.732 42.076V46ZM173.863 45.676C173.647 45.772 173.379 45.868 173.059 45.964C172.747 46.06 172.423 46.108 172.087 46.108C171.791 46.108 171.519 46.056 171.271 45.952C171.023 45.848 170.823 45.684 170.671 45.46C170.527 45.228 170.455 44.928 170.455 44.56V40.948H169.627V39.712H170.455V37.672H172.063V39.712H173.383V40.948H172.063V44.02C172.063 44.236 172.119 44.392 172.231 44.488C172.351 44.584 172.495 44.632 172.663 44.632C172.831 44.632 172.995 44.604 173.155 44.548C173.315 44.492 173.443 44.444 173.539 44.404L173.863 45.676ZM177.535 46.12C176.855 46.12 176.267 45.972 175.771 45.676C175.283 45.38 174.903 44.988 174.631 44.5C174.359 44.004 174.223 43.468 174.223 42.892C174.223 42.3 174.355 41.756 174.619 41.26C174.891 40.756 175.275 40.356 175.771 40.06C176.267 39.756 176.859 39.604 177.547 39.604C178.235 39.604 178.823 39.756 179.311 40.06C179.799 40.356 180.171 40.752 180.427 41.248C180.691 41.736 180.823 42.264 180.823 42.832C180.823 43.04 180.811 43.22 180.787 43.372H175.927C175.967 43.86 176.147 44.244 176.467 44.524C176.795 44.804 177.171 44.944 177.595 44.944C177.915 44.944 178.215 44.868 178.495 44.716C178.783 44.556 178.979 44.348 179.083 44.092L180.463 44.476C180.231 44.956 179.859 45.352 179.347 45.664C178.835 45.968 178.231 46.12 177.535 46.12ZM175.891 42.352H179.179C179.131 41.88 178.951 41.5 178.639 41.212C178.335 40.916 177.963 40.768 177.523 40.768C177.091 40.768 176.719 40.916 176.407 41.212C176.103 41.5 175.931 41.88 175.891 42.352ZM181.766 46V44.272H183.086V46H181.766Z" fill="white"/>
<g clip-path="url(#clip0_1585_10422)">
<path d="M43.7236 23.9757C43.7236 23.9757 46.1538 19.8457 48.0289 21.2993C49.9041 22.7528 47.3279 25.3081 46.6737 26.0464L43.7236 23.9757Z" fill="white"/>
<path d="M47.2697 29.0572C47.2697 29.0572 48.9404 30.2974 52.2176 25.0657C55.4947 19.8398 47.5501 18.1036 44.8337 18.1843C41.5741 18.2824 40.2363 23.8948 40.2363 23.8948L42.3569 24.4831C42.3569 24.4831 45.8326 18.5708 48.7768 20.5146C51.721 22.4585 47.9298 26.1674 46.9776 27.2403L47.2697 29.0572Z" fill="white"/>
<path d="M23.9846 23.7681C23.9846 23.7681 21.7239 19.9265 19.9773 21.2762C18.2306 22.626 20.6315 25.0024 21.2391 25.6946L23.9846 23.7681Z" fill="white"/>
<path d="M21.0224 27.0567C20.0702 25.9896 16.2789 22.2807 19.2231 20.3368C22.1673 18.3929 25.6431 24.3053 25.6431 24.3053L27.7637 23.7169C27.7637 23.7169 26.4259 18.1045 23.1663 18.0065C20.4441 17.92 12.5052 19.6562 15.7766 24.8821C19.0537 30.1138 20.7245 28.8736 20.7245 28.8736L21.0224 27.0567Z" fill="white"/>
<path d="M30.954 32.6338C30.9949 33.251 31.2344 34.8949 31.2519 35.714C29.8324 36.0659 28.4654 37.1387 27.9163 38.2289C26.1287 38.7019 24.3646 39.694 24.3646 41.2399C24.3646 43.1895 26.2281 44.2335 28.7458 44.2335C29.0905 44.2335 30.1712 44.2278 30.4925 44.1701C30.4925 44.2854 30.4925 44.4008 30.5042 44.5335C30.7378 46.6388 32.7006 47.1291 33.793 47.1291C34.8854 47.1291 37.1753 47.0022 37.409 44.8969C37.4265 44.7469 37.409 44.2739 37.409 44.0143C37.8062 44.1009 39.5996 44.2451 40.0319 44.2335C42.5613 44.1528 43.9575 43.0338 43.9575 41.0841C43.9575 39.4575 42.3452 38.5115 40.1078 38.4366C39.88 36.833 38.3962 36.0659 36.4042 35.5813C36.4159 34.7911 36.3517 33.2279 36.3925 32.6281C36.708 27.9386 40.6394 24.7488 44.343 24.1835C43.0929 23.0472 41.6442 22.3377 40.2188 21.8936C39.8391 21.7898 39.4594 21.6975 39.0914 21.6283L37.2863 26.0812L36.8716 21.311C36.4743 21.2764 36.1063 21.2591 35.7733 21.2476L34.2603 26.0812L32.1457 21.2476C31.7952 21.2591 31.3921 21.2822 30.9481 21.3283V25.4294L28.9152 21.6629C27.2445 22.0378 25.2759 22.7069 23.1787 23.924C26.8823 24.4892 30.6327 27.9443 30.954 32.6338ZM33.7872 36.2101C35.785 36.2101 37.4032 37.531 37.4032 39.1633C37.4032 40.4266 35.2359 41.5052 34.2603 41.9263C34.2428 41.932 34.2194 41.9378 34.2019 41.9436C34.237 42.63 34.4648 43.0972 34.8854 43.3049C35.7558 43.7259 37.1987 43.0395 37.2162 43.0338L37.444 43.3625C37.3915 43.3856 36.486 43.8182 35.5689 43.8182C35.2534 43.8182 34.9438 43.7663 34.6634 43.6336C34.348 43.4837 34.1143 43.2414 33.9624 42.9126C33.8047 43.2356 33.5769 43.4779 33.2614 43.6336C32.981 43.7663 32.6656 43.8182 32.356 43.8182C31.4447 43.8182 30.5334 43.3856 30.4808 43.3625L30.7086 43.0338C30.7203 43.0395 32.169 43.7259 33.0394 43.3049C33.4483 43.103 33.6703 42.6646 33.7171 42.0128C33.5827 42.0013 33.4483 41.9782 33.3198 41.9205C32.3384 41.4994 30.177 40.4208 30.177 39.1576C30.1712 37.5367 31.7893 36.2101 33.7872 36.2101Z" fill="white"/>
<path d="M50.278 29.9458C50.278 29.9458 50.2721 29.9458 50.278 29.9458C50.3481 30.0958 50.424 30.2515 50.5 30.3957C50.424 30.2457 50.3539 30.0958 50.278 29.9458Z" fill="white"/>
<path d="M30.9422 21.2935C30.9247 21.2935 30.9013 21.2992 30.8838 21.2992C30.9013 21.2992 30.9188 21.2992 30.9422 21.2935Z" fill="white"/>
<path d="M28.8915 21.5591C28.8798 21.5591 28.8681 21.5649 28.8506 21.5649C28.8681 21.5649 28.8798 21.5591 28.8915 21.5591Z" fill="white"/>
<path d="M17.5059 30.2005C17.5059 30.2005 17.5059 30.1938 17.5125 30.1938C17.5059 30.1938 17.5059 30.1938 17.5059 30.2005Z" fill="white"/>
<path d="M51.499 32.8182C47.5442 33.2047 42.4503 33.6027 44.378 32.8644C46.0371 32.2299 48.438 30.9609 50.2723 29.9457C50.0737 29.5477 49.8692 29.1497 49.6355 28.7344L45.8735 24.6679C41.4514 25.2505 37.4381 28.1057 37.0643 32.9105C37.0175 33.5219 37.0526 34.3237 37.0351 35.137C38.7525 35.6561 40.1195 36.5848 40.8263 37.7384C43.1279 38.1595 44.8278 39.5554 44.8278 41.2166C44.8278 43.2124 42.3919 44.8275 39.3951 44.8275C38.8752 44.8275 38.3787 44.7698 37.8996 44.6833C37.8996 44.8159 37.8996 44.9544 37.8821 45.1043C37.6017 47.2616 35.2592 47.7634 33.9565 47.7634C32.6538 47.7634 30.3113 47.2558 30.0309 45.1043C30.0134 44.9717 30.0134 44.8505 30.0134 44.7294C29.6278 44.7871 29.2248 44.8275 28.81 44.8275C25.8074 44.8275 23.3773 43.2124 23.3773 41.2166C23.3773 39.6304 24.9136 38.2922 27.0458 37.8019C27.7059 36.6771 28.9794 35.76 30.5976 35.2178C30.58 34.3756 30.6151 33.5392 30.5684 32.9048C30.1886 28.0999 26.1813 25.2389 21.7591 24.6621L18.2775 28.7286C17.9971 29.2247 17.7401 29.7092 17.5064 30.1822C19.2706 31.1512 21.4262 32.2703 22.9567 32.8528C24.7968 33.5566 20.252 33.2278 16.3965 32.8644C15.8182 34.6237 15.6254 36.1753 15.8006 37.5308L21.4554 36.5733L18.5462 42.0242C19.0895 42.4048 19.697 42.7509 20.3805 43.0451C22.2206 43.8353 24.0315 44.6948 25.7081 45.7792C27.3613 46.8463 30.0484 47.9999 33.9448 47.9999C37.8412 47.9999 40.5284 46.8463 42.1816 45.7792C43.8581 44.6948 45.669 43.8353 47.5092 43.0451C48.0232 42.8259 48.4847 42.5721 48.917 42.301L45.8618 36.5733L52.0773 37.6288C52.2876 36.2445 52.1066 34.641 51.499 32.8182ZM41.5331 31.7338C41.5331 31.3185 41.1943 30.984 40.7737 30.984C40.3531 30.984 40.0143 31.3185 40.0143 31.7338H39.3717C39.3717 30.9667 39.9968 30.3495 40.7737 30.3495C41.5507 30.3495 42.1757 30.9667 42.1757 31.7338H41.5331ZM27.1393 30.3495C27.9162 30.3495 28.5413 30.9667 28.5413 31.7338H27.8987C27.8987 31.3185 27.5599 30.984 27.1393 30.984C26.7187 30.984 26.3799 31.3185 26.3799 31.7338H25.7373C25.7373 30.9724 26.3624 30.3495 27.1393 30.3495Z" fill="white"/>
<path d="M32.1341 21.2417C31.7777 21.2417 31.3747 21.2648 30.9424 21.2936V21.2994C31.3747 21.2648 31.7777 21.2475 32.1341 21.2417Z" fill="white"/>
<path d="M18.5516 42.03C18.5282 42.0127 18.5107 41.9954 18.4932 41.9839C18.5165 41.9954 18.5341 42.0127 18.5516 42.03Z" fill="white"/>
</g>
<defs>
<clipPath id="clip0_1585_10422">
<rect width="38" height="30" fill="white" transform="translate(15 18)"/>
</clipPath>
</defs>
</svg>
