<svg width="63" height="58" viewBox="0 0 63 58" fill="none" xmlns="http://www.w3.org/2000/svg">
<path d="M2.56543 4.54297V56.8395H58.9827V4.54297H2.56543ZM3.43782 5.4147H16.4504V15.4563C12.9988 17.5916 10.5213 20.9885 9.5474 24.9212C8.57347 28.8539 9.18029 33.0107 11.2382 36.5032C11.3203 36.6417 11.3638 36.7995 11.3643 36.9604V50.5061C11.3644 50.9761 11.5516 51.4269 11.8849 51.7593C12.2182 52.0916 12.6701 52.2785 13.1414 52.2786H16.4504V55.9697H3.43782V5.4147ZM17.3228 5.4147H30.3371V14.1989C28.2422 13.3782 25.9937 13.0206 23.7468 13.1509C21.5 13.2811 19.3082 13.8961 17.3228 14.9533V5.4147ZM31.2094 5.4147H44.2237V14.4843C43.4281 13.9556 42.5088 13.6415 41.5553 13.5727C40.6018 13.5039 39.6467 13.6828 38.7832 14.0918C36.4118 15.214 33.6955 15.3719 31.2094 14.5321V5.4147ZM45.096 5.4147H58.1086V55.9696H45.096V45.2686C45.6498 45.0376 46.1643 44.7223 46.6211 44.3339C47.7579 43.3675 48.6782 42.1735 49.3226 40.8294C49.9669 39.4854 50.3207 38.0213 50.3611 36.5321C50.7899 32.5166 50.6361 28.4603 49.9044 24.4886C49.1315 21.0693 47.4737 17.9118 45.096 15.3306L45.096 5.4147ZM43.9578 23.7102C44.0888 23.7078 44.219 23.7316 44.3406 23.7803C44.4622 23.829 44.5727 23.9015 44.6657 23.9936C44.7586 24.0856 44.8321 24.1954 44.8817 24.3163C44.9314 24.4372 44.9562 24.5669 44.9546 24.6976C44.9545 24.9564 44.8513 25.2046 44.6678 25.3876C44.4842 25.5706 44.2353 25.6733 43.9758 25.6733C43.7162 25.6733 43.4673 25.5706 43.2838 25.3876C43.1002 25.2046 42.997 24.9564 42.9969 24.6976C42.9939 24.4398 43.0932 24.1912 43.2733 24.0063C43.4533 23.8213 43.6994 23.7149 43.9578 23.7102ZM41.4106 29.0173C41.5789 29.0211 41.7435 29.067 41.8894 29.1508C42.0353 29.2346 42.1577 29.3536 42.2455 29.4969C43.6177 31.7061 45.7969 33.2971 48.3232 33.9338C48.3547 33.9418 48.3822 33.961 48.4006 33.9877C48.419 34.0144 48.4271 34.0467 48.4234 34.0788C48.4197 34.111 48.4044 34.1409 48.3803 34.1626C48.3563 34.1844 48.3251 34.1967 48.2927 34.1973C46.8266 34.2308 45.3722 33.929 44.0413 33.3148C42.7104 32.7006 41.5383 31.7903 40.6149 30.654C40.4977 30.5109 40.4224 30.3383 40.3974 30.1552C40.3724 29.972 40.3986 29.7857 40.4732 29.6165C40.5478 29.4473 40.6678 29.3019 40.82 29.1965C40.9722 29.0912 41.1507 29.0298 41.3357 29.0192C41.3619 29.0182 41.3881 29.0182 41.4142 29.0192L41.4106 29.0173ZM39.8123 34.1716C39.8729 34.1704 39.9334 34.1752 39.9929 34.1861C41.1872 34.3907 42.3033 34.9152 43.2218 35.7036C43.6005 36.0284 43.9071 36.4285 44.1219 36.8783C44.3367 37.3281 44.4549 37.8176 44.4691 38.3155C44.4832 38.864 44.4398 39.4126 44.3395 39.9521C44.2836 40.2566 44.1306 40.5349 43.9033 40.7458C43.8387 40.8061 43.7729 40.8651 43.7057 40.9226C43.5751 41.0338 43.4237 41.1182 43.2604 41.171C43.097 41.2238 42.9248 41.2442 42.7536 41.2306C42.5824 41.2171 42.4156 41.17 42.2626 41.0921C42.1096 41.0142 41.9735 40.9071 41.8621 40.7767L40.5621 39.2557C40.4776 39.1568 40.3741 39.0759 40.2577 39.0176C40.1412 38.9594 40.0142 38.925 39.8842 38.9166C39.7542 38.9082 39.6239 38.926 39.5009 38.9688C39.3779 39.0116 39.2648 39.0786 39.1683 39.1659L37.2769 40.8737C37.0895 41.0428 36.9754 41.278 36.9589 41.5296C36.9424 41.7811 37.0247 42.0293 37.1884 42.2214L38.439 43.6844C39.1351 44.4993 40.0442 45.1057 41.0651 45.436C42.0861 45.7663 43.1789 45.8077 44.222 45.5555V55.971H31.2077V52.28H34.2236C34.4572 52.2804 34.6886 52.2348 34.9046 52.1459C35.1206 52.057 35.3169 51.9265 35.4823 51.7619C35.6477 51.5973 35.7789 51.4018 35.8685 51.1865C35.958 50.9713 36.0041 50.7405 36.0042 50.5074V39.6348C36.0037 39.4003 36.0948 39.1749 36.2581 39.0061C37.4433 37.7811 38.3728 36.3336 38.9927 34.7475C39.0573 34.5824 39.1691 34.44 39.3142 34.3379C39.4593 34.2357 39.6314 34.1784 39.8089 34.1731L39.8123 34.1716ZM20.5908 42.6328C20.608 42.6317 20.6251 42.6351 20.6405 42.6425C22.5754 43.4275 24.6956 43.6416 26.749 43.2593C26.7634 43.2566 26.7782 43.2571 26.7924 43.2607C26.8066 43.2642 26.8199 43.2708 26.8312 43.28C26.8426 43.2892 26.8518 43.3008 26.8582 43.3139C26.8646 43.3271 26.868 43.3415 26.8683 43.3561V50.5088C26.8684 50.9788 27.0557 51.4296 27.3889 51.7619C27.7222 52.0943 28.1741 52.281 28.6454 52.2811H30.3374V55.9722H17.3231V52.2811H18.7254C19.1967 52.281 19.6486 52.0943 19.9819 51.7619C20.3151 51.4296 20.5024 50.9788 20.5025 50.5088V42.7357C20.5024 42.7111 20.5113 42.6874 20.5277 42.6689C20.544 42.6504 20.5666 42.6386 20.5912 42.6357L20.5908 42.6328Z" fill="white"/>
</svg>
