<svg width="64" height="42" viewBox="0 0 64 42" fill="none" xmlns="http://www.w3.org/2000/svg">
<path d="M44.0003 17.6538V18.9998C43.987 19.265 44.0797 19.5246 44.2578 19.7216C44.436 19.9185 44.6851 20.0365 44.9503 20.0498C45.2155 20.0631 45.4751 19.9704 45.672 19.7923C45.8689 19.6141 45.987 19.365 46.0003 19.0998C45.4139 18.5155 44.7389 18.0275 44.0003 17.6538V17.6538Z" fill="white"/>
<path d="M32 15C27.818 15 22 21.551 22 28C22 34.208 27.848 37 32 37C36.152 37 42 34.208 42 28C42 21.551 36.182 15 32 15ZM37.375 31.781C36.017 30.693 34.842 30.267 33.875 30.518C33.4413 30.679 33.045 30.9268 32.7104 31.2463C32.3758 31.5658 32.1099 31.9502 31.929 32.376L30.073 31.629C30.3707 30.9169 30.8176 30.2769 31.3836 29.7522C31.9496 29.2275 32.6215 28.8301 33.354 28.587C34.969 28.163 36.742 28.711 38.627 30.219L37.375 31.781ZM32 25C30.2 25 26 25 26 22C26 19.749 28.769 17 32 17C35.231 17 38 19.749 38 22C38 25 33.8 25 32 25Z" fill="white"/>
<path d="M18.0049 19.0999C18.0181 19.3651 18.1362 19.6142 18.3331 19.7923C18.53 19.9705 18.7897 20.0631 19.0549 20.0499C19.3201 20.0366 19.5692 19.9185 19.7473 19.7216C19.9255 19.5247 20.0181 19.2651 20.0049 18.9999V17.6519C19.2648 18.0239 18.5894 18.5129 18.0049 19.0999V19.0999Z" fill="white"/>
<path d="M8.00002 8.00009C7.99755 8.64521 8.20583 9.27349 8.59319 9.78938C8.98056 10.3053 9.52581 10.6805 10.146 10.8581C11.281 8.82209 12.246 7.12609 13.025 5.79809C12.5978 5.40178 12.064 5.13892 11.4894 5.04182C10.9148 4.94471 10.3243 5.01759 9.79053 5.25149C9.25676 5.48539 8.80295 5.87013 8.48486 6.35843C8.16677 6.84673 7.99825 7.41732 8.00002 8.00009Z" fill="white"/>
<path d="M32 19C29.689 19 28 20.973 28 22C28 22.645 29.421 23 32 23C34.579 23 36 22.645 36 22C36 20.973 34.311 19 32 19Z" fill="white"/>
<path d="M52.9996 5C52.2481 5.00289 51.5252 5.28848 50.9746 5.8C51.9216 7.416 52.9976 9.324 53.8536 10.86C54.4742 10.6823 55.0196 10.3068 55.407 9.79049C55.7944 9.2742 56.0025 8.64546 55.9996 8C55.9996 7.20435 55.6835 6.44129 55.1209 5.87868C54.5583 5.31607 53.7953 5 52.9996 5V5Z" fill="white"/>
<path d="M54.831 14.0149C56.2514 13.7564 57.5398 13.0178 58.4808 11.9229C59.4217 10.8279 59.958 9.44303 60 7.99994C60 4.76294 57.379 0.999938 54 0.999938C52.9957 0.946624 51.9945 1.15166 51.092 1.59546C50.1896 2.03926 49.4159 2.707 48.845 3.53494C48.7679 3.65655 48.6654 3.76007 48.5446 3.83843C48.4238 3.91679 48.2875 3.96813 48.145 3.98894C48.0024 4.01053 47.8569 4.00049 47.7186 3.95953C47.5804 3.91857 47.4528 3.8477 47.345 3.75194C45.339 1.97494 42.8896 0.773757 40.2565 0.275711C37.6233 -0.222335 34.9044 0.0013091 32.388 0.922938C32.1413 1.02397 31.8647 1.02397 31.618 0.922938C29.102 0.00104558 26.3833 -0.222736 23.7504 0.275327C21.1175 0.773389 18.6685 1.97473 16.663 3.75194C16.5555 3.84817 16.428 3.91935 16.2896 3.96034C16.1513 4.00132 16.0056 4.01109 15.863 3.98894C15.7205 3.96813 15.5842 3.91679 15.4634 3.83843C15.3426 3.76007 15.2401 3.65655 15.163 3.53494C14.5914 2.70581 13.8164 2.03731 12.9124 1.59345C12.0084 1.14959 11.0056 0.945229 10 0.999938C6.621 0.999938 4 4.76294 4 7.99994C4.04197 9.44303 4.5783 10.8279 5.51924 11.9229C6.46018 13.0178 7.74864 13.7564 9.169 14.0149C9.32021 14.041 9.46339 14.1015 9.58747 14.1917C9.71155 14.282 9.8132 14.3996 9.88455 14.5354C9.9559 14.6712 9.99504 14.8217 9.99893 14.9751C10.0028 15.1284 9.97137 15.2807 9.907 15.4199C5.607 24.7099 7.142 28.7279 11.707 33.2929C16.039 37.6249 24.501 39.8649 29.047 41.0679C30.381 41.4209 31.359 41.6799 32 41.9169C32.641 41.6799 33.619 41.4169 34.953 41.0679C39.499 39.8679 47.961 37.6249 52.293 33.2929C56.858 28.7279 58.393 24.7099 54.093 15.4199C54.0286 15.2807 53.9972 15.1284 54.0011 14.9751C54.005 14.8217 54.0441 14.6712 54.1154 14.5354C54.1868 14.3996 54.2884 14.282 54.4125 14.1917C54.5366 14.1015 54.6798 14.041 54.831 14.0149V14.0149ZM15.112 6.19994C14.217 7.70894 13.012 9.81494 11.547 12.4569C11.4604 12.6127 11.3336 12.7426 11.18 12.8329C11.0263 12.9233 10.8513 12.9709 10.673 12.9709C10.646 12.9709 10.618 12.9709 10.591 12.9709C9.27895 12.9025 8.04682 12.3194 7.16203 11.3482C6.27725 10.3769 5.8112 9.09593 5.86505 7.7832C5.9189 6.47047 6.48829 5.23194 7.44965 4.33642C8.41101 3.44091 9.68675 2.96067 11 2.99994C11.7958 3.00196 12.5797 3.1935 13.2867 3.55868C13.9938 3.92386 14.6037 4.45219 15.066 5.09994C15.1805 5.25867 15.2458 5.44751 15.254 5.64304C15.2622 5.83857 15.2128 6.0322 15.112 6.19994V6.19994ZM39.555 7.17194C41.3561 8.35494 43.2896 9.32287 45.316 10.0559L44.684 11.9559C42.4866 11.172 40.3918 10.1257 38.445 8.83994L39.555 7.17194ZM43 12.9999C43 13.3955 42.8827 13.7822 42.6629 14.1111C42.4432 14.44 42.1308 14.6963 41.7654 14.8477C41.3999 14.9991 40.9978 15.0387 40.6098 14.9615C40.2219 14.8843 39.8655 14.6939 39.5858 14.4142C39.3061 14.1344 39.1156 13.7781 39.0384 13.3901C38.9613 13.0022 39.0009 12.6 39.1522 12.2346C39.3036 11.8691 39.56 11.5568 39.8889 11.337C40.2178 11.1172 40.6044 10.9999 41 10.9999C41.5304 10.9999 42.0391 11.2107 42.4142 11.5857C42.7893 11.9608 43 12.4695 43 12.9999ZM24.445 7.16794L25.555 8.83194C23.6082 10.1177 21.5134 11.164 19.316 11.9479L18.684 10.0479C20.7102 9.31614 22.6437 8.34955 24.445 7.16794V7.16794ZM25 12.9999C25 13.3955 24.8827 13.7822 24.6629 14.1111C24.4432 14.44 24.1308 14.6963 23.7654 14.8477C23.3999 14.9991 22.9978 15.0387 22.6098 14.9615C22.2219 14.8843 21.8655 14.6939 21.5858 14.4142C21.3061 14.1344 21.1156 13.7781 21.0384 13.3901C20.9613 13.0022 21.0009 12.6 21.1522 12.2346C21.3036 11.8691 21.56 11.5568 21.8889 11.337C22.2178 11.1172 22.6044 10.9999 23 10.9999C23.5304 10.9999 24.0391 11.2107 24.4142 11.5857C24.7893 11.9608 25 12.4695 25 12.9999ZM16 18.9999C16 17.8479 17.538 16.5339 20.571 15.0999C20.7232 15.0277 20.8911 14.995 21.0593 15.005C21.2275 15.015 21.3904 15.0673 21.5329 15.1571C21.6755 15.2469 21.793 15.3712 21.8747 15.5185C21.9563 15.6659 21.9994 15.8315 22 15.9999V18.9999C22 19.7956 21.6839 20.5586 21.1213 21.1213C20.5587 21.6839 19.7956 21.9999 19 21.9999C18.2044 21.9999 17.4413 21.6839 16.8787 21.1213C16.3161 20.5586 16 19.7956 16 18.9999V18.9999ZM32 38.9999C26.1 38.9999 20 34.8859 20 27.9999C20 20.9899 26.393 12.9999 32 12.9999C37.607 12.9999 44 20.9899 44 27.9999C44 34.8859 37.9 38.9999 32 38.9999ZM45 21.9999C44.2044 21.9999 43.4413 21.6839 42.8787 21.1213C42.3161 20.5586 42 19.7956 42 18.9999V15.9999C42.0006 15.8315 42.0437 15.6659 42.1253 15.5185C42.207 15.3712 42.3245 15.2469 42.4671 15.1571C42.6096 15.0673 42.7725 15.015 42.9407 15.005C43.1089 14.995 43.2768 15.0277 43.429 15.0999C46.462 16.5339 48 17.8479 48 18.9999C48 19.7956 47.6839 20.5586 47.1213 21.1213C46.5587 21.6839 45.7956 21.9999 45 21.9999ZM53.409 12.9639C53.382 12.9639 53.354 12.9639 53.327 12.9639C53.1486 12.9638 52.9735 12.916 52.8198 12.8255C52.6662 12.7349 52.5395 12.6049 52.453 12.4489C51.453 10.6569 50.029 8.11594 48.888 6.19294C48.7889 6.02609 48.7404 5.834 48.7486 5.6401C48.7568 5.4462 48.8212 5.25886 48.934 5.10094C49.5473 4.23602 50.42 3.58879 51.4257 3.25298C52.4314 2.91718 53.5178 2.91024 54.5277 3.23318C55.5377 3.55611 56.4185 4.19214 57.0428 5.04916C57.6671 5.90617 58.0023 6.93966 58 7.99994C58.0047 9.25466 57.5336 10.4645 56.6817 11.3857C55.8297 12.3069 54.6603 12.8708 53.409 12.9639V12.9639Z" fill="white"/>
</svg>
