<svg width="40" height="39" viewBox="0 0 40 39" fill="none" xmlns="http://www.w3.org/2000/svg">
<path d="M38.75 20.1288C38.75 17.3448 35.6315 15.2909 31.275 14.0336C31.44 13.504 31.59 12.982 31.7125 12.4754C32.954 7.36512 31.6375 5.24767 30.316 4.37105C27.75 2.66977 23.8125 4.69865 20 8.34389C16.1861 4.69852 12.2479 2.67002 9.68437 4.37105C8.36237 5.24767 7.04688 7.36524 8.28788 12.4754C8.41075 12.982 8.56075 13.504 8.72538 14.0336C4.3685 15.2909 1.25 17.3448 1.25 20.1288C1.25 22.9128 4.36862 24.9671 8.725 26.2243C8.56 26.754 8.40987 27.2761 8.2875 27.7829C7.046 32.8925 8.3625 35.0093 9.684 35.8866C10.3235 36.3043 11.0726 36.52 11.8349 36.5058C13.2289 36.5058 15.1185 35.8853 17.6331 33.981C18.4599 33.3476 19.2501 32.6674 20 31.9435C20.7499 32.6674 21.5402 33.3476 22.367 33.981C24.8816 35.8866 26.7712 36.5058 28.1652 36.5058C28.9275 36.52 29.6766 36.3043 30.3161 35.8866C31.6381 35.0093 32.9536 32.8924 31.7126 27.7829C31.5898 27.2761 31.4396 26.754 31.2751 26.2243C35.6314 24.9671 38.75 22.9132 38.75 20.1288ZM28.1714 6.27286C28.4419 6.26188 28.7098 6.33108 28.9416 6.47189C29.6301 6.92957 30.083 8.58934 29.2846 11.8783C29.1619 12.3847 29.007 12.9099 28.8374 13.4424C27.2223 13.1165 25.5896 12.886 23.9478 12.752C23.234 11.8373 22.4954 10.9613 21.7404 10.1352C24.4356 7.57433 26.8026 6.27286 28.1714 6.27286ZM26.2625 24.2827C26.5929 23.778 26.912 23.2715 27.2196 22.7633C27.4875 23.3284 27.7426 23.8898 27.9713 24.4416C27.3253 24.5674 26.6402 24.6751 25.9303 24.7711C26.04 24.6075 26.1535 24.4486 26.2625 24.2827ZM25.9294 15.4866C26.6395 15.5825 27.3249 15.6909 27.9709 15.8162C27.7422 16.368 27.4871 16.9294 27.2192 17.4947C26.9118 16.987 26.5928 16.4807 26.2622 15.9757C26.1545 15.811 26.0394 15.6501 25.9294 15.4866ZM25.8568 20.1288C25.3382 21.0511 24.7775 21.9774 24.1747 22.8979C23.6807 23.6528 23.1696 24.3759 22.6514 25.0797C21.7961 25.1279 20.919 25.1611 20 25.1611C19.081 25.1611 18.204 25.1279 17.3487 25.0798C16.8305 24.376 16.3193 23.6526 15.8253 22.8981C15.2225 21.9775 14.6617 21.0512 14.1432 20.1289C14.6617 19.2066 15.2225 18.2806 15.8253 17.3602C16.3294 16.5899 16.8377 15.8686 17.3471 15.1779C18.2029 15.1298 19.0804 15.0966 20 15.0966C20.9196 15.0966 21.797 15.1299 22.6526 15.1779C23.1618 15.8686 23.6705 16.5899 24.1747 17.3602C24.7775 18.2806 25.3382 19.2066 25.8568 20.1288ZM20 11.9225C20.1987 12.1416 20.3971 12.3594 20.5974 12.5912C20.3981 12.5887 20.1986 12.5804 20 12.5804C19.8014 12.5804 19.6016 12.5887 19.4025 12.5912C19.6029 12.3594 19.8013 12.1416 20 11.9225ZM11.0584 6.47189C11.2902 6.33108 11.5581 6.26188 11.8286 6.27286C13.1973 6.27286 15.5642 7.57446 18.2593 10.1351C17.5044 10.9614 16.7657 11.8373 16.0521 12.7519C14.4103 12.8858 12.7777 13.1163 11.1626 13.4423C10.993 12.9095 10.8376 12.3845 10.7154 11.8782C9.917 8.58934 10.3699 6.92957 11.0584 6.47189ZM12.7809 22.7629C13.0882 23.2703 13.4072 23.7764 13.7378 24.2814C13.8469 24.4479 13.9605 24.6068 14.0709 24.7712C13.3606 24.6752 12.6751 24.5669 12.029 24.4416C12.2578 23.8897 12.5125 23.3282 12.7809 22.7629ZM12.0291 15.816C12.6751 15.6902 13.3605 15.5824 14.0706 15.4864C13.9606 15.65 13.8456 15.811 13.7378 15.9756C13.4075 16.48 13.0885 16.9864 12.7808 17.4945C12.5125 16.9293 12.2577 16.3678 12.0291 15.816ZM9.57275 23.8587C5.87412 22.8071 3.75 21.3144 3.75 20.1288C3.75 18.9432 5.87413 17.4505 9.57263 16.3989C10.0861 17.6707 10.6631 18.9156 11.3013 20.1288C10.6632 21.3421 10.0863 22.587 9.57275 23.8587ZM16.1304 31.9698C13.4429 34.0069 11.7469 34.2439 11.0584 33.7857C10.3699 33.3275 9.917 31.6677 10.7154 28.38C10.8381 27.8735 10.993 27.3483 11.1626 26.8153C12.7736 27.1403 14.4021 27.3705 16.0398 27.5046C16.7648 28.4403 17.5031 29.321 18.2547 30.1465C17.5812 30.7939 16.8719 31.4026 16.1304 31.9698ZM20 28.344C19.801 28.1236 19.6032 27.8965 19.4054 27.6668C19.6035 27.6693 19.8022 27.6775 20 27.6775C20.1978 27.6775 20.3965 27.6693 20.5946 27.6668C20.3968 27.8962 20.199 28.1233 20 28.344ZM28.9416 33.786C28.2495 34.2442 26.5589 34.0071 23.8696 31.9701C23.1281 31.4029 22.4189 30.7941 21.7454 30.1467C22.4947 29.323 23.2331 28.4423 23.9606 27.5047C25.5981 27.3706 27.2265 27.1405 28.8374 26.8155C29.007 27.3486 29.1624 27.8737 29.2846 28.3802C30.083 31.6677 29.6301 33.3287 28.9416 33.7857V33.786ZM30.4272 23.859C29.9138 22.5871 29.3369 21.3422 28.6989 20.1288C29.3369 18.9155 29.9138 17.6705 30.4274 16.3988C34.1259 17.4505 36.25 18.9432 36.25 20.1288C36.25 21.3144 34.1259 22.8071 30.4272 23.8587V23.859ZM21.25 20.1288C21.25 20.3776 21.1767 20.6209 21.0393 20.8278C20.902 21.0346 20.7068 21.1959 20.4784 21.2911C20.2499 21.3863 19.9986 21.4112 19.7561 21.3627C19.5137 21.3142 19.2909 21.1943 19.1161 21.0184C18.9413 20.8425 18.8223 20.6183 18.774 20.3742C18.7258 20.1302 18.7505 19.8773 18.8451 19.6474C18.9398 19.4175 19.1 19.221 19.3055 19.0828C19.5111 18.9445 19.7528 18.8707 20 18.8707C20.3315 18.8707 20.6495 19.0033 20.8839 19.2392C21.1183 19.4752 21.25 19.7952 21.25 20.1288Z" fill="white"/>
</svg>
