<svg width="53" height="41" viewBox="0 0 53 41" fill="none" xmlns="http://www.w3.org/2000/svg">
<g clip-path="url(#clip0_691_8992)">
<path d="M25.1565 0.834473C24.4299 -0.771524 22.6701 0.0515631 21.0139 1.90351C18.219 5.02861 9.6196 5.55493 6.33241 4.08988C3.06214 2.63323 3.08497 5.2473 3.08497 5.2473C3.28791 33.5088 19.7018 31.2191 19.7018 31.2191C35.9314 25.5522 25.1565 0.834473 25.1565 0.834473ZM8.36204 14.5058C8.71047 12.4154 10.7173 11.9876 10.7173 11.9876C13.4437 11.1142 14.3715 13.7973 14.3715 13.7973C13.1968 17.0871 8.36204 14.5058 8.36204 14.5058ZM18.6515 25.8321C14.3097 26.8407 11.4344 22.0774 11.4344 22.0774C18.9331 25.3278 23.4998 19.6684 23.4998 19.6684C23.4998 19.6684 22.9924 24.8235 18.6515 25.8321ZM18.0874 13.3358C18.0874 13.3358 17.6367 10.5343 20.4554 10.0299C20.4554 10.0299 22.4284 9.46937 23.7256 11.1504C23.7256 11.1504 20.6811 15.6893 18.0874 13.3358Z" fill="white"/>
<path d="M24.4129 32.1939C25.3143 34.4481 26.7042 36.4864 28.6236 38.0053C29.6903 38.8495 30.8596 39.5607 32.1495 40.0143C32.3185 40.0737 32.4519 40.0913 32.6462 40.1078C33.0927 40.1455 33.5409 40.1618 33.9889 40.1592C34.897 40.1538 35.8091 40.0537 36.6992 39.8773C38.2447 39.5708 39.7447 38.9424 41.0556 38.0747C43.6601 36.351 45.5532 33.7645 46.8928 30.9885C48.1961 28.2878 49.0598 25.3952 49.6455 22.4627C50.0789 20.2921 50.372 18.0866 50.5218 15.8786C50.6227 14.3915 50.8125 12.4775 49.2305 11.6626C48.1486 11.1053 46.8634 11.3632 45.7751 11.7639C45.5432 11.8493 45.3147 11.9463 45.0878 12.0436C44.7855 12.1733 45.3204 11.9496 45.1144 12.0328C45.0657 12.0525 45.0164 12.0707 44.9671 12.089C44.7456 12.1711 44.518 12.2362 44.2887 12.2929C44.0651 12.3482 43.8382 12.3903 43.6106 12.426C43.5347 12.4378 43.3116 12.4664 43.6638 12.4205C43.6039 12.4282 43.5439 12.4349 43.484 12.4417C43.3414 12.4575 43.1984 12.4691 43.0554 12.4792C42.5182 12.5171 41.9783 12.5129 41.4407 12.4852C41.1709 12.4713 40.9015 12.4488 40.6326 12.4217C40.4961 12.4079 40.3599 12.3918 40.2238 12.3749C39.9765 12.3442 40.4864 12.4114 40.239 12.3769C40.1474 12.3642 40.056 12.3502 39.9647 12.3362C38.8199 12.1598 37.6907 11.8788 36.5929 11.5121C36.3589 11.434 36.1267 11.3503 35.8958 11.2632C35.7928 11.2244 35.6903 11.184 35.588 11.1432C35.5273 11.1191 35.4668 11.0942 35.4064 11.0693C35.7077 11.1932 35.4902 11.1044 35.4276 11.0775C34.9928 10.8909 34.5671 10.6834 34.1531 10.4549C33.7813 10.2497 33.4216 10.0225 33.08 9.77084C32.9921 9.70479 33.0246 9.73015 33.1776 9.84692C33.1377 9.81631 33.0987 9.78483 33.0595 9.7534C32.9837 9.69239 32.9099 9.62886 32.8371 9.5644C32.7008 9.44366 32.572 9.31475 32.4502 9.17961C32.0548 8.7408 31.3146 8.78056 30.9131 9.17961C30.4771 9.61291 30.5182 10.2691 30.9131 10.7074C31.5356 11.3983 32.3462 11.9337 33.1595 12.3773C34.1657 12.9264 35.2479 13.3534 36.3397 13.7015C38.532 14.4005 40.9353 14.8145 43.2406 14.6257C43.8047 14.5795 44.3713 14.4988 44.921 14.3629C45.1323 14.3107 45.3404 14.2461 45.545 14.1724C45.7151 14.1112 45.8823 14.0389 46.0481 13.9679C46.2285 13.8907 45.8208 14.0601 46.1004 13.9456C46.2109 13.9004 46.3227 13.8584 46.4347 13.8171C46.723 13.711 47.0181 13.6235 47.3179 13.5563C47.4103 13.5356 47.8593 13.4733 47.4661 13.5213C47.5934 13.5058 47.7216 13.4998 47.8498 13.4994C47.9551 13.4991 48.322 13.5443 47.8946 13.4854C47.9788 13.497 48.0616 13.5167 48.1434 13.5396C48.1813 13.5503 48.2185 13.5637 48.2555 13.5771C47.9102 13.452 48.0503 13.488 48.1334 13.5281C48.2343 13.5767 48.4889 13.7726 48.1494 13.5092C48.2018 13.5498 48.2493 13.5964 48.2947 13.6444C48.4447 13.8032 48.1128 13.3798 48.263 13.6035C48.2985 13.6564 48.3286 13.7125 48.3571 13.7693C48.3968 13.8484 48.4512 13.9973 48.2989 13.6269C48.3149 13.6658 48.3285 13.7057 48.3418 13.7456C48.3814 13.8642 48.4072 13.9871 48.4266 14.1103C48.3507 13.629 48.4181 14.1006 48.4207 14.2379C48.4232 14.377 48.4151 14.5172 48.4109 14.6564C48.3661 16.1333 48.2196 17.6099 48.0246 19.0739C48.0024 19.2403 48.0678 18.7555 48.0451 18.9225C48.0405 18.9568 48.0357 18.9911 48.031 19.0253C48.0215 19.0946 48.0117 19.1639 48.0019 19.2331C47.9801 19.3867 47.9574 19.54 47.9341 19.6933C47.8876 20.0005 47.8378 20.3071 47.7856 20.6134C47.6739 21.2673 47.5481 21.9187 47.409 22.5674C47.1068 23.9752 46.7356 25.3691 46.2807 26.736C46.0444 27.446 45.7832 28.1477 45.4962 28.8391C45.4789 28.8808 45.4614 28.9223 45.4439 28.9638C45.5879 28.6217 45.5151 28.7964 45.4828 28.8718C45.4472 28.9547 45.4111 29.0374 45.3748 29.1199C45.2961 29.2988 45.2148 29.4766 45.1321 29.6537C44.9733 29.9937 44.806 30.3297 44.6315 30.6621C44.2852 31.3218 43.9047 31.9639 43.4891 32.5828C43.2835 32.889 43.0676 33.1883 42.8431 33.4812C42.73 33.6289 43.0196 33.2554 42.9049 33.4018C42.8778 33.4364 42.8503 33.4709 42.8229 33.5054C42.7681 33.5741 42.7125 33.6423 42.6566 33.7102C42.5358 33.8569 42.4117 34.0009 42.2856 34.1431C41.8036 34.6863 41.2799 35.1926 40.7182 35.6539C40.651 35.7091 40.5829 35.7632 40.5146 35.817C40.4504 35.8675 40.3032 35.9791 40.597 35.7545C40.5624 35.7809 40.5276 35.807 40.4928 35.833C40.3417 35.946 40.1875 36.0548 40.0312 36.1606C39.7293 36.3652 39.4169 36.5542 39.0971 36.7298C38.7732 36.9074 38.4397 37.0675 38.0999 37.2129C38.4824 37.0493 38.1587 37.1874 38.0687 37.2229C37.9848 37.2561 37.9002 37.2878 37.8154 37.3189C37.6299 37.3871 37.4423 37.4493 37.2535 37.5077C36.8816 37.6228 36.5032 37.7166 36.1216 37.7939C35.9332 37.832 35.7437 37.8644 35.5537 37.8936C35.5056 37.901 35.4575 37.9077 35.4093 37.9145C35.7868 37.8612 35.5876 37.8909 35.504 37.9014C35.3895 37.9157 35.2747 37.9278 35.1598 37.939C34.7361 37.9803 34.3102 37.998 33.8845 37.999C33.6717 37.9995 33.4589 37.994 33.2464 37.9851C33.1378 37.9806 33.0294 37.9743 32.9209 37.9674C32.8661 37.964 32.8113 37.9599 32.7566 37.9558C32.6159 37.9455 32.5345 37.8791 32.8789 37.9806C32.8091 37.9601 32.7404 37.9356 32.672 37.911C32.6005 37.8853 32.5296 37.858 32.4589 37.83C32.4151 37.8126 32.3716 37.7947 32.328 37.7766C32.7553 37.9542 32.4892 37.8442 32.3899 37.8002C31.7945 37.5364 31.2263 37.2129 30.6859 36.8513C30.5187 36.7394 30.3551 36.6224 30.1938 36.5026C30.133 36.4574 29.9709 36.3321 30.2457 36.5437C30.203 36.5108 30.1607 36.4774 30.1185 36.444C30.0171 36.3638 29.9176 36.2813 29.8189 36.198C29.4362 35.8752 29.0761 35.5267 28.7358 35.1602C28.5121 34.9194 28.3001 34.6681 28.0964 34.4105C28.2998 34.6676 28.0982 34.4103 28.0582 34.3567C28.0024 34.2821 27.9481 34.2064 27.894 34.1306C27.783 33.975 27.677 33.816 27.5732 33.6557C27.3548 33.3181 27.1556 32.9686 26.9695 32.6125C26.8716 32.425 26.7799 32.2344 26.6909 32.0426C26.6453 31.9441 26.6017 31.8447 26.5584 31.7452C26.6745 32.0121 26.5292 31.6694 26.5093 31.6197C26.2906 31.0729 25.791 30.696 25.1722 30.8652C24.648 31.0083 24.1937 31.6459 24.4129 32.1939Z" fill="white"/>
<path d="M30.2197 19.3701C31.3594 17.6734 33.2908 18.0882 33.2908 18.0882C36.0319 18.3969 35.7765 21.1174 35.7765 21.1174C33.4332 23.5417 30.2197 19.3701 30.2197 19.3701Z" fill="white"/>
<path d="M30.3764 19.4612C30.9073 18.6908 31.7333 18.2566 32.6672 18.225C33.242 18.2055 33.8739 18.3224 34.3914 18.606C35.2609 19.0823 35.6824 20.1608 35.5955 21.1176C35.6132 21.0751 35.6309 21.0328 35.6486 20.9903C35.171 21.4744 34.5821 21.7398 33.8953 21.6852C33.2681 21.6353 32.6776 21.3153 32.1684 20.9686C31.695 20.6463 31.2684 20.2559 30.8736 19.8432C30.7455 19.7093 30.6217 19.5715 30.5016 19.4305C30.4658 19.3884 30.4305 19.3458 30.3957 19.3029C30.3817 19.2857 30.3198 19.2064 30.3763 19.2794C30.2361 19.098 29.9211 19.277 30.0634 19.4612C30.8177 20.4375 31.8255 21.3436 32.9759 21.8182C33.7753 22.148 34.6637 22.1405 35.4016 21.6648C35.6187 21.5248 35.9503 21.3234 35.962 21.0449C35.9702 20.8481 35.9564 20.6502 35.9303 20.4552C35.8591 19.9208 35.6783 19.4004 35.3483 18.9679C34.8792 18.3531 34.1673 18.029 33.4112 17.9234C32.089 17.7388 30.8428 18.1484 30.0634 19.2794C29.931 19.4716 30.2451 19.6515 30.3764 19.4612Z" fill="white"/>
<path d="M28.6885 30.4194C28.7321 30.3503 31.6231 25.9232 35.7414 27.0073C39.892 28.0997 40.2345 33.0765 40.2345 33.0765C40.2345 33.0765 35.9988 27.5008 28.6885 30.4194Z" fill="white"/>
<path d="M28.8449 30.5103C29.4818 29.5117 30.4209 28.6273 31.4095 27.9846C32.2616 27.4305 33.2349 27.0641 34.2577 27.0198C35.3547 26.9723 36.4534 27.3246 37.3524 27.9411C38.465 28.7041 39.1965 29.9114 39.6271 31.1629C39.8385 31.7769 40.0094 32.4518 40.0533 33.0765C40.1658 33.0462 40.2783 33.0159 40.3908 32.9856C39.9181 32.3651 39.3051 31.8382 38.6835 31.3723C37.2863 30.3251 35.6305 29.6558 33.8921 29.4534C32.1069 29.2456 30.2992 29.5896 28.6403 30.2457C28.4259 30.3305 28.5193 30.6789 28.7366 30.5929C30.9298 29.7255 33.3126 29.4688 35.5869 30.1761C37.0104 30.6187 38.3202 31.4203 39.3974 32.4414C39.5777 32.6123 39.7511 32.7906 39.9158 32.9763C39.9634 33.03 40.01 33.0846 40.0554 33.14C40.0754 33.1643 40.125 33.2289 40.078 33.1673C40.1751 33.2947 40.4295 33.275 40.4155 33.0764C40.3464 32.0921 40.0413 31.0987 39.6314 30.2066C38.8228 28.4464 37.3157 27.1019 35.3727 26.7415C33.5983 26.4124 31.8885 27.0986 30.5166 28.187C29.7659 28.7825 29.0491 29.5177 28.532 30.3284C28.4066 30.5253 28.7202 30.7057 28.8449 30.5103Z" fill="white"/>
<path d="M39.2227 22.1772C39.2227 22.1772 39.9445 19.5397 42.6195 20.2089C42.6195 20.2089 44.5751 20.4945 45.0426 22.481C45.0426 22.481 40.5597 25.2645 39.2227 22.1772Z" fill="white"/>
<path d="M39.3968 22.2252C39.6844 21.1868 40.5869 20.3322 41.69 20.282C42.1993 20.2589 42.7835 20.3866 43.2532 20.5956C44.0795 20.963 44.6518 21.6561 44.8674 22.5291C44.8951 22.4613 44.9229 22.3935 44.9506 22.3257C44.2625 22.7517 43.4878 23.076 42.7063 23.283C42.1053 23.4423 41.4603 23.5214 40.8477 23.3809C40.1482 23.2205 39.6627 22.7252 39.3786 22.0865C39.2843 21.8745 38.9722 22.0579 39.0657 22.2682C40.1643 24.7382 43.3613 23.7337 45.1335 22.6367C45.2041 22.5929 45.2366 22.5137 45.2167 22.4333C44.8265 20.8529 43.3351 19.9166 41.7503 19.9204C40.4562 19.9236 39.3917 20.9276 39.0481 22.1269C39.0479 22.1278 39.0476 22.1286 39.0474 22.1295C38.9853 22.3538 39.3349 22.4488 39.3968 22.2252Z" fill="white"/>
</g>
<defs>
<clipPath id="clip0_691_8992">
<rect width="53" height="41" fill="white"/>
</clipPath>
</defs>
</svg>
